<?xml version="1.0" encoding="utf-8"?>
<!-- Generator: Adobe Illustrator 20.1.0, SVG Export Plug-In . SVG Version: 6.00 Build 0)  -->
<svg version="1.1" id="Layer_1" xmlns="http://www.w3.org/2000/svg" xmlns:xlink="http://www.w3.org/1999/xlink" x="0px" y="0px"
	 viewBox="0 0 48.5 38" style="enable-background:new 0 0 48.5 38;" xml:space="preserve">
<style type="text/css">
	.st0{fill:none;}
</style>
<g>
	<polygon class="st0" points="12.1,8.5 15.5,8 14.1,6.5 	"/>
	<path d="M48.4,22.9l-0.7-0.2c-1.2-0.3-2.3-0.7-3.6-1.2c0.6-1.2,1.1-2.4,1.5-3.6l0.2-0.6c0-0.1,0-0.2-0.1-0.3
		c-0.1-0.1-0.2-0.1-0.3,0l-0.5,0.2c-1,0.4-2.8,1-4.5,1.5c0.1-1,0.3-2.1,0.3-3.2c0-0.2,0-0.4,0-0.7c0.3-0.4,0.7-0.8,0.9-1.3
		c0-0.1,0.1-0.1,0.1-0.1c0.1-0.1,0.1-0.2,0.2-0.3l0.2-0.4c0.1-0.2,0.1-0.3,0-0.5c-0.1-0.2-0.3-0.3-0.4-0.3h-0.9c0-0.8,0-1.7,0-2.5
		c0-0.2-0.2-0.5-0.4-0.5l-6.4-0.9L35.1,6h8h0c0.2,0,0.3-0.1,0.4-0.2c0.1-0.1,0.1-0.3,0-0.5l-0.4-0.7c-0.4-0.7-0.9-1.4-1.4-1.9
		C40,1,37.7,0,35.3,0c-3.3,0-6.3,1.8-8,4.6c-0.5,0.9-0.8,1.7-1,2.5l-2-0.3c0,0-0.1,0-0.1,0L23,7l-1.3-1.3c-0.1-0.1-0.3-0.2-0.5-0.1
		l-1,0.2l-3.9-3.9c-2.1-2.1-5.5-1.9-7.9,0.5c-2.1,2.1-2.5,5.2-1,7.4c0,0.1,0,0.3,0.1,0.4l0.4,0.4c0,1.7,0,3.3,0.2,4.9
		c0.1,1.1,0.2,2.1,0.3,3.2c-1.8-0.5-3.6-1-4.5-1.5l-0.5-0.2c-0.1,0-0.2,0-0.3,0c-0.1,0.1-0.1,0.2-0.1,0.3l0.2,0.6
		c0.4,1.3,0.9,2.5,1.5,3.6c-1.3,0.5-2.5,0.9-3.6,1.2l-0.7,0.2C0.1,22.9,0,23,0,23.2s0.1,0.2,0.2,0.3l0.7,0.3c1.3,0.6,2.7,1.1,4,1.6
		l1.6,0.6l0,1.8c0,0.2,0.1,0.4,0.3,0.5L7,28.3c0.2,0.1,0.4,0.2,0.6,0.2l-1,0.9c-1,0.9-1.6,2.2-1.6,3.6c0,1.4,0.5,2.7,1.4,3.7
		c0.8,0.8,2,1.3,3.3,1.3c0,0,0.1,0,0.1,0c1.2,0,2.4-0.6,3.3-1.6l2.7-3c1.3,1,2.9,1.9,4.6,2.8c1.1,0.5,2.2,1,3.4,1.5l0.3,0.1
		c0.1,0,0.1,0,0.2,0s0.1,0,0.2,0l0.3-0.1c1.1-0.4,2.3-0.9,3.4-1.5c1.8-0.9,3.3-1.8,4.7-2.8c0.1-0.1,0.3-0.2,0.4-0.3l3.5,3.5
		c0.6,0.6,1.4,0.9,2.2,0.9s1.6-0.3,2.2-0.9c0.6-0.6,0.9-1.4,0.9-2.2c0-0.8-0.3-1.6-0.9-2.2l-2.7-2.7c1-0.3,2.1-0.7,3.1-1.1l0.3-0.1
		c0.2-0.1,0.3-0.3,0.3-0.5l0-1.8l1.6-0.6c1.3-0.4,2.6-1,4-1.6l0.7-0.3c0.1,0,0.2-0.2,0.2-0.3S48.5,22.9,48.4,22.9z M41.2,27.4
		c-10.3,4-23.5,4-33.8,0l0.1-6.5C17.7,25,30.8,25,41,20.8L41.2,27.4z M37.4,35.8l-5.1-5.1c1.7-0.3,3.4-0.6,5-1.1l3.1,3.1
		c0.4,0.4,0.6,1,0.6,1.5c0,0.6-0.2,1.1-0.6,1.5C39.6,36.7,38.3,36.7,37.4,35.8z M24.1,36.8c-1.1-0.4-2.2-0.9-3.3-1.4
		c-1.6-0.8-3.1-1.7-4.4-2.6L18,31c2.1,0.3,4.2,0.4,6.3,0.4c2.3,0,4.6-0.2,6.9-0.5l1.4,1.4c-0.1,0.1-0.2,0.2-0.3,0.2
		c-1.3,1-2.8,1.9-4.5,2.7c-1.1,0.5-2.2,1-3.3,1.4l-0.1,0.1L24.1,36.8z M7.1,36c-0.7-0.7-1.1-1.8-1.1-2.9C6,32,6.5,31,7.3,30.2
		l1.4-1.3c2.6,0.9,5.3,1.5,8.1,1.9l-4.5,4.9c-0.7,0.8-1.7,1.2-2.6,1.3C8.7,37,7.7,36.7,7.1,36z M9,15.4c-0.1-1.3-0.1-2.6-0.1-4
		c0.2,0,0.3,0,0.4-0.1l1.6-1.6l4.4-0.6l-3.8,3.8c-0.2,0.2-0.2,0.5,0,0.7l1.1,1.1c0.1,0.1,0.2,0.1,0.4,0.1h0c0.1,0,0.1,0,0.2,0
		l5.2,3.4l0.3,0.3L14.7,22c-1.7-0.4-3.4-0.8-5.1-1.4C9.4,19,9.1,17.3,9,15.4z M15.5,2.6l4.1,4.1c0.1,0.1,0.3,0.2,0.5,0.1l1-0.2
		l3.9,3.9l-0.3,0.9c-0.1,0.2,0,0.4,0.1,0.5l0.3,0.3c0.2,0.2,0.4,0.2,0.6,0.1c0,0,0.2-0.1,0.3,0.1l2,2c0.2,0.2,0.2,0.3,0.1,0.4
		c-0.1,0.2,0,0.4,0.1,0.5l5.4,5.4c0.3,0.3,0.4,0.8,0.4,1.2c-3.1,0.7-6.3,1-9.5,1L19,17.4c0,0,0,0-0.1-0.1l-5.5-3.7
		c-0.1-0.1-0.2-0.1-0.3-0.1c0,0,0,0-0.1,0l-0.4-0.4L17,8.8c0.2-0.2,0.2-0.5,0-0.7l-2.6-2.6c-0.2-0.2-0.5-0.2-0.7,0l-4.8,4.8L8.5,9.8
		c0-0.1,0-0.2-0.1-0.3C6.9,7.7,7.2,5,9.1,3.1C11,1.2,13.9,1,15.5,2.6z M15.5,8l-3.4,0.5l2-2L15.5,8z M23.1,23
		c-2.4-0.1-4.8-0.3-7.2-0.7l3.4-3.1L23.1,23z M38.9,20.6c-1.2,0.4-2.5,0.8-3.8,1.1c0-0.6-0.2-1.2-0.7-1.7l-2-2
		c0.4,0,0.9,0.1,1.3,0.1c1.1,0.1,2.3,0.1,3.1,0l0.3-0.1c0.2,0,0.4-0.2,0.4-0.5l0-0.7c0.7-0.3,1.3-0.6,1.9-1.1
		C39.4,17.5,39.2,19.1,38.9,20.6z M26,9.7c0,0.1,0,0.2,0,0.3l-2.1-2.1l0.4-0.1l1.9,0.2C26,8.7,26,9.2,26,9.7z M39.7,12h-4.6
		l-1.6-2.9l6.3,0.8C39.7,10.6,39.7,11.3,39.7,12z M34.8,5c-0.2,0-0.3,0.1-0.4,0.3l-2,3.5c-0.1,0.2-0.1,0.3,0,0.5l2,3.5
		c0.1,0.2,0.3,0.3,0.4,0.3h0h2.5h3.4c0,0,0,0.1-0.1,0.1c-0.8,1.3-2,2.4-3.5,2.9L36.9,16c-0.2,0.1-0.3,0.3-0.3,0.5l0,0.7
		c-0.7,0.1-1.8,0.1-2.8,0c-0.7-0.1-1.5-0.1-2.4-0.1l-2.2-2.2c0-0.4-0.1-0.8-0.4-1.2l-2-2c0.2-0.6,0.2-1.2,0.3-1.9
		c0.1-1.3,0.2-2.9,1.2-4.7C29.7,2.6,32.4,1,35.3,1c2.2,0,4.2,0.9,5.8,2.4c0.4,0.4,0.8,1,1.2,1.6H34.8z"/>
</g>
</svg>
