<?xml version="1.0" encoding="utf-8"?>
<!-- Generator: Adobe Illustrator 18.0.0, SVG Export Plug-In . SVG Version: 6.00 Build 0)  -->
<!DOCTYPE svg PUBLIC "-//W3C//DTD SVG 1.1//EN" "http://www.w3.org/Graphics/SVG/1.1/DTD/svg11.dtd">
<svg version="1.1" id="Layer_1" xmlns="http://www.w3.org/2000/svg" xmlns:xlink="http://www.w3.org/1999/xlink" x="0px" y="0px"
	 width="500px" height="496.1px" viewBox="0 0 500 496.1" enable-background="new 0 0 500 496.1" xml:space="preserve">
<g id="New_Symbol_1">
	<path fill="#ECF0F1" d="M475,496.1H25c-13.8,0-25-11.2-25-25V25C0,11.2,11.2,0,25,0h450c13.8,0,25,11.2,25,25v446.1
		C500,484.9,488.8,496.1,475,496.1z"/>
	<path fill="#BDC3C7" d="M385.3,316.7c-4.7,4.7-11,5.1-13.9,5.4c-0.1,0-0.6,0-0.6,0c-4.5,16.8-20.3,29.2-38.8,29.2
		c-18.1,0-33.5-11.9-38.4-28.1c-5.8,0-70.8-0.1-95-0.2c-5.9,14.3-20.3,24.4-37,24.4c-16.9,0-31.3-10.3-37.1-24.8c-1.1,0-1.7,0-1.9,0
		c-12.3,0-22.3-10-22.3-22.3l-0.1-62.1l55,0c3.3-9,8.4-15.6,14.3-20l-31-44.4l-0.9,16c12.9,5.1,17.6,16,16.4,24.9
		c-1.3,9.8-10,19.4-26.5,19.4c-0.5,0-1,0-1.6,0c-3.3-0.1-5.9-2.9-5.8-6.2c0.1-3.3,2.9-5.9,6.2-5.8c8.8,0.3,14.9-3.2,15.7-9
		c0.7-4.8-2.9-10.9-12.1-13.2l-4.9-1.2l2.5-44.2c0-0.7,0.2-1.4,0.5-2.1c0.6-2.4,2-4.5,4.2-6c4.8-3.3,11.3-2.2,14.7,2.6l44.2,63.3
		c5.6,0.7,11.2,1.9,16,6c0-14.3-0.2-19.5,0.2-40.5c0,0,136.1,0,136.1,0l48.7,80.2v46v0.2v0.2C392,309.1,388.6,313.5,385.3,316.7z"/>
	<path fill="#ECF0F1" d="M335.3,192H222v66H117v42.2c0,2.6,2.3,4.8,4.8,4.8c0.3,0,0.7,0,1.2,0c1.6-19,18.2-34.6,38.5-34.6
		c20.3,0,36.9,15.4,38.5,34.9c29.7,0,63.5,0,93.6,0c3.4-17.5,19.1-30.7,38-30.7c18.8,0,34.6,13.3,38,30.7c5.3,0,8.3,0,8.3,0v-47
		L335.3,192z"/>
	<path fill="#ECF0F1" d="M331.7,290.5c-12.5,0-22.7,9.8-22.7,21.8c0,12,10.2,21.8,22.7,21.8c12.5,0,22.7-9.8,22.7-21.8
		C354.4,300.3,344.2,290.5,331.7,290.5z"/>
	<path fill="#ECF0F1" d="M161.6,286.7c-12.5,0-22.7,9.8-22.7,21.8c0,12,10.2,21.8,22.7,21.8c12.5,0,22.7-9.8,22.7-21.8
		C184.2,296.4,174.1,286.7,161.6,286.7z"/>
</g>
</svg>
