<?xml version="1.0" encoding="utf-8"?>
<!-- Generator: Adobe Illustrator 20.1.0, SVG Export Plug-In . SVG Version: 6.00 Build 0)  -->
<svg version="1.1" id="Layer_1" xmlns="http://www.w3.org/2000/svg" xmlns:xlink="http://www.w3.org/1999/xlink" x="0px" y="0px"
	 viewBox="0 0 600 200" style="enable-background:new 0 0 600 200;" xml:space="preserve">
<style type="text/css">
	.st0{fill:#FFFFFF;}
	.st1{fill:#89C7D4;}
	.st2{opacity:0.2;fill:#FFFFFF;}
	.st3{opacity:0.5;fill:#0D2038;}
	.st4{opacity:0.1;fill:#0D2038;}
	.st5{opacity:0.1;fill:#FFFFFF;}
	.st6{fill:#0D2038;}
	.st7{fill:#DBDBDB;}
	.st8{fill:#F48436;}
	.st9{fill:#EFECE3;}
	.st10{opacity:0.2;}
	.st11{fill:#F2F2F2;}
	.st12{fill:#695465;}
	.st13{fill:#F39457;}
	.st14{opacity:0.45;fill:#CF978A;}
	.st15{fill:#B3DCE1;}
	.st16{fill:#B3C9C7;}
	.st17{fill:#B5B299;}
	.st18{fill:#AFADA1;}
	.st19{fill:#573F2F;}
	.st20{fill:#C0C5A2;}
	.st21{fill:#D6D8D7;}
	.st22{fill:#F4EEE1;}
	.st23{fill:#F5F5F2;}
	.st24{fill:#CEC8AA;}
	.st25{fill:#EBEBEA;}
	.st26{fill:#D4CFB4;}
	.st27{opacity:0.5;fill:url(#SVGID_1_);}
	.st28{opacity:0.4;fill:#FFFFFF;}
	.st29{opacity:0.4;fill:#ECF0F0;}
</style>
<g>
	<rect class="st0" width="200" height="200"/>
	<rect x="200" class="st0" width="200" height="200"/>
	<rect x="400" class="st0" width="200" height="200"/>
	<g>
		<path class="st1" d="M383,65.4L383,65.4c-1-2.3-2.8-4.4-5.4-5.7C353.3,47.8,326.1,42,299,43c-27,1-53.7,8.7-77,22.3
			c-2.6,1.5-4.4,3.8-4.9,6.1c-0.3,1.3-0.1,2.4,0.5,3.2l11.6,16.9c1.1,1.5,2.8,2.3,4.9,2.3c0.1,0,0.2,0,0.3,0c1.3,0,2.5-0.4,3.7-1.1
			c6.1-3.6,12.6-6.7,19.2-9.2c3.3-1.3,5.2-4.6,4.3-7.6l-1.6-5.3c-0.5-1.7-0.3-3.5,0.5-5c0.8-1.5,2.3-2.7,4-3.1
			c11.4-3.2,23.2-5,35.1-5.4c11.9-0.4,23.8,0.6,35.4,2.9c1.7,0.3,3.2,1.4,4.2,2.9c0.9,1.5,1.3,3.3,0.9,5l-1,4.5l0.1,0.1l-0.1,0.8v0
			c-1,3,1.4,6.2,4.7,7.3c6.8,2.1,13.3,4.7,19.7,7.8c1.1,0.5,2.3,0.8,3.5,0.8c0.1,0,0.2,0,0.3,0c2.2-0.1,4-1,5-2.7l0.4-0.6l0,0
			l10.1-17.1C383.3,67.5,383,66.3,383,65.4z"/>
		<path class="st2" d="M218.3,74.7c0.8-1.6,2.2-3.1,4.1-4.2c23.3-13.6,49.8-21.2,76.8-22.2c27-1,54,4.8,78.2,16.7
			c1.9,0.9,3.5,2.3,4.4,3.9l0.3-0.5c0.6-0.9,0.4-2,0.2-2.8c-0.6-2.1-2.5-4.2-5.1-5.4C353,48.3,326,42.5,299,43.5
			c-27,1-53.5,8.6-76.8,22.2c-2.4,1.4-4.2,3.6-4.7,5.8c-0.2,0.8-0.2,1.9,0.4,2.8L218.3,74.7z"/>
		<path class="st1" d="M323,84.9h-10.3V71.5c0-1.9,1.5-3.4,3.4-3.4h3.5c1.9,0,3.4,1.5,3.4,3.4V84.9z"/>
		<path class="st1" d="M285.5,84.9h-10.3V71.5c0-1.9,1.5-3.4,3.4-3.4h3.5c1.9,0,3.4,1.5,3.4,3.4V84.9z"/>
		<path class="st3" d="M278.6,68.1c-1.9,0-3.4,1.5-3.4,3.4v13.4h5.1V68.1H278.6z"/>
		<path class="st3" d="M316.1,68.1c-1.9,0-3.4,1.5-3.4,3.4v13.4h5.1V68.1H316.1z"/>
		<path class="st1" d="M240.9,130.5c0.5,6.2,1.3,12.5,2.4,18.7c0.3,1.7,1.7,3.1,3.4,3.4c36.3,6.1,69.6,6.1,105.8,0
			c1.7-0.3,3.1-1.6,3.4-3.4c1.2-6.2,2-12.4,2.4-18.6C319.4,134.2,280,134.2,240.9,130.5z"/>
		<path class="st1" d="M358.5,130.1c-4.9-14.3-12.1-30.2-20.2-46.5c-0.6-1.3-1.9-2.1-3.3-2.3c-24-2.8-47-2.8-70.9,0
			c-1.4,0.2-2.6,1-3.3,2.3c-8.1,16.3-15.2,32.1-20.1,46.4c0,0,0,0.1,0,0.1c0,0,0.1,0.1,0.1,0.1c0,0,0,0,0.1,0c0,0.1,0,0.3,0,0.4
			c39.1,3.7,78.5,3.7,117.6,0C358.5,130.4,358.5,130.3,358.5,130.1C358.5,130.1,358.5,130.1,358.5,130.1z"/>
		<path class="st2" d="M264.1,81.3c-1.4,0.2-2.6,1-3.3,2.3c-8.1,16.3-15.2,32.1-20.1,46.4c0,0,0,0.1,0,0.1c0,0,0.1,0.1,0.1,0.1
			c0,0,0,0,0.1,0c0,0.1,0,0.3,0,0.4c4,0.4,8,0.7,11.9,1c4-14.3,11-35.8,16.8-50.8C267.8,80.9,266,81,264.1,81.3z"/>
		<path class="st4" d="M269.7,80.7c-5.8,15-12.8,36.6-16.8,50.8c31.2,2.3,62.6,2.3,93.9,0c-4.3-14.6-12-36.2-17.6-50.8
			C309.1,78.7,289.7,78.7,269.7,80.7z"/>
		<path class="st5" d="M240.9,130.5c0.5,6.2,1.3,12.5,2.4,18.7c0.3,1.7,1.7,3.1,3.4,3.4c3.1,0.5,6.2,1,9.2,1.4l-3.1-22.4
			C248.9,131.2,244.9,130.9,240.9,130.5z"/>
		<path class="st3" d="M346.6,131.5c-31.2,2.3-62.5,2.4-93.7,0L256,154c29.6,4.2,57.6,4.2,87.2,0l3.5-22.4
			C346.6,131.5,346.6,131.5,346.6,131.5z"/>
		<ellipse class="st6" cx="299.6" cy="109.4" rx="27" ry="22.3"/>
		<ellipse class="st0" cx="299.6" cy="107.1" rx="27" ry="22.4"/>
		<ellipse class="st7" cx="299.6" cy="107.1" rx="17.2" ry="14.2"/>
		<path class="st8" d="M320.8,113.1c-0.8-0.7-2.1-0.7-2.8,0.1c-0.8,0.8-0.8,2-0.1,2.8c0.1,0.1,4.6,6.4,4.8,6.6
			c1.3,1.3,3.4,1.3,4.7,0c1.3-1.3,1.3-3.4,0-4.7C327.2,117.7,320.9,113.1,320.8,113.1z"/>
		<rect x="284.6" y="142.6" class="st9" width="14" height="5.3"/>
		<rect x="298.6" y="142.6" class="st0" width="14.2" height="5.3"/>
		<polygon class="st10" points="285.8,143.8 299.8,143.8 312.7,143.8 312.7,142.6 298.6,142.6 284.6,142.6 284.6,147.8 285.8,147.8 
					"/>
	</g>
	<g>
		<g>
			<path class="st8" d="M537.3,75.2l-81.6,81.6c-3.8,3.8-10,3.8-13.8,0c-1.9-1.9-2.8-4.4-2.8-6.9c0-2.5,0.9-5,2.8-6.9l81.6-81.6
				L537.3,75.2z"/>
			
				<rect x="526.6" y="95.6" transform="matrix(0.7073 -0.7069 0.7069 0.7073 84.8164 404.8596)" class="st11" width="9.5" height="8.8"/>
			<path class="st8" d="M551,88.9l-12.2,12.2c-0.3,0.3-0.5,0.5-0.8,0.8c-0.1-0.1-0.2-0.3-0.3-0.4c-7.2-7.2-18.9-7.4-26.3-0.4l0,0
				c-0.8-0.8-1.4-1.5-2-2.4c-2.4-3.4-3.7-7.4-3.7-11.4c0-5,1.9-9.9,5.7-13.7l12.2-12.2L551,88.9z"/>
			
				<rect x="535.7" y="82" transform="matrix(0.7072 -0.7071 0.7071 0.7072 93.0042 408.765)" class="st12" width="8.6" height="20.2"/>
			
				<rect x="528.7" y="56.1" transform="matrix(0.707 -0.7072 0.7072 0.707 107.731 395.8809)" class="st11" width="6" height="23.6"/>
			<path class="st13" d="M560.8,76.7l-11,11l-6.2-6.2l8.6-8.6c0.1-0.1,0.2-0.1,0.2-0.2c0.1-0.1,0.1-0.2,0.2-0.2c0.7-0.9,0.7-2.1,0-3
				c-0.1-0.1-0.1-0.1-0.2-0.2c-0.1-0.1-0.1-0.1-0.2-0.2l-17-17l0.5-0.5c2.5-2.5,5.6-4.1,8.9-4.8c1.2-0.3,2.4-0.4,3.6-0.4
				c4.5,0,9.1,1.7,12.5,5.2C567.7,58.6,567.7,69.8,560.8,76.7z"/>
			
				<rect x="537.4" y="47.3" transform="matrix(0.7071 -0.7071 0.7071 0.7071 116.4824 399.4802)" class="st11" width="6" height="23.6"/>
			<path class="st14" d="M452.6,152.9c-1.9,1.9-4.9,1.9-6.8,0l0,0c-1.9-1.9-1.9-4.9,0-6.8l49.7-49.7c1.9-1.9,4.9-1.9,6.8,0l0,0
				c1.9,1.9,1.9,4.9,0,6.8L452.6,152.9z"/>
			
				<rect x="520.3" y="69.4" transform="matrix(0.7071 -0.7071 0.7071 0.7071 99.4467 393.2993)" class="st14" width="8.5" height="14.3"/>
			
				<rect x="515.9" y="75.9" transform="matrix(0.7071 -0.7071 0.7071 0.7071 93.0377 390.6732)" class="st14" width="4.3" height="14.3"/>
		</g>
		<g>
			<g>
				<path class="st1" d="M444.1,83.4c7.4,5.2,16.8,5.6,24.3,1.9l71.8,71.9c1.7,1.7,3.8,2.6,6.1,2.8c2.7,0.2,5.4-0.7,7.5-2.8
					c1.9-1.9,2.8-4.3,2.8-6.8c0-2.4-0.9-4.9-2-5.9l-73-73.1c1.9-10.4-1.5-21-10-27c-7.2-5.1-16.3-5.6-23.8-2.1l15.6,11
					c2.2,1.5,2.7,4.4,1.2,6.6l-8.3,11.9c-1.5,2.1-4.5,2.7-6.6,1.2l-15.6-11C433.3,70,436.9,78.3,444.1,83.4z"/>
			</g>
			<path class="st15" d="M543.7,152.9c1.6,1.6,4.2,1.6,5.8,0l0,0c1.6-1.6,1.6-4.2,0-5.8l-60.2-60.3c-1.6-1.6-4.2-1.6-5.8,0l0,0
				c-1.6,1.6-1.6,4.2,0,5.8L543.7,152.9z"/>
		</g>
		<polygon class="st16" points="497.8,114.7 491.1,121.4 488.1,117.4 482.2,109.7 479.2,105.7 484,100.9 487.5,104.4 494.3,111.2 		
			"/>
	</g>
	<g>
		<g>
			<polygon class="st17" points="94.5,33.1 94.5,25 80.2,25 80.2,33.1 65.9,33.1 65.9,48.5 109.3,48.5 109.3,33.1 			"/>
			<path class="st18" d="M144.2,168.1c0,3.8-2.7,6.9-5.9,6.9H35.7c-3.3,0-5.9-3.1-5.9-6.9V46.9c0-3.8,2.7-6.9,5.9-6.9h102.5
				c3.3,0,5.9,3.1,5.9,6.9V168.1L144.2,168.1z"/>
			<path class="st19" d="M141.3,166.4c0,3.8-2.7,6.9-5.9,6.9H32.9c-3.3,0-5.9-3.1-5.9-6.9V45.2c0-3.8,2.7-6.9,5.9-6.9h102.5
				c3.3,0,5.9,3.1,5.9,6.9V166.4L141.3,166.4z"/>
			<polygon class="st20" points="129.6,65.4 129.6,66.2 59.6,66.2 59.6,65.4 129.6,65.4 			"/>
			<polygon class="st21" points="127.2,166.3 36.3,162.5 41.3,44 132.3,47.9 127.2,166.3 			"/>
			<polygon class="st21" points="112.9,164.7 29,148.6 50.5,37 134.3,53.1 112.9,164.7 			"/>
			<polygon class="st22" points="38.6,44.7 38.6,163.3 108.7,163.3 129.6,146.6 129.6,44.7 			"/>
			<polygon class="st23" points="113.4,142.9 108.7,163.3 109.2,163.4 129.6,146.6 			"/>
			<polygon class="st8" points="91.2,34.4 91.2,26.2 76.9,26.2 76.9,34.4 62.5,34.4 62.5,49.7 106,49.7 106,34.4 			"/>
			<rect x="49.6" y="65.4" class="st8" width="15.2" height="14.6"/>
			<rect x="49.6" y="87.7" class="st24" width="15.2" height="14.6"/>
			<rect x="72.2" y="65.4" class="st8" width="36.6" height="4.3"/>
			<rect x="72.2" y="72.7" class="st8" width="36.6" height="4.3"/>
			<rect x="72.2" y="87.7" class="st24" width="36.6" height="4.3"/>
			<path class="st25" d="M88.3,34.3c0,2.1-1.7,3.7-3.7,3.7H84c-2.1,0-3.7-1.7-3.7-3.7v-0.6c0-2.1,1.7-3.7,3.7-3.7h0.6
				c2.1,0,3.7,1.7,3.7,3.7V34.3z"/>
			<rect x="49.6" y="111.8" class="st26" width="15.2" height="14.6"/>
			<rect x="49.6" y="134.2" class="st24" width="15.2" height="14.6"/>
			<rect x="72.2" y="111.8" class="st24" width="36.6" height="4.3"/>
			<rect x="72.2" y="119.2" class="st24" width="36.6" height="4.3"/>
			<rect x="72.2" y="134.2" class="st24" width="36.6" height="4.3"/>
			<rect x="72.2" y="141.5" class="st24" width="36.6" height="4.3"/>
			<rect x="72.2" y="95" class="st24" width="36.6" height="4.3"/>
		</g>
		<radialGradient id="SVGID_1_" cx="77.3476" cy="70.1412" r="56.5001" gradientUnits="userSpaceOnUse">
			<stop  offset="0" style="stop-color:#FFFFFF"/>
			<stop  offset="1" style="stop-color:#C2E0F4"/>
		</radialGradient>
		<circle class="st27" cx="96.7" cy="88.8" r="31.9"/>
		<path class="st1" d="M126.4,112.9c-0.8,1-1.7,2-2.6,2.9c-0.9,0.9-1.9,1.8-2.9,2.6l6.1,6.1c0.4-1.2,1.1-2.4,2.1-3.4c0,0,0,0,0,0
			c1-1,2.2-1.7,3.4-2.1L126.4,112.9z"/>
		<path class="st1" d="M123.8,61.7c-14.9-14.9-39.1-14.9-54.1,0c-14.9,14.9-14.9,39.1,0,54.1c14,14,36.2,14.9,51.2,2.6
			c1-0.8,2-1.7,2.9-2.6c0.9-0.9,1.8-1.9,2.6-2.9C138.7,97.9,137.8,75.7,123.8,61.7z M119.4,111.4c-12.5,12.5-32.7,12.5-45.2,0
			c-12.5-12.5-12.5-32.7,0-45.2c12.5-12.5,32.8-12.5,45.2,0C131.9,78.7,131.9,98.9,119.4,111.4z"/>
		<path class="st4" d="M69.7,61.7l4.4,4.4c12.5-12.5,32.8-12.5,45.2,0c12.5,12.5,12.5,32.7,0,45.2l1.1,1.1l3.3,3.3
			c0.9-0.9,1.8-1.9,2.6-2.9c12.3-15,11.4-37.2-2.6-51.2C108.8,46.8,84.6,46.8,69.7,61.7z"/>
		<path class="st28" d="M114.2,71.3c-9.7-9.7-25.3-9.7-35,0l35,35C123.9,96.6,123.9,80.9,114.2,71.3z"/>
		<path class="st28" d="M114.2,71.3c-9.7-9.7-25.3-9.7-35,0l0.1,0.1c9.7-7.8,23.9-7.1,32.9,1.9c9,9,9.6,23.2,1.9,32.9l0.1,0.1
			C123.9,96.6,123.9,80.9,114.2,71.3z"/>
		<path class="st29" d="M79.2,106.3c9.7,9.7,25.3,9.7,35,0l-35-35C69.6,80.9,69.6,96.6,79.2,106.3z"/>
		<path class="st28" d="M81.2,104.3c-9-9-9.6-23.2-1.9-32.9l-0.1-0.1c-9.7,9.7-9.7,25.3,0,35c9.7,9.7,25.3,9.7,35,0l-0.1-0.1
			C104.4,113.9,90.2,113.3,81.2,104.3z"/>
		<path class="st1" d="M170.5,147.7c-0.7-0.7-0.8,0.6-24.7-20l-2.3,2.3l-2.8,2.8l-2.8,2.8l-2.3,2.3c20.5,23.9,19.4,24.1,20,24.7
			c3.8,3.8,10.8,3.1,14.4-0.5c0,0,0,0,0,0C173.6,158.5,174.3,151.5,170.5,147.7z"/>
		<path class="st1" d="M135.2,118.5c-0.9,0-1.8,0.2-2.7,0.5c-1.2,0.4-2.4,1.1-3.4,2.1c0,0,0,0,0,0c-1,1-1.7,2.2-2.1,3.4
			c-0.3,0.9-0.5,1.8-0.5,2.7c2,2.3,3.9,4.5,5.7,6.5l2-2l2.8-2.8l2.8-2.8l2-2C139.7,122.4,137.5,120.5,135.2,118.5z"/>
		<path class="st3" d="M141.7,124.1c-2-1.7-4.2-3.6-6.5-5.7c-0.9,0-1.8,0.2-2.7,0.5c-1.2,0.4-2.4,1.1-3.4,2.1l7.8,7.8l2.8-2.8
			L141.7,124.1z"/>
		<path class="st8" d="M141.7,124.1l-2,2l-2.8,2.8l-2.8,2.8l-2,2c1.3,1.5,2.4,2.8,3.6,4.1l2.3-2.3l2.8-2.8l2.8-2.8l2.3-2.3
			C144.5,126.6,143.1,125.4,141.7,124.1z"/>
		<path class="st3" d="M145.8,127.7l-2.3,2.3l-2.8,2.8l13.9,13.9l15.4,15.4c3.6-3.6,4.3-10.5,0.5-14.4
			C169.8,147,169.7,148.3,145.8,127.7z"/>
		<path class="st28" d="M141.7,124.1l-2,2l-2.8,2.8l3.8,3.8l2.8-2.8l2.3-2.3C144.5,126.6,143.1,125.4,141.7,124.1z"/>
	</g>
</g>
</svg>
