<?xml version="1.0" encoding="UTF-8" standalone="no"?>
<svg
   xmlns:dc="http://purl.org/dc/elements/1.1/"
   xmlns:cc="http://creativecommons.org/ns#"
   xmlns:rdf="http://www.w3.org/1999/02/22-rdf-syntax-ns#"
   xmlns:svg="http://www.w3.org/2000/svg"
   xmlns="http://www.w3.org/2000/svg"
   version="1.1"
   id="svg4953"
   viewBox="0 0 199.99999 199.99999"
   height="200"
   width="200">
  <defs
     id="defs4955">
    <radialGradient
       id="SVGID_1_"
       cx="77.347603"
       cy="70.141197"
       r="56.500099"
       gradientUnits="userSpaceOnUse">
      <stop
         offset="0"
         style="stop-color:#FFFFFF"
         id="stop4834" />
      <stop
         offset="1"
         style="stop-color:#C2E0F4"
         id="stop4836" />
    </radialGradient>
  </defs>
  <metadata
     id="metadata4958">
    <rdf:RDF>
      <cc:Work
         rdf:about="">
        <dc:format>image/svg+xml</dc:format>
        <dc:type
           rdf:resource="http://purl.org/dc/dcmitype/StillImage" />
        <dc:title></dc:title>
      </cc:Work>
    </rdf:RDF>
  </metadata>
  <g
     transform="translate(0,-852.36225)"
     id="layer1">
    <g
       id="g4751"
       transform="translate(-399.97645,852.32312)">
      <g
         id="g4753">
        <path
           class="st8"
           d="m 537.3,75.2 -81.6,81.6 c -3.8,3.8 -10,3.8 -13.8,0 -1.9,-1.9 -2.8,-4.4 -2.8,-6.9 0,-2.5 0.9,-5 2.8,-6.9 l 81.6,-81.6 13.8,13.8 z"
           id="path4755"
           style="fill:#f48436" />
        <rect
           x="526.59998"
           y="95.599998"
           transform="matrix(0.7073,-0.7069,0.7069,0.7073,84.8164,404.8596)"
           class="st11"
           width="9.5"
           height="8.8000002"
           id="rect4757"
           style="fill:#f2f2f2" />
        <path
           class="st8"
           d="m 551,88.9 -12.2,12.2 c -0.3,0.3 -0.5,0.5 -0.8,0.8 -0.1,-0.1 -0.2,-0.3 -0.3,-0.4 -7.2,-7.2 -18.9,-7.4 -26.3,-0.4 l 0,0 c -0.8,-0.8 -1.4,-1.5 -2,-2.4 -2.4,-3.4 -3.7,-7.4 -3.7,-11.4 0,-5 1.9,-9.9 5.7,-13.7 L 523.6,61.4 551,88.9 Z"
           id="path4759"
           style="fill:#f48436" />
        <rect
           x="535.70001"
           y="82"
           transform="matrix(0.7072,-0.7071,0.7071,0.7072,93.0042,408.765)"
           class="st12"
           width="8.6000004"
           height="20.200001"
           id="rect4761"
           style="fill:#695465" />
        <rect
           x="528.70001"
           y="56.099998"
           transform="matrix(0.707,-0.7072,0.7072,0.707,107.731,395.8809)"
           class="st11"
           width="6"
           height="23.6"
           id="rect4763"
           style="fill:#f2f2f2" />
        <path
           class="st13"
           d="m 560.8,76.7 -11,11 -6.2,-6.2 8.6,-8.6 c 0.1,-0.1 0.2,-0.1 0.2,-0.2 0.1,-0.1 0.1,-0.2 0.2,-0.2 0.7,-0.9 0.7,-2.1 0,-3 -0.1,-0.1 -0.1,-0.1 -0.2,-0.2 -0.1,-0.1 -0.1,-0.1 -0.2,-0.2 l -17,-17 0.5,-0.5 c 2.5,-2.5 5.6,-4.1 8.9,-4.8 1.2,-0.3 2.4,-0.4 3.6,-0.4 4.5,0 9.1,1.7 12.5,5.2 7,7 7,18.2 0.1,25.1 z"
           id="path4765"
           style="fill:#f39457" />
        <rect
           x="537.40002"
           y="47.299999"
           transform="matrix(0.7071,-0.7071,0.7071,0.7071,116.4824,399.4802)"
           class="st11"
           width="6"
           height="23.6"
           id="rect4767"
           style="fill:#f2f2f2" />
        <path
           class="st14"
           d="m 452.6,152.9 c -1.9,1.9 -4.9,1.9 -6.8,0 l 0,0 c -1.9,-1.9 -1.9,-4.9 0,-6.8 l 49.7,-49.7 c 1.9,-1.9 4.9,-1.9 6.8,0 l 0,0 c 1.9,1.9 1.9,4.9 0,6.8 l -49.7,49.7 z"
           id="path4769"
           style="opacity:0.45;fill:#cf978a" />
        <rect
           x="520.29999"
           y="69.400002"
           transform="matrix(0.7071,-0.7071,0.7071,0.7071,99.4467,393.2993)"
           class="st14"
           width="8.5"
           height="14.3"
           id="rect4771"
           style="opacity:0.45;fill:#cf978a" />
        <rect
           x="515.90002"
           y="75.900002"
           transform="matrix(0.7071,-0.7071,0.7071,0.7071,93.0377,390.6732)"
           class="st14"
           width="4.3000002"
           height="14.3"
           id="rect4773"
           style="opacity:0.45;fill:#cf978a" />
      </g>
      <g
         id="g4775">
        <g
           id="g4777">
          <path
             class="st1"
             d="m 444.1,83.4 c 7.4,5.2 16.8,5.6 24.3,1.9 l 71.8,71.9 c 1.7,1.7 3.8,2.6 6.1,2.8 2.7,0.2 5.4,-0.7 7.5,-2.8 1.9,-1.9 2.8,-4.3 2.8,-6.8 0,-2.4 -0.9,-4.9 -2,-5.9 l -73,-73.1 c 1.9,-10.4 -1.5,-21 -10,-27 -7.2,-5.1 -16.3,-5.6 -23.8,-2.1 l 15.6,11 c 2.2,1.5 2.7,4.4 1.2,6.6 l -8.3,11.9 c -1.5,2.1 -4.5,2.7 -6.6,1.2 L 434.1,62 c -0.8,8 2.8,16.3 10,21.4 z"
             id="path4779"
             style="fill:#89c7d4" />
        </g>
        <path
           class="st15"
           d="m 543.7,152.9 c 1.6,1.6 4.2,1.6 5.8,0 l 0,0 c 1.6,-1.6 1.6,-4.2 0,-5.8 L 489.3,86.8 c -1.6,-1.6 -4.2,-1.6 -5.8,0 l 0,0 c -1.6,1.6 -1.6,4.2 0,5.8 l 60.2,60.3 z"
           id="path4781"
           style="fill:#b3dce1" />
      </g>
      <polygon
         class="st16"
         points="491.1,121.4 488.1,117.4 482.2,109.7 479.2,105.7 484,100.9 487.5,104.4 494.3,111.2 497.8,114.7 "
         id="polygon4783"
         style="fill:#b3c9c7" />
    </g>
  </g>
</svg>
