<?xml version="1.0" encoding="UTF-8" standalone="no"?>
<svg
   xmlns:dc="http://purl.org/dc/elements/1.1/"
   xmlns:cc="http://creativecommons.org/ns#"
   xmlns:rdf="http://www.w3.org/1999/02/22-rdf-syntax-ns#"
   xmlns:svg="http://www.w3.org/2000/svg"
   xmlns="http://www.w3.org/2000/svg"
   version="1.1"
   id="svg4953"
   viewBox="0 0 199.99999 199.99999"
   height="200"
   width="200">
  <defs
     id="defs4955">
    <radialGradient
       id="SVGID_1_"
       cx="77.347603"
       cy="70.141197"
       r="56.500099"
       gradientUnits="userSpaceOnUse">
      <stop
         offset="0"
         style="stop-color:#FFFFFF"
         id="stop4834" />
      <stop
         offset="1"
         style="stop-color:#C2E0F4"
         id="stop4836" />
    </radialGradient>
  </defs>
  <metadata
     id="metadata4958">
    <rdf:RDF>
      <cc:Work
         rdf:about="">
        <dc:format>image/svg+xml</dc:format>
        <dc:type
           rdf:resource="http://purl.org/dc/dcmitype/StillImage" />
        <dc:title></dc:title>
      </cc:Work>
    </rdf:RDF>
  </metadata>
  <g
     transform="translate(0,-852.36225)"
     id="layer1">
    <g
       id="g4711"
       transform="translate(-200.02573,852.33003)">
      <path
         class="st1"
         d="m 383,65.4 0,0 C 382,63.1 380.2,61 377.6,59.7 353.3,47.8 326.1,42 299,43 c -27,1 -53.7,8.7 -77,22.3 -2.6,1.5 -4.4,3.8 -4.9,6.1 -0.3,1.3 -0.1,2.4 0.5,3.2 l 11.6,16.9 c 1.1,1.5 2.8,2.3 4.9,2.3 0.1,0 0.2,0 0.3,0 1.3,0 2.5,-0.4 3.7,-1.1 6.1,-3.6 12.6,-6.7 19.2,-9.2 3.3,-1.3 5.2,-4.6 4.3,-7.6 L 260,70.6 c -0.5,-1.7 -0.3,-3.5 0.5,-5 0.8,-1.5 2.3,-2.7 4,-3.1 11.4,-3.2 23.2,-5 35.1,-5.4 11.9,-0.4 23.8,0.6 35.4,2.9 1.7,0.3 3.2,1.4 4.2,2.9 0.9,1.5 1.3,3.3 0.9,5 l -1,4.5 0.1,0.1 -0.1,0.8 0,0 c -1,3 1.4,6.2 4.7,7.3 6.8,2.1 13.3,4.7 19.7,7.8 1.1,0.5 2.3,0.8 3.5,0.8 0.1,0 0.2,0 0.3,0 2.2,-0.1 4,-1 5,-2.7 l 0.4,-0.6 0,0 10.1,-17.1 c 0.5,-1.3 0.2,-2.5 0.2,-3.4 z"
         id="path4713"
         style="fill:#89c7d4" />
      <path
         class="st2"
         d="m 218.3,74.7 c 0.8,-1.6 2.2,-3.1 4.1,-4.2 23.3,-13.6 49.8,-21.2 76.8,-22.2 27,-1 54,4.8 78.2,16.7 1.9,0.9 3.5,2.3 4.4,3.9 l 0.3,-0.5 c 0.6,-0.9 0.4,-2 0.2,-2.8 -0.6,-2.1 -2.5,-4.2 -5.1,-5.4 C 353,48.3 326,42.5 299,43.5 c -27,1 -53.5,8.6 -76.8,22.2 -2.4,1.4 -4.2,3.6 -4.7,5.8 -0.2,0.8 -0.2,1.9 0.4,2.8 l 0.4,0.4 z"
         id="path4715"
         style="opacity:0.2;fill:#ffffff" />
      <path
         class="st1"
         d="m 323,84.9 -10.3,0 0,-13.4 c 0,-1.9 1.5,-3.4 3.4,-3.4 l 3.5,0 c 1.9,0 3.4,1.5 3.4,3.4 l 0,13.4 z"
         id="path4717"
         style="fill:#89c7d4" />
      <path
         class="st1"
         d="m 285.5,84.9 -10.3,0 0,-13.4 c 0,-1.9 1.5,-3.4 3.4,-3.4 l 3.5,0 c 1.9,0 3.4,1.5 3.4,3.4 l 0,13.4 z"
         id="path4719"
         style="fill:#89c7d4" />
      <path
         class="st3"
         d="m 278.6,68.1 c -1.9,0 -3.4,1.5 -3.4,3.4 l 0,13.4 5.1,0 0,-16.8 -1.7,0 z"
         id="path4721"
         style="opacity:0.5;fill:#0d2038" />
      <path
         class="st3"
         d="m 316.1,68.1 c -1.9,0 -3.4,1.5 -3.4,3.4 l 0,13.4 5.1,0 0,-16.8 -1.7,0 z"
         id="path4723"
         style="opacity:0.5;fill:#0d2038" />
      <path
         class="st1"
         d="m 240.9,130.5 c 0.5,6.2 1.3,12.5 2.4,18.7 0.3,1.7 1.7,3.1 3.4,3.4 36.3,6.1 69.6,6.1 105.8,0 1.7,-0.3 3.1,-1.6 3.4,-3.4 1.2,-6.2 2,-12.4 2.4,-18.6 -38.9,3.6 -78.3,3.6 -117.4,-0.1 z"
         id="path4725"
         style="fill:#89c7d4" />
      <path
         class="st1"
         d="m 358.5,130.1 c -4.9,-14.3 -12.1,-30.2 -20.2,-46.5 -0.6,-1.3 -1.9,-2.1 -3.3,-2.3 -24,-2.8 -47,-2.8 -70.9,0 -1.4,0.2 -2.6,1 -3.3,2.3 -8.1,16.3 -15.2,32.1 -20.1,46.4 0,0 0,0.1 0,0.1 0,0 0.1,0.1 0.1,0.1 0,0 0,0 0.1,0 0,0.1 0,0.3 0,0.4 39.1,3.7 78.5,3.7 117.6,0 0,-0.2 0,-0.3 0,-0.5 0,0 0,0 0,0 z"
         id="path4727"
         style="fill:#89c7d4" />
      <path
         class="st2"
         d="m 264.1,81.3 c -1.4,0.2 -2.6,1 -3.3,2.3 -8.1,16.3 -15.2,32.1 -20.1,46.4 0,0 0,0.1 0,0.1 0,0 0.1,0.1 0.1,0.1 0,0 0,0 0.1,0 0,0.1 0,0.3 0,0.4 4,0.4 8,0.7 11.9,1 4,-14.3 11,-35.8 16.8,-50.8 -1.8,0.1 -3.6,0.2 -5.5,0.5 z"
         id="path4729"
         style="opacity:0.2;fill:#ffffff" />
      <path
         class="st4"
         d="m 269.7,80.7 c -5.8,15 -12.8,36.6 -16.8,50.8 31.2,2.3 62.6,2.3 93.9,0 -4.3,-14.6 -12,-36.2 -17.6,-50.8 -20.1,-2 -39.5,-2 -59.5,0 z"
         id="path4731"
         style="opacity:0.1;fill:#0d2038" />
      <path
         class="st5"
         d="m 240.9,130.5 c 0.5,6.2 1.3,12.5 2.4,18.7 0.3,1.7 1.7,3.1 3.4,3.4 3.1,0.5 6.2,1 9.2,1.4 l -3.1,-22.4 c -3.9,-0.4 -7.9,-0.7 -11.9,-1.1 z"
         id="path4733"
         style="opacity:0.1;fill:#ffffff" />
      <path
         class="st3"
         d="m 346.6,131.5 c -31.2,2.3 -62.5,2.4 -93.7,0 L 256,154 c 29.6,4.2 57.6,4.2 87.2,0 l 3.5,-22.4 c -0.1,-0.1 -0.1,-0.1 -0.1,-0.1 z"
         id="path4735"
         style="opacity:0.5;fill:#0d2038" />
      <ellipse
         class="st6"
         cx="299.60001"
         cy="109.4"
         rx="27"
         ry="22.299999"
         id="ellipse4737"
         style="fill:#0d2038" />
      <ellipse
         class="st0"
         cx="299.60001"
         cy="107.1"
         rx="27"
         ry="22.4"
         id="ellipse4739"
         style="fill:#ffffff" />
      <ellipse
         class="st7"
         cx="299.60001"
         cy="107.1"
         rx="17.200001"
         ry="14.2"
         id="ellipse4741"
         style="fill:#dbdbdb" />
      <path
         class="st8"
         d="m 320.8,113.1 c -0.8,-0.7 -2.1,-0.7 -2.8,0.1 -0.8,0.8 -0.8,2 -0.1,2.8 0.1,0.1 4.6,6.4 4.8,6.6 1.3,1.3 3.4,1.3 4.7,0 1.3,-1.3 1.3,-3.4 0,-4.7 -0.2,-0.2 -6.5,-4.8 -6.6,-4.8 z"
         id="path4743"
         style="fill:#f48436" />
      <rect
         x="284.60001"
         y="142.60001"
         class="st9"
         width="14"
         height="5.3000002"
         id="rect4745"
         style="fill:#efece3" />
      <rect
         x="298.60001"
         y="142.60001"
         class="st0"
         width="14.2"
         height="5.3000002"
         id="rect4747"
         style="fill:#ffffff" />
      <polygon
         class="st10"
         points="299.8,143.8 312.7,143.8 312.7,142.6 298.6,142.6 284.6,142.6 284.6,147.8 285.8,147.8 285.8,143.8 "
         id="polygon4749"
         style="opacity:0.2" />
    </g>
  </g>
</svg>
