<?xml version="1.0" encoding="UTF-8" standalone="no"?>
<svg
   xmlns:dc="http://purl.org/dc/elements/1.1/"
   xmlns:cc="http://creativecommons.org/ns#"
   xmlns:rdf="http://www.w3.org/1999/02/22-rdf-syntax-ns#"
   xmlns:svg="http://www.w3.org/2000/svg"
   xmlns="http://www.w3.org/2000/svg"
   version="1.1"
   id="svg4953"
   viewBox="0 0 199.99999 199.99999"
   height="200"
   width="200">
  <defs
     id="defs4955">
    <radialGradient
       id="SVGID_1_"
       cx="77.347603"
       cy="70.141197"
       r="56.500099"
       gradientUnits="userSpaceOnUse">
      <stop
         offset="0"
         style="stop-color:#FFFFFF"
         id="stop4834" />
      <stop
         offset="1"
         style="stop-color:#C2E0F4"
         id="stop4836" />
    </radialGradient>
  </defs>
  <metadata
     id="metadata4958">
    <rdf:RDF>
      <cc:Work
         rdf:about="">
        <dc:format>image/svg+xml</dc:format>
        <dc:type
           rdf:resource="http://purl.org/dc/dcmitype/StillImage" />
        <dc:title></dc:title>
      </cc:Work>
    </rdf:RDF>
  </metadata>
  <g
     transform="translate(0,-852.36225)"
     id="layer1">
    <g
       id="g4785"
       transform="translate(-0.02158093,852.36224)">
      <g
         id="g4787">
        <polygon
           class="st17"
           points="80.2,25 80.2,33.1 65.9,33.1 65.9,48.5 109.3,48.5 109.3,33.1 94.5,33.1 94.5,25 "
           id="polygon4789"
           style="fill:#b5b299" />
        <path
           class="st18"
           d="m 144.2,168.1 c 0,3.8 -2.7,6.9 -5.9,6.9 l -102.6,0 c -3.3,0 -5.9,-3.1 -5.9,-6.9 l 0,-121.2 c 0,-3.8 2.7,-6.9 5.9,-6.9 l 102.5,0 c 3.3,0 5.9,3.1 5.9,6.9 l 0,121.2 0.1,0 z"
           id="path4791"
           style="fill:#afada1" />
        <path
           class="st19"
           d="m 141.3,166.4 c 0,3.8 -2.7,6.9 -5.9,6.9 l -102.5,0 c -3.3,0 -5.9,-3.1 -5.9,-6.9 L 27,45.2 c 0,-3.8 2.7,-6.9 5.9,-6.9 l 102.5,0 c 3.3,0 5.9,3.1 5.9,6.9 l 0,121.2 0,0 z"
           id="path4793"
           style="fill:#573f2f" />
        <polygon
           class="st20"
           points="129.6,65.4 129.6,66.2 59.6,66.2 59.6,65.4 129.6,65.4 "
           id="polygon4795"
           style="fill:#c0c5a2" />
        <polygon
           class="st21"
           points="127.2,166.3 36.3,162.5 41.3,44 132.3,47.9 127.2,166.3 "
           id="polygon4797"
           style="fill:#d6d8d7" />
        <polygon
           class="st21"
           points="112.9,164.7 29,148.6 50.5,37 134.3,53.1 112.9,164.7 "
           id="polygon4799"
           style="fill:#d6d8d7" />
        <polygon
           class="st22"
           points="38.6,44.7 38.6,163.3 108.7,163.3 129.6,146.6 129.6,44.7 "
           id="polygon4801"
           style="fill:#f4eee1" />
        <polygon
           class="st23"
           points="109.2,163.4 129.6,146.6 113.4,142.9 108.7,163.3 "
           id="polygon4803"
           style="fill:#f5f5f2" />
        <polygon
           class="st8"
           points="76.9,26.2 76.9,34.4 62.5,34.4 62.5,49.7 106,49.7 106,34.4 91.2,34.4 91.2,26.2 "
           id="polygon4805"
           style="fill:#f48436" />
        <rect
           x="49.599998"
           y="65.400002"
           class="st8"
           width="15.2"
           height="14.6"
           id="rect4807"
           style="fill:#f48436" />
        <rect
           x="49.599998"
           y="87.699997"
           class="st24"
           width="15.2"
           height="14.6"
           id="rect4809"
           style="fill:#cec8aa" />
        <rect
           x="72.199997"
           y="65.400002"
           class="st8"
           width="36.599998"
           height="4.3000002"
           id="rect4811"
           style="fill:#f48436" />
        <rect
           x="72.199997"
           y="72.699997"
           class="st8"
           width="36.599998"
           height="4.3000002"
           id="rect4813"
           style="fill:#f48436" />
        <rect
           x="72.199997"
           y="87.699997"
           class="st24"
           width="36.599998"
           height="4.3000002"
           id="rect4815"
           style="fill:#cec8aa" />
        <path
           class="st25"
           d="m 88.3,34.3 c 0,2.1 -1.7,3.7 -3.7,3.7 L 84,38 c -2.1,0 -3.7,-1.7 -3.7,-3.7 l 0,-0.6 C 80.3,31.6 82,30 84,30 l 0.6,0 c 2.1,0 3.7,1.7 3.7,3.7 l 0,0.6 z"
           id="path4817"
           style="fill:#ebebea" />
        <rect
           x="49.599998"
           y="111.8"
           class="st26"
           width="15.2"
           height="14.6"
           id="rect4819"
           style="fill:#d4cfb4" />
        <rect
           x="49.599998"
           y="134.2"
           class="st24"
           width="15.2"
           height="14.6"
           id="rect4821"
           style="fill:#cec8aa" />
        <rect
           x="72.199997"
           y="111.8"
           class="st24"
           width="36.599998"
           height="4.3000002"
           id="rect4823"
           style="fill:#cec8aa" />
        <rect
           x="72.199997"
           y="119.2"
           class="st24"
           width="36.599998"
           height="4.3000002"
           id="rect4825"
           style="fill:#cec8aa" />
        <rect
           x="72.199997"
           y="134.2"
           class="st24"
           width="36.599998"
           height="4.3000002"
           id="rect4827"
           style="fill:#cec8aa" />
        <rect
           x="72.199997"
           y="141.5"
           class="st24"
           width="36.599998"
           height="4.3000002"
           id="rect4829"
           style="fill:#cec8aa" />
        <rect
           x="72.199997"
           y="95"
           class="st24"
           width="36.599998"
           height="4.3000002"
           id="rect4831"
           style="fill:#cec8aa" />
      </g>
      <radialGradient
         id="radialGradient5536"
         cx="77.347603"
         cy="70.141197"
         r="56.500099"
         gradientUnits="userSpaceOnUse">
        <stop
           offset="0"
           style="stop-color:#FFFFFF"
           id="stop5538" />
        <stop
           offset="1"
           style="stop-color:#C2E0F4"
           id="stop5540" />
      </radialGradient>
      <circle
         class="st27"
         cx="96.699997"
         cy="88.800003"
         r="31.9"
         id="circle4838"
         style="opacity:0.5;fill:url(#SVGID_1_)" />
      <path
         class="st1"
         d="m 126.4,112.9 c -0.8,1 -1.7,2 -2.6,2.9 -0.9,0.9 -1.9,1.8 -2.9,2.6 l 6.1,6.1 c 0.4,-1.2 1.1,-2.4 2.1,-3.4 0,0 0,0 0,0 1,-1 2.2,-1.7 3.4,-2.1 l -6.1,-6.1 z"
         id="path4840"
         style="fill:#89c7d4" />
      <path
         class="st1"
         d="m 123.8,61.7 c -14.9,-14.9 -39.1,-14.9 -54.1,0 -14.9,14.9 -14.9,39.1 0,54.1 14,14 36.2,14.9 51.2,2.6 1,-0.8 2,-1.7 2.9,-2.6 0.9,-0.9 1.8,-1.9 2.6,-2.9 12.3,-15 11.4,-37.2 -2.6,-51.2 z m -4.4,49.7 c -12.5,12.5 -32.7,12.5 -45.2,0 -12.5,-12.5 -12.5,-32.7 0,-45.2 12.5,-12.5 32.8,-12.5 45.2,0 12.5,12.5 12.5,32.7 0,45.2 z"
         id="path4842"
         style="fill:#89c7d4" />
      <path
         class="st4"
         d="m 69.7,61.7 4.4,4.4 c 12.5,-12.5 32.8,-12.5 45.2,0 12.5,12.5 12.5,32.7 0,45.2 l 1.1,1.1 3.3,3.3 c 0.9,-0.9 1.8,-1.9 2.6,-2.9 12.3,-15 11.4,-37.2 -2.6,-51.2 -14.9,-14.8 -39.1,-14.8 -54,0.1 z"
         id="path4844"
         style="opacity:0.1;fill:#0d2038" />
      <path
         class="st28"
         d="m 114.2,71.3 c -9.7,-9.7 -25.3,-9.7 -35,0 l 35,35 c 9.7,-9.7 9.7,-25.4 0,-35 z"
         id="path4846"
         style="opacity:0.4;fill:#ffffff" />
      <path
         class="st28"
         d="m 114.2,71.3 c -9.7,-9.7 -25.3,-9.7 -35,0 l 0.1,0.1 c 9.7,-7.8 23.9,-7.1 32.9,1.9 9,9 9.6,23.2 1.9,32.9 l 0.1,0.1 c 9.7,-9.7 9.7,-25.4 0,-35 z"
         id="path4848"
         style="opacity:0.4;fill:#ffffff" />
      <path
         class="st29"
         d="m 79.2,106.3 c 9.7,9.7 25.3,9.7 35,0 l -35,-35 c -9.6,9.6 -9.6,25.3 0,35 z"
         id="path4850"
         style="opacity:0.4;fill:#ecf0f0" />
      <path
         class="st28"
         d="m 81.2,104.3 c -9,-9 -9.6,-23.2 -1.9,-32.9 l -0.1,-0.1 c -9.7,9.7 -9.7,25.3 0,35 9.7,9.7 25.3,9.7 35,0 l -0.1,-0.1 c -9.7,7.7 -23.9,7.1 -32.9,-1.9 z"
         id="path4852"
         style="opacity:0.4;fill:#ffffff" />
      <path
         class="st1"
         d="m 170.5,147.7 c -0.7,-0.7 -0.8,0.6 -24.7,-20 l -2.3,2.3 -2.8,2.8 -2.8,2.8 -2.3,2.3 c 20.5,23.9 19.4,24.1 20,24.7 3.8,3.8 10.8,3.1 14.4,-0.5 0,0 0,0 0,0 3.6,-3.6 4.3,-10.6 0.5,-14.4 z"
         id="path4854"
         style="fill:#89c7d4" />
      <path
         class="st1"
         d="m 135.2,118.5 c -0.9,0 -1.8,0.2 -2.7,0.5 -1.2,0.4 -2.4,1.1 -3.4,2.1 0,0 0,0 0,0 -1,1 -1.7,2.2 -2.1,3.4 -0.3,0.9 -0.5,1.8 -0.5,2.7 2,2.3 3.9,4.5 5.7,6.5 l 2,-2 2.8,-2.8 2.8,-2.8 2,-2 c -2.1,-1.7 -4.3,-3.6 -6.6,-5.6 z"
         id="path4856"
         style="fill:#89c7d4" />
      <path
         class="st3"
         d="m 141.7,124.1 c -2,-1.7 -4.2,-3.6 -6.5,-5.7 -0.9,0 -1.8,0.2 -2.7,0.5 -1.2,0.4 -2.4,1.1 -3.4,2.1 l 7.8,7.8 2.8,-2.8 2,-1.9 z"
         id="path4858"
         style="opacity:0.5;fill:#0d2038" />
      <path
         class="st8"
         d="m 141.7,124.1 -2,2 -2.8,2.8 -2.8,2.8 -2,2 c 1.3,1.5 2.4,2.8 3.6,4.1 l 2.3,-2.3 2.8,-2.8 2.8,-2.8 2.3,-2.3 c -1.4,-1 -2.8,-2.2 -4.2,-3.5 z"
         id="path4860"
         style="fill:#f48436" />
      <path
         class="st3"
         d="m 145.8,127.7 -2.3,2.3 -2.8,2.8 13.9,13.9 15.4,15.4 c 3.6,-3.6 4.3,-10.5 0.5,-14.4 -0.7,-0.7 -0.8,0.6 -24.7,-20 z"
         id="path4862"
         style="opacity:0.5;fill:#0d2038" />
      <path
         class="st28"
         d="m 141.7,124.1 -2,2 -2.8,2.8 3.8,3.8 2.8,-2.8 2.3,-2.3 c -1.3,-1 -2.7,-2.2 -4.1,-3.5 z"
         id="path4864"
         style="opacity:0.4;fill:#ffffff" />
    </g>
  </g>
</svg>
