<?xml version="1.0" encoding="utf-8"?>
<!-- Generator: Adobe Illustrator 20.1.0, SVG Export Plug-In . SVG Version: 6.00 Build 0)  -->
<svg version="1.1" id="Layer_1" xmlns="http://www.w3.org/2000/svg" xmlns:xlink="http://www.w3.org/1999/xlink" x="0px" y="0px"
	 viewBox="0 0 640 493" style="enable-background:new 0 0 640 493;" xml:space="preserve">
<style type="text/css">
	.st0{fill:#8CDDCD;}
	.st1{fill:#16A085;}
	.st2{fill:url(#SVGID_1_);}
	.st3{fill:#34495E;}
	.st4{fill:#FFFFFF;}
	.st5{fill:#1ABC9C;}
</style>
<g>
	<path d="M38.5,222.9"/>
	<g>
		<g>
			<path class="st0" d="M62,281.7c-17.3,6.8-34.7,12.6-52.6,17.9L0,302.5l9.1,4.1c17.1,7.6,34.7,14.7,52.6,20.9l84.1,32l30.6-96.1
				c0,0-97.9-22.9-130.5-37.6l-7.6-2.9l2.4,7.6C45.9,248.2,52.9,265.5,62,281.7L62,281.7z"/>
			<path class="st1" d="M219.9,250.3c-44.1,8.8-86.7,12.9-126.1,11.5h-4.4c0,0,86.4,103.2,130.5,95.8V250.3z"/>
		</g>
		<g>
			<path class="st0" d="M577.7,281.7c9.1-16.2,16.2-33.5,21.5-51.4l2.4-7.6l-7.3,3.2c-32.8,14.7-130.7,37.6-130.7,37.6l30.6,96.1
				l84.1-32c17.9-6.2,35.3-13.2,52.6-20.9l9.1-4.1l-9.4-2.9C612.7,294.4,595,288.5,577.7,281.7L577.7,281.7z"/>
			<path class="st1" d="M416.9,250.3c47,8.8,88.5,12.9,127.9,11.5h3.5c0,0-81.4,103.2-131.4,95.8V250.3z"/>
		</g>
	</g>
	<g>
		
			<linearGradient id="SVGID_1_" gradientUnits="userSpaceOnUse" x1="320.192" y1="977.25" x2="320.192" y2="597.95" gradientTransform="matrix(1 0 0 1 0 -496.55)">
			<stop  offset="0" style="stop-color:#0075BE"/>
			<stop  offset="0.4017" style="stop-color:#0073BB"/>
			<stop  offset="0.6544" style="stop-color:#006EB3"/>
			<stop  offset="0.8654" style="stop-color:#0064A4"/>
			<stop  offset="0.9944" style="stop-color:#005B97"/>
		</linearGradient>
		<path class="st2" d="M319.3,480.4c-15-5.9-29.7-12.3-43.5-19.1c-22.6-11.2-42.9-23.2-60-35.9c-20-14.7-35.9-30.3-46.7-45.9
			c-26.2-37-43.2-99.7-49.1-180.8c-1.8-22.6-2.4-46.4-2.1-70.3l202.3-27l202.3,27c0.3,23.8-0.6,47.3-2.1,70.3
			c-5.9,81.1-22.9,143.5-49.1,180.8c-10.9,15.6-26.8,31.2-46.7,45.9c-17.3,12.6-37.3,24.7-60,35.9c-14.1,7.1-28.8,13.2-43.5,19.1
			l-0.6,0.3L319.3,480.4z"/>
		<path class="st3" d="M319.9,111.8l192.6,25.9c0,20.6-0.6,41.2-2.1,60.9c-2.9,40-8.5,75.6-16.8,105.5c-7.9,29.1-18.2,52.6-30.6,70
			c-10.3,14.7-25.3,29.4-44.7,43.5c-16.8,12.3-36.5,24.1-58.5,35c-12.9,6.5-26.2,12.3-40,17.6c-13.5-5.3-27-11.2-40-17.6
			c-22-10.9-41.7-22.6-58.5-35c-19.1-14.1-34.1-28.8-44.7-43.5c-12.3-17.3-22.3-40.9-30.6-70c-7.9-30.3-13.8-65.9-16.5-105.8
			c-1.5-19.7-2.1-40.3-2.1-60.9L319.9,111.8 M319.9,91.8l-212,28.5c-0.3,21.5-0.3,49.1,2.1,79.7c5.9,82.9,23.5,147,50.9,185.8
			c11.8,16.5,28.2,32.6,49.1,47.9c17.6,12.9,38.5,25.6,61.7,36.7c16.5,8.2,32,14.7,44.4,19.4l4.1,1.5l4.1-1.5
			c12.6-4.7,27.9-11.5,44.4-19.4c23.2-11.5,43.8-23.8,61.7-36.7c20.9-15.3,37.3-31.5,49.1-47.9c27.3-38.5,44.7-102.9,50.9-185.8
			c2.1-30.3,2.4-57.9,2.1-79.7L319.9,91.8L319.9,91.8z"/>
	</g>
	<g>
		<g>
			<g>
				<path d="M85.9,478.1c-11.2-11.2-16.8-27.3-16.5-43.8c0.3-15.9,7.6-31.8,19.7-42.9l251.6-232c7.3-9.7,7.9-21.2,8.8-35.9
					c0.9-17.9,2.1-40,16.8-65.3C386.9,22.3,425.4,0,466.8,0c30.9,0,59.7,12.1,81.4,33.8c6.8,6.8,12.6,14.4,17.6,22.6l4.4,7.6H459.7
					l-26.5,46.2l26.5,46.2h31.2l-0.3,71.4l-4.1,0.6c-5.9,0.9-12.3,1.5-20.3,1.5c-6.5,0-12.9-0.6-19.7-1.2
					c-19.1-1.8-39.1-3.8-63.2,7.9L165.8,474.1c-10.6,11.5-25,18.5-39.1,18.8C111.1,493.7,96.1,488.4,85.9,478.1L85.9,478.1z"/>
			</g>
			<g>
				<path d="M486.9,156.8H551l-3.2,7.1c-1.2,2.6-2.4,5-3.8,7.3c-11.2,19.4-29.1,34.1-50,41.5l-6.8,2.4L486.9,156.8z"/>
			</g>
			<g>
				<path class="st4" d="M456.9,161.8l-29.4-51.2l29.4-51.2c18.5,0,68.2,0,104.7,0c-20-33.5-55.9-54.1-95-54.1
					c-57.6,0-104.7,44.4-110.2,99.4c0,0,0,42.6-11.8,58.2l36.4,71.2c32-20,61.1-7.9,85.5-7.9c6.5,0,12.9-0.6,19.1-1.8v-62.3
					C473.6,161.8,463.3,161.8,456.9,161.8z"/>
				<path d="M381,235l-37-72.3l0.3-0.3c11.5-15,11.5-57,11.5-57.6C361.4,48.4,410.2,4.6,466.9,4.6c29.7,0,57.6,11.5,78.5,32.6
					c6.5,6.5,12.3,13.8,17.1,22l0.9,1.2H457.6L428.8,111l28.8,50.6H487v0.9v63.1h-0.6c-6.5,1.2-12.9,1.8-19.4,1.8s-12.9-0.9-20-1.8
					c-19.4-2.4-41.5-5-65,9.4H381z M345.7,162.9l35.9,69.7c23.5-14.4,45.9-11.8,65.3-9.1c7.1,0.9,13.5,1.8,20,1.8
					c6.2,0,12.3-0.6,18.5-1.5v-61.2h-28.5l-30-52l30-52h103.8c-4.4-7.3-10-14.1-15.9-20.3c-20.6-20.6-48.2-32-77.3-32
					c-55.6,0-103.8,43.5-109.4,98.8C357.5,106.5,357.5,147.1,345.7,162.9z"/>
			</g>
			<path class="st4" d="M350.7,162.9c10.6-17.6,10.9-54.4,10.9-58.2C367.2,51.5,413.3,10,466.8,10c28.2,0,54.4,10.9,74.4,30.9
				c4.1,4.1,7.6,8.5,11.2,13.2h-98.2l-32.3,56.4l32.3,56.4H481v52.9c-4.7,0.6-9.4,0.9-14.1,0.9c-6.2,0-12.6-0.9-19.4-1.5
				c-19.1-2.4-40.6-5-64.1,7.6L350.7,162.9z"/>
			<path d="M350.7,162.9l1.8-3.2c0.6-1.2,0.9-2.4,1.5-3.5s0.9-2.4,1.2-3.5c0.3-1.2,0.6-2.4,1.2-3.5c0.6-2.4,1.2-4.7,1.8-7.3
				c0.6-2.4,0.9-5,1.2-7.3c0.6-5,1.2-10,1.5-14.7c0.3-5,0.6-10,0.6-15l0,0l0,0l1.2-7.9c0.3-2.6,1.2-5.3,1.8-7.9l0.9-3.8l1.5-3.8
				c0.9-2.4,1.8-5,2.9-7.3c1.2-2.4,2.1-5,3.5-7.3l4.1-7.1c2.9-4.4,6.2-8.5,9.7-12.6l2.9-2.9l2.9-2.9c1.8-1.8,3.5-4.1,5.6-5.9
				c2.1-1.8,3.8-3.5,6.2-5.3l6.5-4.7c4.7-2.6,9.1-5.6,14.1-7.3l3.5-1.8c1.2-0.6,2.6-0.9,3.8-1.2c2.6-0.9,5-1.8,7.6-2.4l7.9-1.8
				l7.9-1.2c2.6-0.3,5.3-0.3,7.9-0.6c1.5,0,2.6-0.3,4.1,0l4.1,0.3c2.6,0.3,5.3,0,7.9,0.6l7.9,1.2c5.3,1.2,10.3,2.4,15.3,4.4
				c5,1.5,9.7,4.1,14.7,6.5l6.8,4.1c2.4,1.2,4.4,3.2,6.5,4.7l3.2,2.4l2.9,2.6c2.1,1.8,4.1,3.5,5.9,5.6c1.8,2.1,3.5,3.8,5.3,5.9
				l4.7,6.5l-5-6.2c-1.8-2.1-3.5-3.8-5.3-5.9s-3.8-3.5-5.9-5.3l-2.9-2.6l-3.2-2.4c-2.1-1.5-4.1-3.2-6.5-4.4l-6.8-4.1
				c-4.7-2.4-9.4-4.7-14.4-6.2c-5-2.1-10-2.9-15.3-4.1l-7.9-1.2c-2.6-0.6-5.3-0.3-7.9-0.6l-4.1-0.3c-1.2,0-2.6,0-3.8,0.3
				c-2.6,0.3-5.3,0-7.9,0.6l-7.9,1.2l-7.6,1.8c-2.6,0.6-5,1.8-7.6,2.4c-1.2,0.6-2.4,0.9-3.8,1.2l-3.5,1.8c-5,2.1-9.4,4.7-13.8,7.3
				l-6.5,4.4c-2.1,1.5-4.1,3.2-6.2,5c-2.1,1.5-3.8,3.5-5.9,5.3l-2.9,2.6l-2.6,2.9c-3.5,3.8-6.5,8.2-9.4,12.6l-4.1,6.8
				c-1.2,2.4-2.4,4.7-3.5,7.1c-1.2,2.4-2.1,5-2.9,7.3l-1.5,3.8l-0.9,3.8c-0.6,2.6-1.5,5-1.8,7.6l-1.2,7.9l0,0c0,10-0.9,20-2.4,29.7
				c-0.3,2.4-0.9,5-1.5,7.3s-1.2,5-1.8,7.3c-0.3,1.2-0.6,2.4-1.2,3.5c-0.3,1.2-0.9,2.4-1.2,3.5c-0.6,1.2-0.9,2.4-1.5,3.5
				L350.7,162.9z"/>
			<path d="M453.9,54.2c-5,9.4-10.3,19.1-15.6,28.5l-15.9,28.2V110c5.3,9.4,10.9,18.8,15.9,28.2c5.3,9.4,10.6,18.8,15.6,28.5
				c-5.6-9.1-11.2-18.5-16.8-27.9c-5.6-9.4-10.9-18.8-16.5-28.2l-0.3-0.3l0.3-0.3l16.5-28.2C442.8,72.7,448.3,63.3,453.9,54.2z"/>
			<g>
				<path class="st4" d="M539.2,168.8c1.5-2.4,2.6-4.7,3.5-7.1c-15.3,0-34.1,0-51.2,0v46.2C511.5,201.2,528.6,187.3,539.2,168.8z"/>
				<path d="M491,209.1v-48.2h0.9h52.3l-0.6,1.2c-1.2,2.4-2.4,4.7-3.5,7.1c-10.6,18.5-27.6,32.6-47.9,39.4L491,209.1z M492.7,162.6
					v44.1c19.4-7.1,35.6-20.6,45.9-38.2c1.2-1.8,2.1-3.8,2.9-5.9H492.7z"/>
			</g>
			<g>
				<path class="st4" d="M162.9,471.3l218.4-237.5l-36.5-71.1L92.6,394.9c-10.9,10-17.6,24.4-17.9,39.1s5,29.4,15.3,39.7l0,0
					c9.7,9.7,22.9,14.4,36.5,14.1C140.2,487.5,153.8,481.3,162.9,471.3z M112.6,445.5c-6.2-6.2-6.2-16.2,0-22c6.2-6.2,15.9-6.2,22,0
					c6.1,6.2,6.2,16.2,0,22C128.8,451.6,118.8,451.6,112.6,445.5z"/>
				<path d="M90.3,473.7L90.3,473.7c-10.9-10.9-16.8-25.6-16.5-40.3c0.3-15.3,6.8-29.4,17.9-39.7L345.4,160l37.9,73.8L164,472.2
					c-9.4,10.3-22.3,16.2-36.5,16.5C113.8,489.3,100.3,483.7,90.3,473.7z M344.3,165.3L93.8,396.1C83.2,405.8,77.3,419,77,433.4
					c-0.3,14.1,5.3,27.9,15.6,37.9l0,0c9.4,9.4,22,14.4,34.7,14.1c13.2-0.3,25.3-5.9,34.1-15.3l217.9-236.6L344.3,165.3z
					 M111.4,446.6c-6.8-6.8-6.8-17.6,0-24.4s17.6-6.8,24.4,0c6.8,6.8,6.8,17.6,0,24.4C129.1,453.4,118.2,453.4,111.4,446.6z
					 M133.8,424.6c-5.6-5.6-14.4-5.6-20,0c-5.6,5.6-5.6,14.4,0,20c5.6,5.6,14.4,5.6,20,0C139.4,439,139.1,430.2,133.8,424.6z"/>
			</g>
			<path d="M99.1,464.9c-2.9-2.9-5.6-6.2-7.6-10c-2.1-3.8-3.5-7.6-4.4-11.8c-1.8-8.2-0.9-17.1,2.1-24.7c1.5-3.8,3.5-7.6,6.5-10.9
				c1.2-1.8,2.9-3.2,4.4-4.7l4.4-4.1l17.9-16.8l72.3-67.3l72.3-67c24.1-22.3,48.2-45,72.6-67l2.4-2.4l1.5,2.9l25.3,50l0.9,1.5
				l-1.2,1.2L241.2,371.4l-63.8,68.8l-15.9,17.3c-2.6,2.9-5.3,5.9-8.2,8.5s-6.2,5.3-10,6.8c-7.1,3.5-15.6,4.7-23.5,3.2
				c-3.8-0.9-7.6-2.1-11.2-4.1C105.3,470.2,102,467.5,99.1,464.9L99.1,464.9z M99.1,464.9c2.6,2.6,6.5,4.4,9.7,6.2
				c3.5,1.8,7.3,2.6,11.2,3.2c7.6,1.2,15.6,0,22.3-3.5c3.5-1.8,6.5-3.8,9.4-6.5c2.6-2.6,5.3-5.9,7.9-8.5l15.9-17.3l63.2-69.4
				l126.7-138.8l-0.3,2.6l-25.6-49.7l3.8,0.6c-24.1,22.3-48.5,44.4-72.9,66.7l-72.9,66.7l-72.9,66.4l-18.2,16.8l-4.7,4.1
				c-1.5,1.5-2.9,2.6-4.1,4.4c-2.6,2.9-4.7,6.5-6.2,10.3c-3.2,7.3-3.8,15.6-2.4,23.5c0.9,3.8,1.8,8.2,3.5,11.8
				C94.4,458.1,96.1,461.9,99.1,464.9L99.1,464.9z"/>
		</g>
		<g>
			<path d="M540.6,476c-13.8,13.8-36.5,13.8-50.3,0L245.2,230.8l-74.1-49.1l-1.8,1.8l-14.4-14.4l63.5-63.2l-34.7-34.7l-68.2,68.2
				L101.1,125l1.5-1.5C81.1,97.6,85,57.6,112.3,30.3c28.8-28.5,70.8-31.2,95.8-6.2l54.7,54.7l17.6-3.8l57.3,57.3l-5.3,16.2l3.5,3.5
				c3.8-2.1,8.2-1.2,11.8,2.4l27,27c3.8,3.8,5,8.8,3.2,12.9l71.7,71.4c9.7,9.7,9.7,25.9,0,35.6c-7.6,7.6-19.1,9.4-28.5,5.3
				L540.5,426C554.5,439.6,554.5,462.2,540.6,476z"/>
			<g>
				<path class="st4" d="M116.4,34.8c-26.8,26.8-27.9,67.6-5.9,90.3l66.4-66.4l239.9,239.9c7.9,7.9,21.2,7.9,29.1-0.3
					c7.9-7.9,7.9-20.9,0.3-28.5L204.5,27.9C181.7,4.8,143.2,8,116.4,34.8z"/>
				<path d="M448.3,298.2c-8.8,8.8-22.9,8.8-31.5,0.3L177,58.6l-67.6,67.6l-1.2-1.2c-22.9-23.5-19.7-65.9,7.1-92.6
					c27-27,68.2-30.3,91.4-6.8l241.7,241.7C456.9,275.8,456.9,289.6,448.3,298.2z M109.7,121.5l67.6-67.6l241.9,241.9
					c7.3,7.3,19.4,7.3,27-0.3c7.3-7.3,7.3-19.1,0.3-26.5L204.6,27.6c-22-22-61.1-18.8-87,7.1C92.3,59.8,88.8,99.1,109.7,121.5z"/>
			</g>
			<path d="M109.1,116.2c0,0-0.3-0.6-1.2-1.5c-0.6-0.9-1.8-2.4-2.9-4.4s-2.4-4.7-3.5-7.6c-0.6-1.5-1.2-3.2-1.5-5s-0.9-3.5-1.2-5.6
				c-0.3-2.1-0.6-4.1-0.6-6.2c0-1.2,0-2.1,0-3.2c0-1.2,0.3-2.4,0.3-3.5c0-2.4,0.6-4.7,0.9-7.1c0.6-2.4,1.2-4.7,2.1-7.1
				c1.5-4.7,3.8-9.4,6.5-14.1c2.9-4.4,5.9-8.8,9.7-12.6c1.8-2.1,3.8-3.8,5.9-5.6s4.1-3.5,6.5-4.7c4.4-2.9,9.1-5.3,13.8-7.3
				s9.4-2.9,14.1-3.8c4.7-0.6,8.8-0.9,12.9-0.3c4.1,0.3,7.6,1.2,10.6,2.1c3.2,0.9,5.6,2.1,7.6,3.2c2.1,0.9,3.5,1.8,4.7,2.6
				c1.2,0.6,1.5,1.2,1.5,1.2s-0.6-0.3-1.8-0.9c-1.2-0.6-2.6-1.8-4.7-2.6c-2.1-1.2-4.7-2.1-7.9-2.9c-3.2-0.9-6.8-1.5-10.6-1.8
				c-3.8-0.3-8.2,0-12.6,0.6c-4.4,0.9-9.1,2.1-13.5,3.8c-4.4,1.8-9.1,4.1-13.2,7.1c-2.1,1.5-4.1,3.2-6.2,4.7
				c-1.8,1.8-4.1,3.5-5.6,5.6c-3.8,3.8-6.8,7.9-9.7,12.3c-2.6,4.4-5,9.1-6.5,13.8c-0.9,2.4-1.5,4.7-2.1,7.1
				c-0.3,2.4-0.9,4.7-1.2,6.8c0,1.2-0.3,2.4-0.3,3.2c0,1.2,0,2.1,0,3.2c0,2.1,0.3,4.1,0.3,6.2s0.6,3.8,0.9,5.6s0.9,3.5,1.2,5
				c1.2,2.9,2.1,5.6,3.2,7.6c0.9,2.1,2.1,3.5,2.9,4.7C108.8,115.6,109.1,116.2,109.1,116.2z"/>
			<path d="M442.8,270.5c0,0,0.6,0.6,1.5,1.8c0.6,0.6,0.9,1.5,1.5,2.4c0.6,0.9,0.9,2.4,1.5,3.5c0.6,2.9,0.6,6.5-1.2,10.3
				c-0.9,1.8-2.1,3.8-4.1,5.3c-0.9,0.9-1.8,1.5-2.9,2.1c-1.2,0.6-2.4,1.2-3.8,1.5c-2.6,0.6-5.6,0.9-8.5-0.3
				c-1.5-0.3-2.9-1.2-4.1-1.8c-1.2-0.9-2.6-2.1-3.5-2.9c-4.4-4.4-9.1-9.1-14.1-14.1c-10.3-10-21.5-21.5-34.1-33.8
				c-25-24.7-54.1-53.5-85.3-84.4c-15.6-15.6-31.8-31.5-47.9-47.6c-16.2-16.2-33.2-32.3-49.7-49.1l-1.8-1.2l-0.3-0.3
				c-0.3-0.3,0-0.6,0-0.9v-0.3l-0.6-0.9c-0.6-0.6-0.9-1.8-1.5-2.4c-0.3-0.9-0.6-1.8-0.9-2.6c-0.9-3.5,0.3-7.3,2.4-10.3
				c1.2-1.5,2.1-2.4,3.2-3.5l3.5-2.6l2.1-0.9l0.3-0.3v-0.9l0.3-0.6l0.6-0.9c0.6-0.6,1.5-1.2,2.4-1.5s1.8-0.6,2.6-0.9
				c3.5-0.6,6.8,0.9,9.7,3.2l0.6,1.5l0.9,0.9l2.1,0.9l3.2,2.9c4.1,4.1,8.2,7.9,12.3,12.1c16.2,16.5,32.3,32.3,47.9,47.9
				c30.9,31.2,59.7,60.3,84.4,85.3C409.8,237,442.8,270.2,442.8,270.5L442.8,270.5z M441.3,271.7c0,0-33.2-32.9-83.2-82.3
				c-25-24.7-54.1-53.5-85.3-84.4c-15.6-15.6-31.5-31.5-47.9-47.9c-4.1-4.1-8.2-8.2-12.3-12.3l-2.9-2.9l-1.5-1.5l-0.9-0.9l-0.6-0.6
				c-1.8-1.5-4.1-2.1-6.2-1.5c-0.6,0-1.2,0.3-1.5,0.6s-0.9,0.3-1.2,0.6l-0.9,0.6l-0.6,0.3c0,0-0.3,0.3,0,0l-0.3,0.3l-1.5,1.5
				l-2.9,3.2c-0.9,0.9-2.4,2.1-2.6,2.9c-1.5,1.8-1.8,4.1-1.5,6.2c0.3,0.6,0.3,1.2,0.6,1.5c0,0.3,0.3,0.3,0.3,0.6s0.3,0.3,0.6,0.9
				l0.6,0.9h0.3c0,0,0.3,0.3,0,0l0.3,0.3l1.5,1.8c16.5,16.5,32.9,33.2,49.4,49.4c16.2,16.5,32,32.3,47.6,47.9
				c30.9,31.2,59.7,60.3,84.4,85.3c12.3,12.3,23.5,23.8,33.5,34.1c5,5,9.7,9.7,14.1,14.1c1.2,1.2,2.1,2.1,3.2,2.9
				c1.2,0.6,2.4,1.5,3.8,1.8c2.6,0.9,5.3,0.9,7.3,0.3c1.2-0.3,2.4-0.6,3.2-1.2c0.6-0.3,0.9-0.3,1.5-0.9c0.6-0.3,0.9-0.6,1.5-1.2
				c1.5-1.5,2.9-2.9,3.5-4.7c1.5-3.5,1.5-6.8,0.9-9.4C443.9,273.5,441,271.7,441.3,271.7L441.3,271.7z"/>
			<g>
				<path class="st4" d="M169.1,173.8L259.9,83l19.1-2.9l53.2,53.2l-4.7,16.5l-34.1,34.1l50.3,50.3l17.6-18.2l15.9,15.9l0.6,36.2
					l160.2,160c11.8,11.8,12.1,30.9,0.3,42.9c-11.8,11.8-30.9,11.8-42.9-0.3L249.9,225.3L169.1,173.8z"/>
				<path d="M167,176.2L260.2,83l0.6-0.6l0.3-0.6l18.2-4.4l1.2-0.3l0.9,0.9l52.9,53.2l0.9,1.2l-0.6,1.5l-5.9,15.6h-0.6l-0.3,0.3
					l-34.4,35l0.3-2.4l50.6,51.2h-2.1l19.1-19.7l1.2-1.2l1.2,1.2l15.9,15.9l0.3,0.3l-0.3,0.9l-0.9,37.6l-0.3-0.9l118.2,118.8
					l29.4,29.7l7.3,7.3c2.4,2.4,5,5,7.3,7.6c4.7,5.6,7.1,12.9,6.8,20c0,7.3-2.9,14.4-7.3,19.7c-4.7,5.6-11.2,9.4-18.2,10.6
					c-7.1,1.5-14.7,0-20.9-3.5c-1.5-0.9-2.9-2.1-4.4-2.9c-1.5-1.2-2.6-2.4-3.8-3.5l-7.3-7.3L247.3,227.9l0.9,0.9L167,176.2z
					 M173.5,173.8l76.1,50.6v0.6l0.3,0.3l236.4,237.2l7.6,7.3c1.2,1.2,2.6,2.4,3.8,3.5c1.5,0.9,2.6,2.1,4.1,2.6
					c5.9,3.2,12.9,4.4,19.7,3.2c6.8-1.2,12.9-4.7,17.3-10c4.4-5,7.1-11.8,7.1-18.5c0-6.8-2.1-13.5-6.5-18.8c-2.4-2.6-4.7-5-7.1-7.6
					l-7.3-7.3l-30-29.1L376,270.2l-0.3-0.3l0.6-0.9l0.9-37.6l0.6,0.9l-15.9-15.9h2.1l-19.1,20l-1.5,1.5l-1.2-1.2l-51.4-51.2
					l-1.2-1.5l1.5-1.5l34.4-35l-0.6,0.9l5.3-16.2l0.6,2.4l-53.5-52.9l2.4,0.6l-18.8,4.1l0.9-0.9L173.5,173.8z"/>
			</g>
			<g>
				<path class="st4" d="M374,183.8c2.4,2.4,2.4,6.5,0,9.1L344.9,222c-2.4,2.4-6.5,2.4-9.1,0L309,195.2c-2.4-2.4-2.4-6.5,0-9.1
					l29.1-29.1c2.4-2.4,6.5-2.4,9.1,0L374,183.8z"/>
				<path d="M373.7,182.3c0,0,0,0,0.3,0.3c0,0,0.3,0.3,0.3,0.6c0.3,0.3,0.6,0.9,0.9,1.2c0.9,1.8,1.5,5-0.3,8.5
					c-0.3,0.3-0.9,0.3-1.2,0.9l-0.9,0.3l-0.3,0.3c-0.6,0.6-0.6,1.5-1.2,2.1c-1.2,1.2-2.1,2.6-3.5,3.8c-2.6,2.6-5.6,5.6-8.8,8.8
					s-6.8,6.8-10.6,10.3c-0.9,0.9-1.8,1.8-2.9,2.6c-0.9,0.9-0.9,0.9-1.8,1.5c-0.9,0.6-1.8,0.9-2.6,0.9c-1.8,0.3-3.5,0-5-0.9
					c-0.9-0.3-1.5-0.9-2.1-1.5l-1.8-1.5c-3.8-4.4-7.9-8.5-12.1-12.9c-4.4-4.1-8.8-8.2-13.2-12.3l-0.9-0.9c-0.3-0.3-0.6-0.9-0.9-1.2
					c-0.3-0.9-0.6-1.8-0.9-2.9c-0.3-2.1,0.3-3.8,1.5-5.6c0.6-0.9,1.2-1.5,1.8-1.8l1.5-1.8c1.2-1.2,2.1-2.1,3.2-3.2
					c4.1-4.4,8.2-8.5,12.3-12.6c2.1-2.1,4.4-3.8,6.2-5.6c0.9-0.9,2.4-1.5,3.2-2.6l0.6-0.6l0.3-0.3v-0.6v-0.3l0.3-0.3
					c0.3-0.3,1.5-1.2,2.4-1.5c1.8-0.6,3.5-0.6,5.3-0.3c1.8,0.3,3.2,1.5,4.4,2.6c1.8,1.8,3.5,3.5,5,5
					C364.8,173.5,373.7,182.3,373.7,182.3L373.7,182.3z M369.8,185.9c0,0-8.5-8.5-21.8-21.5c-1.5-1.8-3.2-3.2-5-5
					c-1.2-1.2-2.6-1.8-4.1-1.2c-1.2,0.3-3.2,2.9-5.3,4.7c-2.1,2.1-3.8,3.8-5.9,5.9c-4.1,4.1-8.2,8.2-12.6,12.3
					c-1.2,1.2-2.1,2.1-3.2,3.2l-1.8,1.5c-0.6,0.6-1.2,1.2-1.5,1.5c-1.5,1.5-1.5,4.1,0,6.2c4.1,4.7,8.2,9.1,12.3,13.2
					c4.1,4.1,8.5,8.2,12.9,12.1l1.5,1.5c0.6,0.3,0.9,0.6,1.5,0.9c0.9,0.3,2.1,0.6,2.9,0.3c0.6-0.3,0.9-0.3,1.2-0.6
					c0.3,0,1.2-0.9,1.2-1.2c0.9-0.9,1.8-2.1,2.6-2.9c3.5-3.8,7.1-7.3,10.3-10.6c3.2-3.2,6.2-6.2,8.8-8.8c1.2-1.2,2.9-2.4,4.1-3.2
					c0.6-0.6,1.5-0.9,2.1-1.2l0.3-0.3v-0.6c0-0.3,0.3-0.6,0.3-0.6c0.9-1.5,0.3-2.9,0-3.5c0,0,0-0.3-0.3-0.3
					C370.4,186.5,370.1,186.2,369.8,185.9C369.8,185.9,369.8,185.6,369.8,185.9L369.8,185.9z"/>
			</g>
			<g>
				<path d="M235.2,116.8l-62.6,62.6l-11.2-11.2l62.6-62.6L235.2,116.8z M172.6,175l58.2-58.2L224,110l-58.2,58.2L172.6,175z"/>
			</g>
			<g>
				<path d="M183.8,65.3l-67,67l-8.8-8.8l67-67L183.8,65.3z M116.7,128l62.6-62.6l-4.4-4.4L112,123.6L116.7,128z"/>
			</g>
			<path d="M531.2,435.5c0,0,0.6,0.6,1.8,2.1c0.3,0.3,0.6,0.6,0.9,1.2c0.3,0.6,0.6,1.2,0.9,1.8c0.3,0.6,0.6,1.2,0.9,2.1
				c0.3,0.9,0.6,1.5,0.6,2.4c0.9,3.5,1.2,8.2-0.9,13.2c-0.6,1.2-1.2,2.4-2.1,3.5c-0.9,1.2-1.8,2.4-2.9,3.5c-1.2,0.9-2.4,2.1-3.5,2.9
				c-1.5,0.6-2.9,1.8-4.7,2.1c-0.9,0.3-1.8,0.6-2.4,0.9c-0.9,0-1.8,0.3-2.6,0.3c-1.8,0.3-3.5,0-5.6-0.3c-3.5-0.9-7.3-2.4-10.6-5.3
				c-5.9-5.6-11.8-11.5-18.2-17.9c-12.9-12.9-27.6-27.3-43.5-43.2c-63.2-63.2-148.5-147.9-233.4-232.2l-4.1-3.8l-0.6-0.6v-0.6
				c0,0-0.3-0.3-0.3-0.6l-0.9-1.2c-0.6-1.2-1.5-2.4-1.5-3.5c-0.6-2.4-0.6-5.3,0.3-7.3c0.6-1.2,0.9-2.4,1.8-3.2l2.1-2.1l8.2-7.6
				l3.8-4.1l1.8-2.1l0.9-0.9l0.3-0.3c0.3-0.3,0.6,0,0.9,0l0.6-0.3c3.8-3.2,9.4-2.6,12.9,0.9c0.6,0.3,0.6,1.2,0.9,1.5l0.9,0.9
				l2.4,1.5l4.1,3.8c5.3,5.3,10.6,10.3,15.9,15.6c20.9,20.9,41.5,41.5,61.1,61.4c39.7,40,76.7,77,108.2,109.1
				C488.9,392.8,531.2,435.5,531.2,435.5L531.2,435.5z M529.8,436.6c0,0-42.6-42.3-106.4-105.5c-32-31.8-69.1-68.8-109.1-108.2
				c-20-20-40.6-40.3-61.4-61.1c-5.3-5.3-10.6-10.3-15.9-15.6l-3.8-4.1l-1.8-2.1l-0.9-0.9c-0.3-0.6-0.9-0.9-1.2-0.9
				c-2.1-1.8-5.3-1.8-7.3,0l-0.3,0.6c0,0-0.3,0.6,0,0.3l-0.3,0.3l-0.9,0.9l-2.1,1.8l-4.1,3.8l-7.9,7.9l-2.1,2.1
				c-0.3,0.6-0.9,0.9-1.2,1.5c-0.6,1.2-0.6,2.6-0.3,3.8c0.3,0.6,0.9,0.6,1.2,1.2l1.5,0.6l0.9,0.9l3.5,4.4
				c84.4,85,168.7,170.5,232.2,234.3c15.9,15.9,30.3,30.9,43.2,43.8c6.5,6.5,12.3,12.6,17.9,18.2c2.6,2.6,6.2,4.1,9.4,5
				c1.8,0,3.5,0.6,5,0.3c0.9,0,1.8,0,2.4-0.3c0.9-0.3,1.5-0.6,2.4-0.6c0.9-0.3,1.5-0.3,2.1-0.9c0.6-0.3,1.2-0.6,2.1-0.9
				c1.2-0.9,2.4-1.8,3.5-2.6c0.9-1.2,1.8-2.1,2.6-3.2c0.6-1.2,1.2-2.4,1.8-3.2c1.8-4.7,1.5-8.8,0.6-12.1
				C533,439.3,529.5,436.6,529.8,436.6L529.8,436.6z"/>
		</g>
	</g>
	<path class="st5" d="M549.8,261.7L538,365.8l-3.8,1.5c-133.2,51.2-294.9,51.2-428,0l-3.8-1.5L90,261.7l4.7,2.1
		c139.3,60.6,311,60.6,450.4,0L549.8,261.7z"/>
	<g>
		<path class="st4" d="M117,345.2v-47l12.9,4.7c1.8,0.6,3.2,1.5,4.4,2.4c1.2,0.9,2.4,2.1,3.5,3.5c0.9,1.5,1.8,3.2,2.4,5.3
			c0.6,2.1,0.9,4.4,0.9,7.1c0,2.4-0.3,4.1-0.6,5.9c-0.3,1.5-0.9,2.9-1.5,3.8c-0.9,0.9-1.8,1.5-3.2,1.8c-1.5,0.3-2.9,0-5-0.9
			l-4.1-1.5v18.5L117,345.2z M126.7,310.2v11.5l0.6,0.3c0.6,0.3,0.9,0.3,1.2,0.3c0.3,0,0.6,0,0.9,0s0.6,0,0.9-0.3
			c0.3-0.3,0.3-0.6,0.6-0.9c0.3-0.3,0.3-0.9,0.3-1.5c0-0.6,0-1.5,0-2.4c0-2.1-0.3-3.5-0.9-4.7c-0.6-0.9-1.5-1.8-2.6-2.1L126.7,310.2
			z"/>
		<path class="st4" d="M143.8,354.6v-47l10,2.9v37.9l10.3,2.9v9.1L143.8,354.6z"/>
		<path class="st4" d="M166.7,349v-34.7l9.7,2.4v33.8c0,0,0,0,0,0.3c0,0.6,0,0.9,0,1.2c0,0.3,0,0.6,0,1.2s0.3,0.9,0.3,1.2
			c0.3,0.3,0.3,0.6,0.6,0.9c0.3,0.3,0.6,0.6,1.2,0.6c0.3,0,0.9,0,1.2,0c0.3,0,0.6-0.3,0.6-0.6c0.3-0.3,0.3-0.6,0.3-0.6
			c0-0.3,0.3-0.6,0.3-0.9c0-0.3,0-0.9,0-0.9c0-0.3,0-0.6,0-0.9v-0.3v-33.8l10.3,2.6v34.7c0,4.1-0.9,7.3-2.9,9.1
			c-2.1,1.8-5,2.1-9.1,0.9c-4.4-0.9-7.3-2.9-9.4-5.6C167.6,356.7,166.7,353.4,166.7,349z"/>
		<path class="st4" d="M220.8,373.1l-9.1-1.5l-5.9-35.3v34.1l-9.7-1.8v-47l15.6,2.6l4.4,25.3l4.4-23.8l15.9,2.6v47l-10-1.8v-33.8
			L220.8,373.1z"/>
		<path class="st4" d="M241.1,376.1v-47l14.1,1.5c3.5,0.3,6.5,1.5,8.2,3.2c1.8,1.8,2.6,4.7,2.6,8.5c0,0,0,0.3,0,0.6
			c0,0.6,0,1.2,0,1.5c0,0.3,0,0.9,0,1.5c0,0.6-0.3,1.2-0.3,1.8c0,0.3-0.3,0.9-0.6,1.5c-0.3,0.6-0.6,0.9-0.9,1.5
			c-0.3,0.3-0.9,0.6-1.5,0.9c-0.6,0.3-1.2,0.6-2.1,0.6c1.2,0.3,2.1,0.9,2.6,1.8c0.9,0.6,1.5,1.5,1.8,2.1c0.3,0.9,0.6,1.8,0.9,2.6
			c0.3,1.2,0.3,2.1,0.3,2.6s0,1.5,0,2.4c0,2.4-0.3,4.7-0.6,6.5c-0.3,1.8-0.9,3.2-1.8,4.4c-0.9,1.2-2.1,2.4-3.5,2.6
			c-1.5,0.6-3.2,0.6-5.6,0.3L241.1,376.1z M251.1,347.9l2.1,0.3c0.6,0,0.9,0,1.2-0.3c0.3-0.3,0.6-0.6,0.6-0.9c0-0.3,0.3-0.9,0.3-1.2
			c0-0.3,0-0.6,0-1.2v-4.7c0-1.5-0.6-2.4-2.1-2.4l-2.1-0.3V347.9z M251.1,355.2v13.5c0.6,0,0.9,0,0.9,0.3c2.6,0.3,4.1-0.6,4.1-2.9
			v-5.9c0-1.5-0.3-2.6-0.9-3.2c-0.6-0.9-1.2-1.2-2.4-1.2L251.1,355.2z"/>
		<path class="st4" d="M270.2,379v-47l20.9,1.2v9.1l-10.3-0.6v9.1l9.7,0.6v8.8l-9.7-0.6v10.6l10.9,0.6v9.1L270.2,379z"/>
		<path class="st4" d="M306.1,359.3v21.5l-10.6-0.3v-47l15.9,0.3c1.8,0,2.9,0.3,4.1,0.9c1.2,0.6,2.1,1.2,2.6,1.8
			c0.6,0.6,1.2,1.8,1.5,2.9s0.6,2.4,0.9,3.5c0,1.2,0.3,2.6,0.3,4.4c0,0.9,0,1.5,0,2.1s0,1.2-0.3,2.1s-0.6,1.5-0.9,2.1
			c-0.3,0.6-0.9,1.2-1.5,1.8s-1.5,0.9-2.4,1.2c0.9,0.3,1.8,0.6,2.4,1.2s1.2,1.2,1.5,1.8c0.3,0.6,0.6,1.5,0.6,2.1
			c0,0.6,0.3,1.2,0.3,2.1c0,7.6,0,13.8,0,17.6l-10.3-0.3v-18.5c0-0.6,0-1.2-0.3-1.8c-0.3-0.3-0.3-0.9-0.9-0.9
			c-0.3-0.3-0.9-0.3-1.2-0.3C307.5,359.3,306.9,359.3,306.1,359.3z M306.1,342.3v8.8h2.6c1.5,0,2.1-1.5,2.1-4.4
			c0-2.1-0.3-3.2-0.9-3.8s-1.8-0.9-3.2-0.9L306.1,342.3z"/>
		<path class="st4" d="M324.3,380.8V372l10.6-0.3v8.8L324.3,380.8z"/>
		<path class="st4" d="M339,380.8v-47l20.9-0.9v9.1l-10.3,0.6v9.1l9.7-0.6v8.8l-9.7,0.6v10.6l10.9-0.6v9.1L339,380.8z"/>
		<path class="st4" d="M376,359.9l-3.2,18.8l-10.6,0.9l5.6-25.6l-4.4-21.8l10-0.9l2.6,15.9l2.4-16.2l10.3-0.9l-4.4,22.3l5.6,24.4
			l-10.6,0.9L376,359.9z"/>
		<path class="st4" d="M392.5,376.7v-47.1l13.5-1.8c1.8-0.3,3.2-0.3,4.7,0s2.6,0.9,3.5,1.8c1.2,0.9,1.8,2.4,2.4,4.1
			c0.6,1.8,0.9,4.1,0.9,6.8c0,2.4-0.3,4.4-0.6,5.9s-0.9,3.2-1.8,4.7c-0.9,1.5-1.8,2.4-3.2,3.2c-1.5,0.9-3.2,1.5-5.3,1.8l-4.1,0.6
			v18.5L392.5,376.7z M402.8,337v11.5h0.6c0.6,0,0.9,0,1.2-0.3c0.3,0,0.6-0.3,0.9-0.3c0.3-0.3,0.6-0.3,0.9-0.6s0.3-0.6,0.6-1.2
			c0.3-0.6,0.3-0.9,0.3-1.8c0-0.6,0-1.5,0-2.4c0-2.1-0.3-3.5-0.9-4.1c-0.6-0.6-1.5-0.9-2.9-0.9h-0.7V337z"/>
		<path class="st4" d="M431,349.6v21.5l-10.3,2.1v-47l15.6-2.9c1.5-0.3,2.9-0.3,4.1,0c1.2,0.3,2.1,0.6,2.6,1.2
			c0.6,0.6,1.2,1.5,1.5,2.6c0.3,1.2,0.6,2.4,0.9,3.5c0,1.2,0.3,2.6,0.3,4.4c0,0.9,0,1.5,0,2.1c0,0.6,0,1.2-0.3,2.1
			c-0.3,0.9-0.3,1.8-0.9,2.4c-0.3,0.6-0.9,1.2-1.5,2.1c-0.6,0.6-1.5,1.2-2.4,1.8c0.9,0,1.8,0.3,2.4,0.6c0.6,0.3,1.2,0.9,1.5,1.5
			c0.3,0.6,0.6,1.2,0.6,1.8s0,1.2,0,2.1c0,7.6,0,13.8,0,17.6l-10,1.8v-18.2c0-0.6,0-1.2-0.3-1.8s-0.3-0.6-0.9-0.9
			c-0.3,0-0.9-0.3-1.2,0C432.2,349.3,431.6,349.3,431,349.6z M431,332.6v8.8l2.6-0.6c1.5-0.3,2.1-1.8,2.1-4.7c0-1.8-0.3-2.9-0.9-3.5
			c-0.6-0.3-1.5-0.6-3.2-0.3L431,332.6z"/>
		<path class="st4" d="M449.5,367.3v-47l20.3-5v9.1l-10,2.4v9.1l9.4-2.4v8.8l-9.4,2.4v10.6l10.6-2.6v9.1L449.5,367.3z"/>
		<path class="st4" d="M486,358.1c-4.7,1.5-7.9,1.2-10-0.3c-2.1-1.8-2.9-4.7-2.9-9.4V344l10-2.9v4.1c0,2.9,0.9,4.4,2.4,3.8
			c0.9-0.3,1.2-0.6,1.8-1.5c0.3-0.6,0.6-1.5,0.6-2.6c0-1.1-0.3-2.4-0.6-2.9c-0.3-0.9-0.9-1.5-1.5-2.1c-0.6-0.6-1.8-1.5-3.2-2.4
			l-4.1-2.6c-3.5-2.1-5-5-5-8.8c0-4.1,0.9-7.6,2.9-10.3c2.1-2.6,5-4.4,8.5-5.6h0.3c0,0,0.6-0.3,1.5-0.6c0.9-0.3,2.1-0.3,3.5-0.3
			s2.6,0.3,3.8,1.2c1.2,0.6,2.1,1.8,2.6,3.5c0.6,1.8,0.9,3.8,0.9,6.5l-10,2.9v-2.9c0-0.6-0.3-0.9-0.6-1.2c-0.3-0.3-0.9-0.3-1.5-0.3
			c-0.6,0.3-1.2,0.6-1.8,1.2c-0.6,0.6-0.6,1.2-0.6,1.8c0,1.5,0.9,2.6,2.9,3.5l6.2,3.2c0.9,0.6,1.8,1.2,2.6,1.8
			c0.6,0.6,1.2,1.2,1.8,2.1c0.3,0.6,0.9,1.5,1.2,2.1c0.3,0.6,0.6,1.2,0.6,2.1c0,0.9,0.3,1.5,0.3,1.8s0,0.9,0,1.5
			c0,1.8,0,3.2-0.3,4.7s-0.6,2.9-1.2,4.1c-0.6,1.5-1.2,2.6-2.1,3.8s-2.1,2.1-3.2,2.9C489.5,357,487.7,357.9,486,358.1z"/>
		<path class="st4" d="M512.7,349.3c-4.4,1.8-7.6,1.8-9.7,0.3c-2.1-1.5-2.9-4.7-2.9-9.1v-4.7l9.7-3.5v4.1c0,2.9,0.9,4.4,2.4,3.8
			c0.6-0.3,1.2-0.9,1.8-1.5c0.3-0.9,0.6-1.5,0.6-2.6c0-1.2-0.3-2.4-0.6-2.9c-0.3-0.9-0.9-1.5-1.5-2.1c-0.6-0.6-1.8-1.2-3.2-2.1
			l-4.1-2.4c-3.2-1.8-5-4.7-5-8.5c0-4.1,0.9-7.6,2.9-10.3c2.1-2.6,4.7-4.7,8.2-6.2h0.3c0,0,0.6-0.3,1.5-0.6c0.9-0.3,2.1-0.6,3.5-0.6
			s2.6,0.3,3.8,0.9c1.2,0.6,2.1,1.8,2.6,3.5c0.5,1.7,0.9,3.8,0.9,6.5l-10,3.5v-2.9c0-0.6-0.3-0.9-0.6-1.2c-0.3-0.3-0.9-0.3-1.5,0
			c-0.6,0.3-1.2,0.6-1.8,1.2c-0.6,0.6-0.6,1.2-0.6,1.8c0,1.5,0.9,2.4,2.6,3.2l5.9,2.9c0.9,0.6,1.8,0.9,2.6,1.5
			c0.6,0.6,1.2,1.2,1.8,2.1c0.3,0.6,0.9,1.2,0.9,1.8c0.3,0.6,0.3,1.2,0.6,2.1c0,0.9,0.3,1.5,0.3,1.8s0,0.9,0,1.5
			c0,1.8,0,3.2-0.3,4.7s-0.6,2.9-1.2,4.4c-0.6,1.5-1.2,2.6-2.1,3.8c-0.9,1.2-2.1,2.4-3.2,3.2C516,347.9,514.5,348.7,512.7,349.3z"/>
	</g>
</g>
</svg>
