<svg version="1.1" xmlns="http://www.w3.org/2000/svg" xmlns:xlink="http://www.w3.org/1999/xlink" width="1103" height="210" viewBox="0 0 1103 210" style="display: none"> <defs> <g id="icon-dislike"> <path class="path1" d="M24.177 64.651c0.732 1.975-19.665 20.192-7.766 34.952 2.786 3.454 12.229-16.527 25.64-25.575 7.4-4.991 23.065-15.113 24.616-21.484 0 0 3.101-10.684 3.101-19.986s-3.101-18.016-3.101-18.016c-3.101-6.79-27.298-14.542-48.051-14.542-7.597 0-18.616 47.64-18.616 55.209 0 7.596 23.445 7.467 24.177 9.442zM94.574 60.465h-23.256c0 0 4.651-12.403 4.651-27.907 0-18.605-4.651-26.357-4.651-26.357h23.256c0 0 4.651 12.403 4.651 24.806 0 20.156-4.651 29.458-4.651 29.458z" opacity="1" visibility="false"></path> </g> <g id="icon-form"> <path class="path1" d="M59.238 83.006c-0.259 0.212-0.479 0.475-0.579 0.822l-4.080 13.955c-0.181 0.606-0.012 1.262 0.432 1.71 0.332 0.328 0.772 0.506 1.224 0.506 0.162 0 0.328-0.023 0.486-0.073l13.905-4.1c0.324-0.093 0.575-0.293 0.788-0.533l19.066-18.973-12.21-12.257-19.032 18.943zM61.087 95.036l-1.629-1.641 2.312-7.902 5.914 1.22 1.17 6.030-7.767 2.293zM50.224 84.929h-38.643c-2.127 0-3.86-1.733-3.86-3.86v-65.627h77.208v32.563c1.598-0.784 3.347-1.243 5.185-1.243 0.865 0 1.71 0.108 2.536 0.29v-35.471c0-6.396-5.189-11.581-11.581-11.581h-69.488c-6.393 0-11.581 5.185-11.581 11.581v69.487c0 6.393 5.188 11.582 11.581 11.582h36.384l2.259-7.721zM34.744 46.325h38.604v7.721h-38.604v-7.721zM34.744 30.883h38.604v7.721h-38.604v-7.721zM34.744 69.487h27.393l7.759-7.721h-35.152v7.721zM19.302 46.325h7.721v7.721h-7.721v-7.721zM19.302 30.883h7.721v7.721h-7.721v-7.721zM19.302 61.767h7.721v7.721h-7.721v-7.721zM98.687 61.512l-5.856-5.868c-1.614-1.625-4.223-1.637-5.818-0.035l-4.71 4.741 11.697 11.747 4.714-4.744c1.603-1.603 1.591-4.22-0.027-5.841z" opacity="1" visibility="false"></path> </g> <g id="icon-gps"> <path class="path1" d="M79.588 47.483c-0.96-14.286-12.921-27.408-29.588-28.415v-19.204h-4.762v19.24c-16.667 1.351-29.425 14.093-30.369 28.379h-14.869v4.762h14.917c1.371 16.667 16.036 30.169 30.321 31.494v16.125h4.762v-16.088c16.667-0.988 28.148-14.864 29.54-31.531h15.698v-4.762h-15.65zM19.535 51.423c0-15.271 12.425-27.695 27.695-27.695s27.694 12.424 27.694 27.695c0 15.27-12.424 27.694-27.694 27.694s-27.695-12.424-27.695-27.694zM67.28 51.423c0-11.074-8.976-20.050-20.050-20.050s-20.051 8.976-20.051 20.050 8.977 20.050 20.050 20.050 20.051-8.977 20.051-20.050z" opacity="1" visibility="false"></path> </g> <g id="icon-home"> <path class="path1" d="M15.347 97.477c0 0-0.1 2.523 2.364 2.523 3.066 0 28.45-0.033 28.45-0.033l0.042-23.312c0 0-0.401-3.843 3.329-3.843h11.805c4.411 0 4.14 3.843 4.14 3.843l-0.050 23.237c0 0 24.069 0 27.849 0 3.129 0 2.987-3.141 2.987-3.141v-42.979l-39.25-34.912-41.666 34.912v43.705zM0 50.522c0 0 3.538 6.52 11.253 0l46.107-39.006 43.229 38.764c8.931 6.441 12.277 0 12.277 0l-55.506-50.28-57.36 50.522zM99.541 11.424h-11.12l0.046 13.484 11.074 9.394v-22.878z" opacity="1" visibility="false"></path> </g> <g id="icon-like"> <path class="path1" d="M75.048 35.349c-0.732-1.975 19.665-20.192 7.766-34.952-2.786-3.454-12.229 16.527-25.64 25.575-7.4 4.991-23.065 15.113-24.616 21.484 0 0-3.101 10.684-3.101 19.986s3.101 18.016 3.101 18.016c3.101 6.79 27.298 14.542 48.051 14.542 7.597 0 18.616-47.64 18.616-55.209 0-7.596-23.445-7.467-24.177-9.442zM4.651 39.535h23.256c0 0-4.651 12.403-4.651 27.907 0 18.605 4.651 26.357 4.651 26.357h-23.256c0 0-4.651-12.403-4.651-24.806 0-20.156 4.651-29.458 4.651-29.458z" opacity="1" visibility="false"></path> </g> <g id="icon-map"> <path class="path1" d="M100 0c-10.622 0-19.231 8.609-19.231 19.231 0 2.87 0.631 5.596 1.758 8.038l17.473 34.269 17.473-34.27c1.127-2.441 1.758-5.168 1.758-8.038 0-10.621-8.609-19.23-19.231-19.23zM100 30.769c-6.37 0-11.538-5.168-11.538-11.538s5.168-11.539 11.538-11.539 11.538 5.168 11.538 11.538-5.168 11.539-11.538 11.539zM105.754 67.18l7.001 13.995-17.751 8.872-5.95-29.763 1.104-1.104-3.666-7.212-1.878 1.878-23.076-15.384-23.076 15.384-15.385-15.384-23.077 46.153 30.769 15.385 30.769-15.385 30.77 15.385 30.769-15.385-12.981-25.954-4.342 8.519zM28.065 90.047l-17.744-8.872 14.859-29.733 8.842 8.842-5.957 29.763zM57.692 77.937l-21.514 10.757 5.559-27.787 15.956-10.637v27.667zM65.385 77.937v-27.667l15.948 10.637 5.559 27.787-21.507-10.757z" opacity="1" visibility="false"></path> </g> <g id="icon-phone"> <path class="path1" d="M50 0c-27.614 0-50 22.386-50 50s22.386 50 50 50c27.615 0 50-22.386 50-50s-22.385-50-50-50zM63.218 80.402c-4.254-0.322-31.99-6.983-43.671-39.976-2.365-6.918 0.557-18.074 8.472-20.564 8.029-2.594 12.138 8.624 13.307 15.718l-7.004 6.997c0 0-0.198 4.373 9.387 13.958 9.574 9.579 13.954 9.384 13.954 9.384l8.138-8.131c5.143 1.085 15.45 7.634 15.45 7.634-1.281 9.669-7.838 16.057-18.033 14.98z" opacity="1" visibility="false"></path> </g> <g id="icon-pin"> <path class="path1" d="M69.147 34.574c0 19.094-34.573 65.426-34.573 65.426s-34.574-46.332-34.574-65.426 15.479-34.574 34.574-34.574 34.573 15.479 34.573 34.574zM34.574 14.894c-10.869 0-19.679 8.811-19.679 19.679s8.811 19.679 19.679 19.679 19.679-8.811 19.679-19.679-8.811-19.679-19.679-19.679z" opacity="1" visibility="false"></path> </g> <g id="icon-search"> <path class="path1" d="M61.785 0c-21.108 0-38.213 17.109-38.213 38.217 0 7.766 2.329 14.979 6.305 21.007l-2.57 5.608c-2.469-0.81-5.285-0.261-7.248 1.702l-17.973 17.97c-2.781 2.777-2.781 7.279 0 10.060l3.349 3.353c2.781 2.777 7.19 2.777 9.966 0l20.599-20.649v-10.725c7 6.13 15.831 9.892 25.688 9.892 21.109 0 38.266-17.109 38.266-38.217s-17.060-38.218-38.169-38.218zM61.785 69.366c-17.206 0-31.145-13.943-31.145-31.149s13.939-31.148 31.145-31.148 31.145 13.942 31.145 31.148-13.938 31.149-31.145 31.149z" opacity="1" visibility="false"></path> </g> <g id="icon-triangle"> <path class="path1" d="M115.47 0.228l-57.735 100-57.735-100z" opacity="1" visibility="false"></path> </g> <g id="icon-way2cu"> <path class="path1" d="M43.3 0l-43.3 25v50l43.3 25 43.3-25v-50l-43.3-25zM84 73.5l-40.7 23.5-40.7-23.5v-47l40.7-23.5 40.7 23.5v47zM81.5 72l-38.2 22-38.2-22v-44l38.2-22 38.2 22v44z" fill="rgb(35, 31, 32)" opacity="1" visibility="false"></path> <path class="path2" d="M25.9 67.1l1.6 6.6 0.1 0.7 0.1-0.7 1.7-6.8h1.7l-2.6 9.2h-1.8l-1.7-6.8-0.1-0.5-0.1 0.5-1.8 6.8h-1.8l-2.6-9.2h1.8l1.7 6.8 0.1 0.7 0.1-0.7 1.6-6.6h2z" fill="rgb(255, 255, 255)" opacity="1" visibility="false"></path> <path class="path3" d="M33.2 74.1l-0.7 2h-1.8l3.3-9.2h1.8l3.3 9.2h-1.9l-2.2-6.8-0.1-0.5-0.1 0.5-1.2 3.6h1.2c0.2 0 0.3 0.1 0.5 0.1 0.1 0.1 0.3 0.2 0.4 0.3s0.2 0.3 0.3 0.4c0.1 0.2 0.1 0.3 0.2 0.4h-3z" fill="rgb(255, 255, 255)" opacity="1" visibility="false"></path> <path class="path4" d="M43 71.8v4.3h-1.8v-4.1l-3.1-5h2l2.9 4.8zM44.1 67h1.9l-2.7 4.4c-0.1-0.1-0.2-0.3-0.3-0.4-0.1-0.2-0.2-0.4-0.3-0.6s-0.1-0.4-0.1-0.6 0.1-0.4 0.2-0.6l1.3-2.2z" fill="rgb(255, 255, 255)" opacity="1" visibility="false"></path> <path class="path5" d="M52.1 69.5c0 0.4-0.1 0.8-0.3 1.3s-0.5 0.9-0.8 1.3-0.7 0.9-1.1 1.3c-0.4 0.4-0.7 0.8-1 1.1l-0.2 0.2h3.6v1.4h-5.8v-0.8c0.1-0.3 0.3-0.6 0.5-0.9s0.5-0.6 0.8-1c0.3-0.3 0.6-0.7 0.9-1s0.6-0.7 0.8-1c0.3-0.3 0.4-0.6 0.6-1 0.2-0.3 0.2-0.6 0.2-0.9 0-0.4-0.1-0.7-0.4-0.9s-0.6-0.3-1-0.3c-0.2 0-0.4 0-0.7 0.1s-0.6 0.2-0.9 0.3l-0.4-1.2c0.4-0.2 0.8-0.3 1.2-0.4s0.7-0.1 1-0.1c0.5 0 0.9 0.1 1.3 0.2s0.7 0.3 1 0.5 0.5 0.5 0.6 0.8c0 0.3 0.1 0.7 0.1 1z" fill="rgb(255, 255, 255)" opacity="1" visibility="false"></path> <path class="path6" d="M57.8 76.3c-0.8 0-1.5-0.1-2.1-0.4s-1.1-0.6-1.5-1-0.7-0.9-0.9-1.5-0.3-1.2-0.3-1.9 0.1-1.3 0.3-1.9 0.6-1.1 1-1.5 0.9-0.8 1.5-1c0.6-0.3 1.3-0.4 2.1-0.4 0.4 0 0.7 0 1.1 0.1s0.8 0.2 1.1 0.3l-0.4 1.2c-0.4-0.1-0.7-0.2-0.9-0.2-0.3-0.1-0.5-0.1-0.8-0.1-0.5 0-0.9 0.1-1.3 0.3s-0.7 0.4-0.9 0.8-0.4 0.7-0.6 1.1c-0.1 0.4-0.2 0.8-0.2 1.3s0.1 0.9 0.2 1.3c0.1 0.4 0.3 0.8 0.6 1.1s0.6 0.6 0.9 0.8c0.4 0.2 0.8 0.3 1.3 0.3 0.6 0 1.1-0.1 1.8-0.4l0.5 1.1c-0.4 0.2-0.8 0.3-1.1 0.4-0.7 0.1-1 0.2-1.4 0.2z" fill="rgb(255, 255, 255)" opacity="1" visibility="false"></path> <path class="path7" d="M64.4 76.3c-0.6 0-1.1-0.1-1.5-0.3s-0.8-0.4-1.2-0.7c-0.3-0.3-0.6-0.7-0.7-1.2-0.2-0.5-0.3-1-0.3-1.6v-5.7h1.8v5.9c0 0.3 0.1 0.6 0.1 0.9 0.1 0.3 0.2 0.5 0.4 0.7s0.4 0.3 0.6 0.4c0.2 0.1 0.5 0.1 0.8 0.1s0.5-0.1 0.8-0.1c0.2-0.1 0.4-0.3 0.6-0.4 0.2-0.2 0.3-0.4 0.4-0.7s0.1-0.6 0.1-0.9v-5.9h1.7v5.7c0 0.6-0.1 1.1-0.3 1.5s-0.4 0.8-0.7 1.2-0.7 0.6-1.2 0.8c-0.4 0.2-0.9 0.3-1.4 0.3z" fill="rgb(255, 255, 255)" opacity="1" visibility="false"></path> <path class="path8" d="M43.1 60.8c9.8 0 21.3-4.4 22.5-15.7 0.3-2.5-1.5-12.8-9.1-21.3l-6.7 8.7h-13.4l-6.7-8.7c-7.5 8.5-9.3 18.8-9.1 21.3 1.2 11.2 12.7 15.7 22.5 15.7z" fill="rgb(255, 255, 255)" opacity="1" visibility="false"></path> <path class="path9" d="M43.9 53.3l1.8-2.5c0.3-0.5 0.2-1.1-0.3-1.4-0.7-0.4-1.4-0.6-2.2-0.6s-1.6 0.2-2.2 0.6c-0.5 0.3-0.7 0.9-0.3 1.4l1.8 2.5c0.2 0.6 1.1 0.6 1.4 0z" fill="rgb(68, 68, 68)" opacity="1" visibility="false"></path> <path class="path10" d="M47.3 56.6c-1.8 0-3.4-1.1-4.2-2.6-0.8 1.6-2.4 2.6-4.2 2.6-1.1 0-2.2-0.4-3-1.1-0.2-0.1-0.2-0.4-0.1-0.6s0.4-0.2 0.6-0.1c0.7 0.6 1.6 0.9 2.5 0.9 1.9 0 3.4-1.3 3.8-3.2 0-0.2 0.2-0.3 0.4-0.3s0.4 0.1 0.4 0.3c0.3 1.8 1.9 3.2 3.8 3.2 0.9 0 1.8-0.3 2.5-0.9 0.2-0.1 0.4-0.1 0.6 0.1 0.1 0.2 0.1 0.4-0.1 0.6-0.8 0.7-1.9 1.1-3 1.1z" fill="rgb(68, 68, 68)" opacity="1" visibility="false"></path> <path class="path11" d="M65.2 41c-0.5 0.1-1.1 0.3-1.7 0.4-5.4 1.3-12.7 1.9-20.4 1.9s-15-0.7-20.4-1.9c-0.6-0.1-1.2-0.3-1.7-0.4-0.1 0.4-0.2 0.8-0.2 1.2 1.1 0.3 2.3 0.6 3.6 0.8 0.3 3.3 3.4 5.9 7.4 6 3.4 0.1 6.3-1.9 7.2-4.5 1.4 0.1 2.8 0.1 4.1 0.1 1.1 0 2.3 0 3.4-0.1 0.9 2.6 3.8 4.5 7.2 4.4 3.9-0.1 7.1-2.6 7.4-5.8 1.6-0.3 3-0.6 4.3-0.9 0-0.4-0.1-0.8-0.2-1.2z" fill="rgb(68, 68, 68)" opacity="1" visibility="false"></path> </g> </defs> </svg>
