<?xml version="1.0" encoding="iso-8859-1"?>
<!-- Generator: Adobe Illustrator 18.0.0, SVG Export Plug-In . SVG Version: 6.00 Build 0)  -->
<!DOCTYPE svg PUBLIC "-//W3C//DTD SVG 1.1//EN" "http://www.w3.org/Graphics/SVG/1.1/DTD/svg11.dtd">
<svg version="1.1" id="Layer_1" xmlns="http://www.w3.org/2000/svg" xmlns:xlink="http://www.w3.org/1999/xlink" x="0px" y="0px"
	 viewBox="0 0 146.155 150" style="enable-background:new 0 0 146.155 150;" xml:space="preserve">
<g>
	<g>
		<polygon style="fill:#B5B299;" points="67.615,8.141 67.615,0 53.287,0 53.287,8.141 38.959,8.141 38.959,23.466 82.405,23.466 
			82.405,8.141 		"/>
		<path style="fill:#AFADA1;" d="M117.241,143.137c0,3.79-2.656,6.863-5.932,6.863H8.816c-3.276,0-5.932-3.073-5.932-6.863V21.885
			c0-3.79,2.656-6.863,5.932-6.863h102.492c3.276,0,5.932,3.073,5.932,6.863V143.137L117.241,143.137z"/>
		<path style="fill:#573F2F;" d="M114.357,141.42c0,3.791-2.655,6.864-5.932,6.864H5.932c-3.276,0-5.932-3.073-5.932-6.864V20.168
			c0-3.79,2.656-6.863,5.932-6.863h102.493c3.276,0,5.932,3.073,5.932,6.863V141.42L114.357,141.42z"/>
		<polygon style="fill:#C0C5A2;" points="102.693,40.397 102.693,41.218 32.685,41.218 32.685,40.397 102.693,40.397 		"/>
		<polygon style="fill:#D6D8D7;" points="100.288,141.345 9.343,137.472 14.387,19.005 105.333,22.878 100.288,141.345 		"/>
		<polygon style="fill:#D6D8D7;" points="86.003,139.702 2.117,123.598 23.532,12.043 107.418,28.146 86.003,139.702 		"/>
		<polygon style="fill:#F4EEE1;" points="11.664,19.7 11.664,138.275 81.791,138.275 102.693,121.637 102.693,19.7 		"/>
		<polygon style="fill:#F5F5F2;" points="86.46,117.915 81.805,138.291 82.257,138.395 102.679,121.621 		"/>
		<polygon style="fill:#BD5532;" points="64.271,9.381 64.271,1.24 49.943,1.24 49.943,9.381 35.615,9.381 35.615,24.706 
			79.061,24.706 79.061,9.381 		"/>
		<rect x="22.677" y="40.397" style="fill:#BD5532;" width="15.239" height="14.629"/>
		<rect x="22.677" y="62.725" style="fill:#CEC8AA;" width="15.239" height="14.63"/>
		<rect x="45.231" y="40.397" style="fill:#BD5532;" width="36.574" height="4.266"/>
		<rect x="45.231" y="47.712" style="fill:#BD5532;" width="36.574" height="4.266"/>
		<rect x="45.231" y="62.725" style="fill:#CEC8AA;" width="36.574" height="4.266"/>
		<path style="fill:#EBEBEA;" d="M61.362,9.259c0,2.051-1.663,3.714-3.714,3.714h-0.619c-2.051,0-3.714-1.663-3.714-3.714V8.639
			c0-2.051,1.663-3.714,3.714-3.714h0.619c2.051,0,3.714,1.663,3.714,3.714V9.259z"/>
		<rect x="22.677" y="86.844" style="fill:#D4CFB4;" width="15.239" height="14.629"/>
		<rect x="22.677" y="109.171" style="fill:#CEC8AA;" width="15.239" height="14.63"/>
		<rect x="45.231" y="86.844" style="fill:#CEC8AA;" width="36.574" height="4.266"/>
		<rect x="45.231" y="94.159" style="fill:#CEC8AA;" width="36.574" height="4.266"/>
		<rect x="45.231" y="109.171" style="fill:#CEC8AA;" width="36.574" height="4.266"/>
		<rect x="45.231" y="116.486" style="fill:#CEC8AA;" width="36.574" height="4.266"/>
		<rect x="45.231" y="70.039" style="fill:#CEC8AA;" width="36.574" height="4.266"/>
	</g>
	<g>
		<path style="fill:#0D2038;" d="M42.779,36.742l4.418,4.419c12.494-12.493,32.75-12.493,45.243,0
			c12.493,12.494,12.493,32.749,0,45.242l1.116,1.116l3.303,3.303c0.933-0.933,1.807-1.9,2.623-2.902
			c12.253-15.02,11.379-37.177-2.622-51.178C81.925,21.808,57.713,21.808,42.779,36.742z"/>
		<path style="fill:#0D2038;" d="M118.879,102.707l-2.305,2.305l-2.762,2.762l13.887,13.886l15.422,15.423
			c3.597-3.601,4.296-10.537,0.454-14.379C142.919,122.048,142.783,123.262,118.879,102.707z"/>
		<path style="fill:#0D2038;" d="M114.751,99.14c-2.019-1.747-4.183-3.629-6.504-5.653c-0.919,0.038-1.823,0.212-2.687,0.511
			c-1.249,0.432-2.414,1.135-3.403,2.122l7.808,7.808l2.762-2.762L114.751,99.14z"/>
		<path style="fill:#FF5835;" d="M114.751,99.14l-2.025,2.025l-2.762,2.762l3.848,3.847l2.762-2.762l2.305-2.305
			C117.576,101.584,116.2,100.399,114.751,99.14z"/>
		<radialGradient id="SVGID_1_" cx="50.4251" cy="45.1412" r="56.5001" gradientUnits="userSpaceOnUse">
			<stop  offset="0" style="stop-color:#FFFFFF"/>
			<stop  offset="1" style="stop-color:#C2E0F4"/>
		</radialGradient>
		<circle style="opacity:0.5;fill:url(#SVGID_1_);" cx="69.819" cy="63.782" r="31.929"/>
		<path style="fill:#0D2038;" d="M102.157,96.12l-5.298-5.298c-0.932,0.932-1.901,1.807-2.902,2.623l6.079,6.078
			c0.432-1.249,1.131-2.413,2.119-3.402C102.156,96.121,102.156,96.121,102.157,96.12z"/>
		<path style="fill:#0D2038;" d="M96.859,90.822l5.298,5.298c0.989-0.988,2.154-1.69,3.403-2.122l-6.078-6.077
			C98.666,88.922,97.791,89.889,96.859,90.822z"/>
		<path style="fill:#0D2038;" d="M47.197,41.161l-4.418-4.419c-14.933,14.933-14.933,39.146,0,54.079
			c14.002,14.001,36.159,14.875,51.177,2.623c1.001-0.816,1.97-1.691,2.902-2.623l-3.303-3.303l-1.116-1.116
			c-12.493,12.493-32.749,12.493-45.243,0C34.704,73.91,34.704,53.655,47.197,41.161z"/>
		<path style="opacity:0.1;fill:#FFFFFF;" d="M42.779,36.742l4.418,4.419c12.494-12.493,32.75-12.493,45.243,0
			c12.493,12.494,12.493,32.749,0,45.242l1.116,1.116l3.303,3.303c0.933-0.933,1.807-1.9,2.623-2.902
			c12.253-15.02,11.379-37.177-2.622-51.178C81.925,21.808,57.713,21.808,42.779,36.742z"/>
		<path style="opacity:0.4;fill:#FFFFFF;" d="M87.326,46.275c-9.668-9.668-25.345-9.668-35.014,0l35.013,35.013
			C96.994,71.62,96.995,55.944,87.326,46.275z"/>
		<path style="opacity:0.4;fill:#FFFFFF;" d="M87.326,46.275c-9.668-9.668-25.345-9.668-35.014,0l0.115,0.115
			c9.719-7.752,23.921-7.133,32.919,1.865c8.999,8.998,9.617,23.199,1.865,32.919l0.114,0.115
			C96.994,71.62,96.995,55.944,87.326,46.275z"/>
		<path style="opacity:0.4;fill:#ECF0F0;" d="M52.313,81.289c9.669,9.668,25.343,9.669,35.012,0L52.312,46.276
			C42.643,55.945,42.644,71.621,52.313,81.289z"/>
		<path style="opacity:0.4;fill:#FFFFFF;" d="M54.293,79.309c-8.999-8.999-9.619-23.199-1.866-32.919l-0.115-0.115
			c-9.669,9.669-9.668,25.345,0.001,35.013c9.669,9.668,25.343,9.669,35.012,0l-0.114-0.115
			C77.49,88.926,63.291,88.308,54.293,79.309z"/>
		<path style="opacity:0.1;fill:#FFFFFF;" d="M118.879,102.707l-2.305,2.305l-2.762,2.762l13.887,13.886l15.422,15.423
			c3.597-3.601,4.296-10.537,0.454-14.379C142.919,122.048,142.783,123.262,118.879,102.707z"/>
		<path style="opacity:0.1;fill:#FFFFFF;" d="M114.751,99.14c-2.019-1.747-4.183-3.629-6.504-5.653
			c-0.919,0.038-1.823,0.212-2.687,0.511c-1.249,0.432-2.414,1.135-3.403,2.122l7.808,7.808l2.762-2.762L114.751,99.14z"/>
		<path style="fill:#0D2038;" d="M108.745,112.842c20.537,23.877,19.355,24.055,19.998,24.697
			c3.842,3.843,10.782,3.142,14.376-0.453c0-0.001,0-0.001,0.002-0.002l-15.422-15.423l-13.887-13.886l-2.762,2.762L108.745,112.842
			z"/>
		<path style="fill:#0D2038;" d="M102.155,96.121c-0.988,0.989-1.687,2.153-2.119,3.402c-0.297,0.865-0.473,1.768-0.511,2.686
			c2.028,2.318,3.907,4.486,5.658,6.501l2.02-2.021l2.763-2.761l-7.808-7.808C102.156,96.121,102.156,96.121,102.155,96.121z"/>
		<path style="fill:#E64F30;" d="M107.201,106.689l-2.02,2.021c1.255,1.452,2.44,2.829,3.563,4.132l2.305-2.305l2.762-2.762
			l-3.848-3.847L107.201,106.689z"/>
	</g>
</g>
</svg>
