<?xml version="1.0" encoding="iso-8859-1"?>
<!-- Generator: Adobe Illustrator 18.0.0, SVG Export Plug-In . SVG Version: 6.00 Build 0)  -->
<!DOCTYPE svg PUBLIC "-//W3C//DTD SVG 1.1//EN" "http://www.w3.org/Graphics/SVG/1.1/DTD/svg11.dtd">
<svg version="1.1" id="Layer_1" xmlns="http://www.w3.org/2000/svg" xmlns:xlink="http://www.w3.org/1999/xlink" x="0px" y="0px"
	 viewBox="0 0 165 113.754" style="enable-background:new 0 0 165 113.754;" xml:space="preserve">
<g>
	<g>
		<path style="fill:#0D2038;" d="M164.605,25.009l-9.828,16.774l-0.035,0.057l-32.667-13.258l0.023-0.103l0.905-3.952
			c0.412-1.834,0.071-3.791-0.955-5.369c-1.018-1.578-2.654-2.696-4.496-3.069c-11.665-2.375-23.618-3.36-35.52-2.937
			c-11.901,0.423-23.754,2.253-35.222,5.451c-1.811,0.504-3.363,1.734-4.266,3.381c-0.913,1.647-1.113,3.623-0.573,5.423
			l1.607,5.291c0.786,2.697-0.971,5.764-4.018,6.946c-6.639,2.55-13.134,5.665-19.288,9.252c-1.052,0.607-2.234,0.948-3.418,0.99
			c-2.014,0.072-3.739-0.698-4.742-2.119L0.539,30.885c-0.658-0.938-0.595-2.05-0.427-2.831c0.482-2.182,2.225-4.334,4.666-5.755
			C28.057,8.732,54.613,1.06,81.568,0.103c26.955-0.958,53.99,4.81,78.172,16.69c2.537,1.244,4.429,3.267,5.064,5.409
			C165.027,22.969,165.169,24.074,164.605,25.009z"/>
		<path style="opacity:0.1;fill:#FFFFFF;" d="M0.856,31.347c0.803-1.609,2.249-3.103,4.096-4.179
			C28.23,13.602,54.786,5.93,81.741,4.972c26.955-0.958,53.99,4.81,78.172,16.689c1.919,0.941,3.467,2.329,4.382,3.876l0.31-0.528
			c0.564-0.935,0.422-2.04,0.2-2.807c-0.636-2.142-2.527-4.165-5.064-5.409c-24.182-11.88-51.217-17.648-78.172-16.69
			C54.613,1.06,28.057,8.732,4.778,22.299c-2.44,1.421-4.184,3.573-4.666,5.755c-0.169,0.781-0.231,1.893,0.427,2.831L0.856,31.347z
			"/>
		<path style="fill:#FFFFFF;" d="M121.784,29.87c-0.597,2.796,1.375,5.733,4.485,6.686c6.811,2.074,13.51,4.72,19.901,7.859
			c1.093,0.534,2.298,0.794,3.487,0.752c2.011-0.071,3.68-0.965,4.551-2.406l0.537-0.918l-32.669-13.259L121.784,29.87z"/>
		<path style="fill:#FFFFFF;" d="M43.499,32.652c0.794,2.746-0.966,5.816-3.999,6.987c-6.648,2.552-13.142,5.667-19.295,9.252
			c-1.052,0.61-2.236,0.955-3.424,0.997c-2.011,0.071-3.74-0.701-4.71-2.077l-0.603-0.877l31.647-15.544L43.499,32.652z"/>
	</g>
	<g>
		<path style="fill:#0D2038;" d="M105.535,41.523H95.276V28.097c0-1.856,1.505-3.361,3.361-3.361h3.537
			c1.857,0,3.361,1.505,3.361,3.361V41.523z"/>
		<path style="fill:#0D2038;" d="M68.051,41.523H57.793V28.097c0-1.856,1.505-3.361,3.361-3.361h3.536
			c1.856,0,3.361,1.505,3.361,3.361V41.523z"/>
		<path style="opacity:0.1;fill:#FFFFFF;" d="M61.155,24.736c-1.857,0-3.362,1.505-3.362,3.362v13.426h5.116V24.736H61.155z"/>
		<path style="opacity:0.1;fill:#FFFFFF;" d="M98.637,24.736c-1.857,0-3.362,1.505-3.362,3.362v13.426h5.116V24.736H98.637z"/>
		<path style="fill:#0D2038;" d="M23.431,87.147c0.462,6.25,1.27,12.48,2.436,18.661c0.325,1.727,1.694,3.069,3.428,3.361
			c36.268,6.126,69.558,6.114,105.837-0.035c1.732-0.293,3.101-1.634,3.427-3.361c1.165-6.173,1.976-12.4,2.438-18.642
			C101.897,90.824,62.533,90.829,23.431,87.147z"/>
		<path style="fill:#0D2038;" d="M141.024,86.713C136.12,72.4,128.948,56.51,120.845,40.188c-0.631-1.273-1.868-2.14-3.278-2.304
			c-23.967-2.794-46.953-2.794-70.92,0c-1.409,0.164-2.648,1.033-3.278,2.304c-8.08,16.272-15.231,32.116-20.134,46.395
			c-0.013,0.036-0.007,0.079,0.013,0.11c0.022,0.033,0.057,0.052,0.096,0.055c0.018,0.003,0.036,0.003,0.054,0.003
			c0.01,0.133,0.024,0.264,0.035,0.397c39.102,3.683,78.466,3.678,117.567-0.016c0.009-0.124,0.023-0.245,0.033-0.369
			C141.033,86.745,141.029,86.728,141.024,86.713z"/>
		<path style="opacity:0.2;fill:#FFFFFF;" d="M46.646,37.884c-1.409,0.164-2.648,1.033-3.278,2.304
			c-8.08,16.272-15.231,32.116-20.134,46.395c-0.013,0.036-0.007,0.079,0.013,0.11c0.022,0.033,0.057,0.052,0.096,0.055
			c0.018,0.003,0.036,0.003,0.054,0.003c0.01,0.133,0.024,0.264,0.035,0.397c3.979,0.374,7.961,0.702,11.945,0.999
			c4.03-14.271,11.043-35.846,16.839-50.833C50.361,37.497,48.512,37.667,46.646,37.884z"/>
		<path style="fill:#0D2038;" d="M141.031,86.761c0.002-0.016-0.002-0.033-0.007-0.048C136.12,72.4,128.948,56.51,120.845,40.188
			c-0.631-1.273-1.868-2.14-3.278-2.304c-1.998-0.233-3.981-0.417-5.968-0.611c5.676,14.599,13.337,36.292,17.629,50.847
			c3.927-0.296,7.851-0.619,11.771-0.99C141.008,87.006,141.022,86.885,141.031,86.761z"/>
		<path style="fill:#0D2038;" d="M52.216,37.313C46.419,52.3,39.406,73.875,35.376,88.146c31.239,2.341,62.613,2.331,93.851-0.026
			c-4.291-14.555-11.952-36.248-17.629-50.847C91.621,35.32,72.2,35.334,52.216,37.313z"/>
		<path style="fill:#0D2038;" d="M129.095,88.132c0.044,0.002,0.088,0.004,0.132,0.007l-3.479,22.441
			c3.111-0.441,6.233-0.911,9.385-1.446c1.732-0.293,3.101-1.634,3.427-3.361c1.165-6.173,1.976-12.4,2.438-18.642
			C137.034,87.506,133.066,87.832,129.095,88.132z"/>
		<path style="opacity:0.1;fill:#FFFFFF;" d="M23.431,87.147c0.462,6.25,1.27,12.48,2.436,18.661
			c0.325,1.727,1.694,3.069,3.428,3.361c3.095,0.523,6.162,0.985,9.217,1.418l-3.132-22.441
			C31.395,87.849,27.411,87.52,23.431,87.147z"/>
		<path style="fill:#0D2038;" d="M129.095,88.132c-31.193,2.345-62.52,2.35-93.714,0.014l3.132,22.441
			c29.637,4.203,57.597,4.201,87.235-0.007l3.479-22.441C129.183,88.136,129.139,88.134,129.095,88.132z"/>
		<path style="opacity:0.05;fill:#FFFFFF;" d="M129.095,88.132c-31.193,2.345-62.52,2.35-93.714,0.014l3.132,22.441
			c29.637,4.203,57.597,4.201,87.235-0.007l3.479-22.441C129.183,88.136,129.139,88.134,129.095,88.132z"/>
		<path style="opacity:0.1;fill:#FFFFFF;" d="M52.216,37.313C46.419,52.3,39.406,73.875,35.376,88.146
			c31.239,2.341,62.613,2.331,93.851-0.026c-4.291-14.555-11.952-36.248-17.629-50.847C91.621,35.32,72.2,35.334,52.216,37.313z"/>
		<path style="fill:#0D2038;" d="M82.105,43.696c-14.892,0-26.958,10.004-26.958,22.349c0,12.347,12.066,22.351,26.958,22.351
			c14.893,0,26.959-10.004,26.959-22.351C109.064,53.7,96.998,43.696,82.105,43.696z"/>
		<path style="fill:#FFFFFF;" d="M82.105,41.38c-14.892,0-26.958,10.004-26.958,22.348c0,12.347,12.066,22.353,26.958,22.353
			c14.893,0,26.959-10.006,26.959-22.353C109.064,51.384,96.998,41.38,82.105,41.38z"/>
		<path style="fill:#DBDBDB;" d="M82.105,49.5c-9.481,0-17.164,6.369-17.164,14.228c0,7.863,7.683,14.231,17.164,14.231
			c9.482,0,17.165-6.369,17.165-14.231C99.27,55.869,91.587,49.5,82.105,49.5z"/>
		<path style="fill:#E64F30;" d="M103.343,69.683c-0.829-0.688-2.056-0.652-2.833,0.123c-0.777,0.778-0.811,2.004-0.123,2.831
			c0.062,0.105,4.635,6.395,4.792,6.552c1.303,1.303,3.414,1.303,4.717,0.003c1.303-1.304,1.303-3.414-0.002-4.718
			C109.736,74.317,103.448,69.745,103.343,69.683z"/>
		<rect x="67.113" y="99.18" style="fill:#EFECE3;" width="13.978" height="5.276"/>
		<rect x="81.091" y="99.18" style="fill:#FFFFFF;" width="14.184" height="5.276"/>
		<polygon style="opacity:0.2;" points="68.331,100.397 82.31,100.397 95.275,100.397 95.275,99.18 81.091,99.18 67.113,99.18 
			67.113,104.456 68.331,104.456 		"/>
	</g>
</g>
</svg>
