<?xml version="1.0" encoding="iso-8859-1"?>
<!-- Generator: Adobe Illustrator 18.0.0, SVG Export Plug-In . SVG Version: 6.00 Build 0)  -->
<!DOCTYPE svg PUBLIC "-//W3C//DTD SVG 1.1//EN" "http://www.w3.org/Graphics/SVG/1.1/DTD/svg11.dtd">
<svg version="1.1" id="Layer_1" xmlns="http://www.w3.org/2000/svg" xmlns:xlink="http://www.w3.org/1999/xlink" x="0px" y="0px"
	 viewBox="0 0 172.5 68.035" style="enable-background:new 0 0 172.5 68.035;" xml:space="preserve">
<g>
	<g>
		<path style="fill:#423845;" d="M161.572,25.558c0.631,1.429,3.863,4.251,6.438,1.039c0.859-1.074-0.634-2.832-2.805-4.323
			c-1.643-1.127-4.949-3.896-3.043-7.698c0.525,5.751,13.392,6.956,9.659,13.773c-3.706,6.769-10.659,1.116-10.555-2.659
			L161.572,25.558z"/>
		<polygon style="fill:#2980B9;" points="96.688,16.923 154.51,1.395 153.797,10.905 96.488,29.038 		"/>
		<polygon style="fill:#3498DB;" points="152.161,0.998 159.739,1.141 166.393,18.209 159.117,18.072 149.979,9.429 		"/>
		<circle style="fill:#34495E;" cx="156.971" cy="7.301" r="2.896"/>
	</g>
	<g>
		<rect x="94.166" y="1.905" style="fill:#1E477A;" width="2.365" height="2.732"/>
		<g>
			<path style="fill:#CB2027;" d="M97.581,1.366c0,0.751-0.638,1.366-1.417,1.366h-1.629c-0.78,0-1.417-0.615-1.417-1.366
				S93.755,0,94.535,0h1.629C96.943,0,97.581,0.615,97.581,1.366z"/>
		</g>
		<polygon style="fill:#3498DB;" points="86.156,52.664 147.037,52.664 143.274,33.192 132.454,29.041 87.791,29.041 		"/>
		<polygon style="fill:#1E477A;" points="91.078,49.013 112.217,49.013 110.48,52.664 91.078,52.664 		"/>
		<path style="fill:#151017;" d="M111.831,52.664l5.203-9.641c1.642-2.56,2.94-4.312,5.498-4.312h11.62
			c1.323,0,3.738,0.024,5.427,3.017c1.203,2.131,5.358,10.937,5.358,10.937H111.831z"/>
		<path style="fill:#3498DB;" d="M90.309,4.637l2.506,24.904v12.837l-1.158,12.066H2.18c0,0-3.475-23.166,0-27.22
			c3.475-4.054,39.961-6.081,39.961-6.081L66.174,4.637H90.309z"/>
		<polygon style="fill:#869494;" points="49.958,25.39 50.165,19.84 67.823,8.24 86.156,8.24 86.156,25.39 		"/>
		<polygon style="fill:#627372;" points="48.09,22.615 68.057,9.175 85.142,9.175 85.142,25.39 86.156,25.39 86.156,8.24 
			67.823,8.24 48.829,20.764 		"/>
		<path style="fill:#1C1C1D;" d="M55.159,16.077c2.189,0,3.317,0.99,3.317,6c0,5.686-0.785,7.048-3.317,7.048
			c-3.318,0-3.318-2.557-3.318-6.511C51.842,19.313,52.276,16.077,55.159,16.077z"/>
		<path style="fill:#1C1C1D;" d="M50.165,19.84v5.55h-4.15C46.015,25.39,46.16,22.205,50.165,19.84z"/>
		<polygon style="fill:#1C1C1D;" points="49.151,22.332 53.351,20.764 53.351,24.437 49.346,23.699 		"/>
		<polygon style="fill:#627372;" points="82.584,14.58 86.156,14.58 86.156,25.39 81.523,25.39 		"/>
		<polygon style="fill:#CB2027;" points="66.12,3.495 67.777,4.637 63.55,6.44 63.787,4.927 		"/>
		<polygon style="fill:#FFFFFF;" points="0.872,31.375 92.815,31.375 92.815,30.458 1.141,30.458 		"/>
		<polygon style="fill:#1E477A;" points="89.341,4.637 90.885,30.917 90.113,45.082 89.341,52.032 1.849,52.032 2.18,54.445 
			91.657,54.445 92.815,43.537 92.815,29.541 90.309,4.637 		"/>
		<path style="fill:#1E477A;" d="M1.76,27.87c0,0,5.243,0.294,5.322,5.715c0.078,5.42,0,10.29,0,10.29H1l-0.128-0.576l0.208-13.531
			L1.76,27.87z"/>
		<polygon style="fill:#1E477A;" points="42.141,21.143 42.141,30.917 43.975,54.445 45.108,54.445 42.936,30.917 42.692,20.764 		
			"/>
		<path style="fill:#CB2027;" d="M1.187,29.541c0,0,4.757,0.289,4.757,4.73c0,4.44,0,9.073,0,9.073H0.872
			C0.872,43.344-1.16,34.27,1.187,29.541z"/>
		<path style="fill:#FFFFFF;" d="M0.232,32.955h5.552c0,0,0.16,0.484,0.16,1.546c0,2.582,0,4.524,0,4.524L0.232,39.15
			C0.232,39.15-0.289,35.3,0.232,32.955z"/>
		<polygon style="fill:#171219;" points="8.26,54.445 0.828,54.445 0,45.853 8.26,45.853 		"/>
		<path style="fill:#151017;" d="M43.769,54.155H10.596c0-9.783,7.426-17.712,16.586-17.712
			C36.343,36.443,43.769,44.372,43.769,54.155z"/>
		<circle style="fill:#F37637;" cx="139.58" cy="35.699" r="1.716"/>
		<circle style="fill:#F37637;" cx="139.58" cy="35.699" r="1.716"/>
		<path style="fill:#1E477A;" d="M109.845,46.13H96.29V33.192h13.556V46.13z M96.87,45.126h12.397V34.122H96.87V45.126z"/>
		<rect x="97.81" y="37.96" style="fill:#1E477A;" width="1.738" height="3.403"/>
		<polygon style="fill:#3498DB;" points="97.845,3.495 92.829,3.495 92.829,29.125 99.752,29.125 		"/>
		<polygon style="fill:#1E477A;" points="91.078,30.458 132.391,30.458 143.274,33.192 143.465,31.28 132.391,28.479 91.078,28.479 
					"/>
		<polygon style="fill:#1E477A;" points="121.096,37.416 136.489,37.416 135.576,36.685 121.966,36.685 		"/>
		<rect x="83.067" y="29.619" style="fill:#423845;" width="4.613" height="7.146"/>
		<rect x="86.156" y="29.619" style="fill:#151017;" width="1.525" height="7.146"/>
		<polygon style="fill:#FFFFFF;" points="59.031,13.904 86.156,25.39 86.156,8.24 67.823,8.24 		"/>
		<polygon style="fill:#1E477A;" points="98.1,24.04 94.166,24.04 94.166,21.113 97.81,21.113 		"/>
		<circle style="fill:#423845;" cx="124.995" cy="21.113" r="8.511"/>
		<circle style="fill:#869494;" cx="124.997" cy="21.113" r="5.717"/>
		<circle style="fill:#DDDADB;" cx="124.996" cy="21.113" r="4.857"/>
		<path style="fill:#869494;" d="M124.999,24.681c0,0-0.002,0-0.003,0c-0.373,0-0.74-0.058-1.095-0.172l0.519-1.606
			c0.185,0.06,0.38,0.09,0.577,0.09c0,0,0,0,0.002,0c0.198,0,0.394-0.031,0.582-0.091l0.524,1.602
			C125.747,24.623,125.376,24.681,124.999,24.681z M122.117,23.221c-0.448-0.611-0.686-1.335-0.688-2.094l1.688-0.007
			c0.001,0.4,0.127,0.781,0.362,1.103L122.117,23.221z M127.885,23.208l-1.365-0.991c0.234-0.321,0.357-0.703,0.357-1.103
			l1.688-0.021v0.021C128.565,21.872,128.329,22.596,127.885,23.208z M123.469,20.015l-1.369-0.986
			c0.437-0.608,1.068-1.071,1.776-1.305l0.529,1.603C124.031,19.45,123.7,19.695,123.469,20.015z M126.511,19.998
			c-0.234-0.318-0.572-0.559-0.944-0.678l0.511-1.608c0.709,0.226,1.346,0.68,1.789,1.283L126.511,19.998z"/>
		<circle style="fill:#423845;" cx="108.197" cy="21.113" r="8.512"/>
		<circle style="fill:#869494;" cx="108.198" cy="21.113" r="5.718"/>
		<circle style="fill:#DDDADB;" cx="108.198" cy="21.113" r="4.856"/>
		<path style="fill:#869494;" d="M108.2,24.681c0,0-0.002,0-0.003,0c-0.373,0-0.741-0.058-1.095-0.172l0.518-1.606
			c0.186,0.06,0.38,0.09,0.577,0.09c0,0,0,0,0.002,0c0.199,0,0.395-0.031,0.583-0.091l0.524,1.602
			C108.948,24.623,108.577,24.681,108.2,24.681z M105.319,23.221c-0.448-0.611-0.687-1.335-0.689-2.094l1.687-0.007
			c0.001,0.4,0.127,0.781,0.361,1.103L105.319,23.221z M111.086,23.208l-1.365-0.991c0.234-0.321,0.357-0.703,0.357-1.103
			l1.688-0.021v0.021C111.766,21.872,111.531,22.596,111.086,23.208z M106.67,20.015l-1.369-0.986
			c0.437-0.608,1.069-1.071,1.777-1.305l0.529,1.603C107.233,19.45,106.901,19.695,106.67,20.015z M109.712,19.998
			c-0.234-0.318-0.571-0.559-0.944-0.678l0.512-1.608c0.708,0.226,1.345,0.68,1.789,1.283L109.712,19.998z"/>
	</g>
	<g>
		<circle style="fill:#423845;" cx="27.183" cy="54.444" r="13.592"/>
		<circle style="fill:#869494;" cx="27.182" cy="54.444" r="9.129"/>
		<circle style="fill:#DDDADB;" cx="27.182" cy="54.444" r="7.755"/>
		<path style="fill:#869494;" d="M27.187,60.142c-0.001,0-0.004,0-0.007,0c-0.595,0-1.182-0.092-1.747-0.274l0.828-2.564
			c0.296,0.096,0.607,0.143,0.921,0.143c0.001,0,0.002,0,0.004,0c0.318,0,0.628-0.049,0.928-0.146l0.836,2.56
			C28.382,60.047,27.789,60.142,27.187,60.142z M22.583,57.809c-0.714-0.976-1.093-2.131-1.098-3.343l2.694-0.01
			c0.002,0.638,0.201,1.247,0.578,1.76L22.583,57.809z M31.794,57.79l-2.179-1.583c0.373-0.515,0.571-1.123,0.571-1.762l2.694-0.034
			v0.034C32.88,55.655,32.504,56.812,31.794,57.79z M24.744,52.691l-2.185-1.576c0.696-0.968,1.705-1.708,2.833-2.082l0.847,2.559
			C25.643,51.788,25.112,52.179,24.744,52.691z M29.601,52.663c-0.375-0.508-0.911-0.892-1.507-1.081l0.815-2.568
			c1.134,0.36,2.149,1.087,2.859,2.049L29.601,52.663z"/>
	</g>
	<g>
		<circle style="fill:#423845;" cx="128.734" cy="54.444" r="13.591"/>
		<circle style="fill:#869494;" cx="128.735" cy="54.444" r="9.13"/>
		<circle style="fill:#DDDADB;" cx="128.735" cy="54.444" r="7.755"/>
		<path style="fill:#869494;" d="M128.738,60.142c-0.001,0-0.003,0-0.006,0c-0.595,0-1.183-0.092-1.748-0.274l0.829-2.564
			c0.294,0.096,0.605,0.143,0.921,0.143c0.001,0,0.001,0,0.003,0c0.318,0,0.629-0.049,0.928-0.146l0.838,2.56
			C129.934,60.047,129.34,60.142,128.738,60.142z M124.136,57.809c-0.715-0.976-1.095-2.131-1.1-3.343l2.695-0.01
			c0.002,0.638,0.202,1.247,0.577,1.76L124.136,57.809z M133.345,57.79l-2.178-1.583c0.373-0.515,0.57-1.123,0.57-1.762l2.695-0.034
			v0.034C134.432,55.655,134.056,56.812,133.345,57.79z M126.296,52.691l-2.186-1.576c0.698-0.968,1.705-1.708,2.834-2.082
			l0.847,2.559C127.196,51.788,126.665,52.179,126.296,52.691z M131.153,52.663c-0.376-0.508-0.911-0.892-1.508-1.081l0.816-2.568
			c1.133,0.36,2.149,1.087,2.858,2.049L131.153,52.663z"/>
	</g>
</g>
</svg>
