<?xml version="1.0" encoding="iso-8859-1"?>
<!-- Generator: Adobe Illustrator 18.0.0, SVG Export Plug-In . SVG Version: 6.00 Build 0)  -->
<!DOCTYPE svg PUBLIC "-//W3C//DTD SVG 1.1//EN" "http://www.w3.org/Graphics/SVG/1.1/DTD/svg11.dtd">
<svg version="1.1" id="Layer_1" xmlns="http://www.w3.org/2000/svg" xmlns:xlink="http://www.w3.org/1999/xlink" x="0px" y="0px"
	 viewBox="0 0 70.545 70" style="enable-background:new 0 0 70.545 70;" xml:space="preserve">
<g>
	<path style="fill:#E74C3C;" d="M67.018,70H3.527C1.579,70,0,68.421,0,66.473V3.527C0,1.579,1.579,0,3.527,0h63.491
		c1.948,0,3.527,1.579,3.527,3.527v62.945C70.545,68.421,68.966,70,67.018,70z"/>
	<circle style="fill:#FFFFFF;" cx="35.273" cy="35" r="28.85"/>
	<g>
		<defs>
			<circle id="SVGID_1_" cx="35.273" cy="35" r="28.85"/>
		</defs>
		<clipPath id="SVGID_2_">
			<use xlink:href="#SVGID_1_"  style="overflow:visible;"/>
		</clipPath>
		<linearGradient id="SVGID_3_" gradientUnits="userSpaceOnUse" x1="23.2367" y1="33.9893" x2="64.7111" y2="68.7905">
			<stop  offset="0" style="stop-color:#34495E"/>
			<stop  offset="0.0184" style="stop-color:#3E5266"/>
			<stop  offset="0.1195" style="stop-color:#717F8E"/>
			<stop  offset="0.2226" style="stop-color:#9CA7B1"/>
			<stop  offset="0.3259" style="stop-color:#C0C7CD"/>
			<stop  offset="0.4296" style="stop-color:#DCDFE3"/>
			<stop  offset="0.5339" style="stop-color:#EFF1F3"/>
			<stop  offset="0.639" style="stop-color:#FBFCFC"/>
			<stop  offset="0.7464" style="stop-color:#FFFFFF"/>
		</linearGradient>
		<polygon style="opacity:0.5;clip-path:url(#SVGID_2_);fill:url(#SVGID_3_);" points="15.053,43.742 36.53,69.135 64.808,69.135 
			67.11,53.197 54.189,35.971 		"/>
	</g>
	<path style="fill:#E74C3C;" d="M54.362,44.69c-0.658,0.66-1.551,0.726-1.967,0.762c-0.01,0.001-0.079,0.002-0.09,0.003
		c-0.63,2.368-2.862,4.121-5.476,4.121c-2.555,0-4.73-1.675-5.415-3.96c-0.822,0.002-1.694,0.002-2.602,0.002
		c-3.567,0-7.386-0.012-10.799-0.027c-0.838,2.014-2.861,3.438-5.216,3.438c-2.38,0-4.418-1.453-5.24-3.5
		c-0.15-0.001-0.243-0.002-0.271-0.002c-1.733-0.005-3.145-1.416-3.15-3.15l-0.017-8.761l7.759,0.004
		c0.47-1.267,1.186-2.206,2.021-2.816l-4.377-6.258l-0.13,2.26c1.814,0.713,2.481,2.261,2.31,3.52
		c-0.189,1.381-1.416,2.738-3.736,2.738c-0.072,0-0.145-0.001-0.219-0.004c-0.468-0.017-0.833-0.409-0.817-0.877
		s0.41-0.832,0.877-0.817c1.235,0.044,2.104-0.454,2.215-1.269c0.092-0.674-0.404-1.543-1.712-1.857l-0.689-0.165l0.359-6.236
		c0.006-0.105,0.032-0.203,0.072-0.294c0.084-0.333,0.283-0.639,0.587-0.851c0.672-0.47,1.597-0.306,2.067,0.366l6.243,8.925
		c0.795,0.1,1.574,0.274,2.259,0.843c-0.006-2.021-0.027-2.751,0.022-5.714c0,0,19.199,0,19.207,0l6.872,11.318v6.486v0.022v0.022
		C55.308,43.613,54.823,44.227,54.362,44.69z"/>
	<path style="fill:#FFFFFF;" d="M47.311,27.089H31.322v9.312H16.508v5.954c0,0.365,0.326,0.678,0.677,0.678c0.043,0,0.101,0,0.172,0
		c0.221-2.681,2.575-4.879,5.437-4.879c2.859,0,5.21,2.179,5.437,4.918c4.186-0.004,8.957-0.001,13.209-0.005
		c0.477-2.469,2.698-4.338,5.36-4.338c2.658,0,4.876,1.87,5.358,4.333c0.753-0.001,1.175,0.001,1.175,0.001v-6.631L47.311,27.089z"
		/>
	<path style="fill:#FFFFFF;" d="M46.799,40.991c-1.764,0-3.199,1.38-3.199,3.077c0,1.697,1.435,3.077,3.199,3.077
		c1.764,0,3.199-1.38,3.199-3.077C49.998,42.372,48.563,40.991,46.799,40.991z"/>
	<path style="fill:#FFFFFF;" d="M22.794,40.444c-1.764,0-3.199,1.38-3.199,3.077c0,1.697,1.435,3.077,3.199,3.077
		s3.199-1.38,3.199-3.077C25.992,41.825,24.557,40.444,22.794,40.444z"/>
</g>
</svg>
