<?xml version="1.0" encoding="iso-8859-1"?>
<!-- Generator: Adobe Illustrator 18.0.0, SVG Export Plug-In . SVG Version: 6.00 Build 0)  -->
<!DOCTYPE svg PUBLIC "-//W3C//DTD SVG 1.1//EN" "http://www.w3.org/Graphics/SVG/1.1/DTD/svg11.dtd">
<svg version="1.1" id="Layer_1" xmlns="http://www.w3.org/2000/svg" xmlns:xlink="http://www.w3.org/1999/xlink" x="0px" y="0px"
	 width="714.223px" height="702.568px" viewBox="0 0 714.223 702.568" style="enable-background:new 0 0 714.223 702.568;"
	 xml:space="preserve">
<g>
	<linearGradient id="SVGID_1_" gradientUnits="userSpaceOnUse" x1="46.3301" y1="450.8993" x2="531.3698" y2="-34.1404">
		<stop  offset="0" style="stop-color:#FFFFFF;stop-opacity:0"/>
		<stop  offset="1" style="stop-color:#FFFFFF"/>
	</linearGradient>
	<path style="opacity:0.4;fill:url(#SVGID_1_);" d="M342.396,271.881H31.961c0.309-11,1.173-23.473,2.6-35.404
		c7.761-64.88,32.055-130.107,72.271-194.496c35.219,9.072,72.489,13.664,111.025,13.664c49.147,0,97.108-7.547,139.254-21.868
		c42.147,14.321,90.108,21.817,139.254,21.817c38.537,0,75.806-4.642,111.025-13.714c28.058,44.923,48.355,90.302,60.705,135.668
		c-16.604-1.922-33.48-2.915-50.582-2.915C513.824,174.634,418.358,210.881,342.396,271.881z M316.964,293.881H32.012
		c1.318,42,10.034,84.196,26.09,124.285c23.753,59.306,63.39,113.52,114.886,157.443
		C187.345,464.329,240.053,365.881,316.964,293.881z"/>
	<linearGradient id="SVGID_2_" gradientUnits="userSpaceOnUse" x1="357.1114" y1="702.5684" x2="357.1114" y2="9.094947e-013">
		<stop  offset="0" style="stop-color:#000000"/>
		<stop  offset="1" style="stop-color:#FFFFFF"/>
	</linearGradient>
	<path style="opacity:0.3;fill:url(#SVGID_2_);enable-background:new    ;" d="M354.734,702.021
		c-70.72-16.265-138.252-49.58-195.296-96.344C100.57,557.417,55.314,496.601,28.561,429.806
		C3.447,367.104-5.165,300.854,2.964,232.9c8.874-74.188,37.681-148.676,85.62-221.395l4.346-6.593l7.563,2.273
		c36.743,11.041,76.23,16.639,117.366,16.639c48.319,0,95.217-7.781,135.623-22.501L357.111,0l3.631,1.322
		c40.407,14.72,87.305,22.501,135.623,22.501c41.136,0,80.623-5.598,117.366-16.639l7.563-2.273l4.346,6.593
		c47.939,72.719,76.746,147.207,85.62,221.395c8.129,67.955-0.483,134.203-25.597,196.907
		c-26.752,66.795-72.009,127.61-130.877,175.871c-57.043,46.764-124.575,80.08-195.296,96.344l-2.378,0.547L354.734,702.021z"/>
	<path style="fill:#ECECEC;" d="M356.975,692.276c-69.225-15.922-135.34-48.541-191.197-94.333
		C108.211,550.75,63.972,491.323,37.844,426.089C13.36,364.958,4.965,300.359,12.893,234.088
		c8.688-72.632,36.963-145.668,84.04-217.079l0.249-0.377l0.433,0.13c37.677,11.321,78.133,17.062,120.244,17.062
		c49.474,0,97.555-7.99,139.046-23.105l0.208-0.076l0.209,0.076c41.49,15.115,89.572,23.105,139.045,23.105
		c42.112,0,82.567-5.741,120.244-17.062l0.433-0.13l0.248,0.377c47.077,71.412,75.352,144.448,84.04,217.079
		c7.927,66.271-0.468,130.87-24.951,192.001c-26.128,65.235-70.367,124.662-127.935,171.854
		c-55.856,45.792-121.972,78.412-191.196,94.333l-0.137,0.031L356.975,692.276z"/>
	<radialGradient id="SVGID_3_" cx="105.0893" cy="39.8813" r="601.858" gradientUnits="userSpaceOnUse">
		<stop  offset="0" style="stop-color:#FF1A1F"/>
		<stop  offset="0.352" style="stop-color:#CE1A1F"/>
		<stop  offset="1" style="stop-color:#B1161B"/>
	</radialGradient>
	<path style="fill:url(#SVGID_3_);" d="M357.111,33.778c-42.146,14.321-90.107,21.868-139.254,21.868
		c-38.536,0-75.806-4.592-111.025-13.664C66.616,106.371,42.321,171.598,34.56,236.477c-1.427,11.931-2.291,24.404-2.6,35.404
		h650.302c-0.309-11-1.173-23.473-2.6-35.404c-7.761-64.88-32.055-130.207-72.271-194.597
		c-35.219,9.072-72.488,13.714-111.025,13.714C447.22,55.595,399.258,48.099,357.111,33.778z"/>
	<radialGradient id="SVGID_4_" cx="355.0273" cy="672.3106" r="407.1875" gradientUnits="userSpaceOnUse">
		<stop  offset="0" style="stop-color:#2349B0"/>
		<stop  offset="0.3026" style="stop-color:#1A3585"/>
		<stop  offset="0.5575" style="stop-color:#193381"/>
		<stop  offset="0.8341" style="stop-color:#162E74"/>
		<stop  offset="1" style="stop-color:#142968"/>
	</radialGradient>
	<path style="fill:url(#SVGID_4_);" d="M32.012,293.881c1.318,42,10.034,84.196,26.09,124.285
		c24.763,61.828,66.781,118.129,121.512,162.998c51.987,42.619,113.263,73.219,177.498,88.771
		c64.234-15.551,125.511-46.223,177.499-88.843c54.731-44.868,96.749-101.086,121.512-162.914
		c16.056-40.088,24.772-82.296,26.089-124.296H32.012z"/>
	<g>
		<path style="fill:#FFFFFF;" d="M250.763,137.731h-37.69v99.768h-36.028v-99.768H139.17v-31.409h111.593V137.731z"/>
		<path style="fill:#FFFFFF;" d="M316.906,238.608c-9.362,0-17.893-1.909-25.589-5.728c-7.699-3.816-14.29-8.837-19.769-15.057
			c-5.482-6.218-9.732-13.331-12.748-21.339c-3.02-8.005-4.527-16.259-4.527-24.759c0-8.62,1.57-16.933,4.712-24.941
			c3.141-8.005,7.543-15.059,13.21-21.155c5.663-6.096,12.347-10.961,20.045-14.596c7.697-3.631,16.166-5.45,25.404-5.45
			c9.359,0,17.889,1.912,25.589,5.728c7.697,3.819,14.287,8.868,19.769,15.15c5.48,6.282,9.7,13.426,12.656,21.431
			c2.956,8.008,4.434,16.198,4.434,24.574c0,8.623-1.57,16.904-4.711,24.848c-3.141,7.946-7.483,14.966-13.026,21.063
			c-5.543,6.098-12.194,10.993-19.954,14.689C334.642,236.76,326.144,238.608,316.906,238.608z M290.855,172.095
			c0,4.434,0.523,8.715,1.57,12.841c1.045,4.128,2.679,7.791,4.896,10.993c2.217,3.204,4.988,5.791,8.314,7.761
			c3.326,1.971,7.206,2.956,11.64,2.956c4.555,0,8.499-1.017,11.824-3.048c3.326-2.033,6.034-4.679,8.13-7.944
			c2.093-3.262,3.664-6.99,4.711-11.178c1.045-4.186,1.57-8.436,1.57-12.749c0-4.434-0.554-8.712-1.663-12.839
			c-1.108-4.126-2.742-7.761-4.896-10.902c-2.157-3.141-4.896-5.664-8.222-7.574c-3.325-1.909-7.206-2.865-11.64-2.865
			c-4.558,0-8.47,0.988-11.732,2.957c-3.265,1.971-5.976,4.59-8.13,7.852c-2.157,3.265-3.759,6.96-4.804,11.085
			C291.378,163.568,290.855,167.785,290.855,172.095z"/>
		<path style="fill:#FFFFFF;" d="M432.377,106.322h33.071l11.455,40.462l11.639-40.462h33.072l-21.617,62.633l9.422,27.344
			l28.268-89.977h39.168l-51.363,131.177h-29.93l-18.66-46.928l-18.476,46.928h-29.93l-51.363-131.177h38.984l28.452,89.977
			l9.054-27.344L432.377,106.322z"/>
		<path style="fill:#FFFFFF;" d="M174.338,406.349l5.012,23.761l-70.723,14.92l-20.934-99.236l69.465-14.654l5.013,23.761
			l-42.21,8.904l2.949,13.977l36.06-7.607l4.659,22.083l-36.061,7.607l3.302,15.654L174.338,406.349z"/>
		<path style="fill:#FFFFFF;" d="M197.571,325.369l22.11,29.573l14.481-33.966l29.784-3.576l-27.482,55.093l38.438,45.74
			l-29.784,3.576l-20.805-28.29l-13.517,32.412l-29.925,3.593l26.518-53.539l-39.743-47.022L197.571,325.369z"/>
		<path style="fill:#FFFFFF;" d="M281.078,418.28l-3.688-101.353l43.682-1.589c4.947-0.18,9.553,0.677,13.816,2.57
			c4.261,1.896,7.951,4.428,11.069,7.602s5.61,6.849,7.476,11.02c1.867,4.173,2.879,8.4,3.034,12.682
			c0.163,4.474-0.488,8.858-1.952,13.15c-1.465,4.295-3.588,8.135-6.37,11.524c-2.785,3.389-6.209,6.135-10.278,8.235
			c-4.069,2.103-8.579,3.242-13.526,3.423l-16.559,0.603l1.133,31.12L281.078,418.28z M306.9,361.88l14.703-0.535
			c1.713-0.062,3.277-0.905,4.697-2.53c1.417-1.624,2.052-4.481,1.903-8.574c-0.152-4.186-1.113-7.01-2.881-8.471
			c-1.768-1.458-3.509-2.159-5.222-2.097l-13.989,0.51L306.9,361.88z"/>
		<path style="fill:#FFFFFF;" d="M440.951,394.417l-0.973,24.264l-72.222-2.897l4.065-101.339l70.937,2.845l-0.974,24.264
			l-43.104-1.729l-0.573,14.273l36.825,1.477l-0.905,22.552l-36.824-1.477l-0.642,15.986L440.951,394.417z"/>
		<path style="fill:#FFFFFF;" d="M450.923,419.459l12.543-100.641l46.21,5.759c4.913,0.613,9.322,2.195,13.228,4.744
			c3.904,2.552,7.143,5.641,9.713,9.272c2.57,3.631,4.444,7.657,5.621,12.073c1.177,4.418,1.501,8.752,0.971,13.004
			c-0.731,5.86-2.686,11.159-5.868,15.895c-3.182,4.739-7.241,8.432-12.177,11.078l18.069,39.823l-31.185-3.887l-15.285-33.286
			l-10.348-1.29l-3.851,30.901L450.923,419.459z M485.418,367.906l17.435,2.173c1.701,0.212,3.4-0.534,5.102-2.243
			c1.7-1.706,2.762-4.262,3.186-7.664c0.436-3.495-0.082-6.272-1.553-8.326c-1.472-2.055-3.058-3.188-4.759-3.4l-16.726-2.085
			L485.418,367.906z"/>
		<path style="fill:#FFFFFF;" d="M636.959,373.137l-28.473-6.204l-16.421,75.369l-27.216-5.93l16.421-75.369l-28.612-6.234
			l5.17-23.727l84.301,18.368L636.959,373.137z"/>
		<path style="fill:#FFFFFF;" d="M442.268,538.625c-14.594,0-26.424,11.829-26.424,26.42c0,14.593,11.831,26.425,26.424,26.425
			c14.593,0,26.422-11.832,26.422-26.425C468.69,550.453,456.861,538.625,442.268,538.625z M442.268,580.175
			c-8.353,0-15.126-6.774-15.126-15.13c0-8.354,6.773-15.128,15.126-15.128c8.354,0,15.128,6.774,15.128,15.128
			C457.396,573.401,450.622,580.175,442.268,580.175z"/>
		<path style="fill:#FFFFFF;" d="M281.41,538.625c-14.592,0-26.421,11.829-26.421,26.42c0,14.593,11.828,26.425,26.421,26.425
			c14.593,0,26.422-11.832,26.422-26.425C307.832,550.453,296.004,538.625,281.41,538.625z M281.41,580.175
			c-8.356,0-15.127-6.774-15.127-15.13c0-8.354,6.77-15.128,15.127-15.128c8.354,0,15.128,6.774,15.128,15.128
			C296.538,573.401,289.765,580.175,281.41,580.175z"/>
		<rect x="329.321" y="462.138" style="fill:#FFFFFF;" width="10.562" height="55.4"/>
		<path style="fill:#FFFFFF;" d="M337.856,455.595c-0.194-2.142-1.552-3.828-3.256-3.828c-1.705,0-3.061,1.686-3.256,3.828
			c-1.157,0.316-2.024,1.325-2.024,2.583v2.223h10.559v-2.223C339.879,456.92,339.014,455.911,337.856,455.595z"/>
		<path style="fill:#FFFFFF;" d="M287.779,518.345c-0.351,0-0.657-0.103-1.008-0.219c-1.369-0.454-2.282-1.673-2.282-3.027
			c0-1.07,0.557-2.017,1.419-2.599c1.314-1.28,6.562-7.124,13.217-14.625l-55.423-27.678c-7.558-3.779-15.19-7.9-15.19-7.9
			c-2.996-1.883-2.646-2.568-1.858-4.109c0.688-1.349,2.273-2.042,3.781-1.755c3.456,0.475,71.867,7.581,98.126,10.299
			c1.244,0.132,2.321,0.889,2.797,1.974c0.475,1.085,0.275,2.327-0.52,3.237c-8.713,9.961-15.587,17.817-21.035,24.003
			c7.75,3.866,15.046,7.51,21.295,10.627c1.67,0.833,2.299,2.774,1.408,4.336c-0.889,1.557-2.971,2.146-4.639,1.314l-22.511-11.238
			C292.119,515.922,289.473,518.345,287.779,518.345L287.779,518.345z M247.239,464.702c14.362,7.177,36.305,18.133,56.346,28.138
			c5.873-6.64,12.325-13.977,17.948-20.391C282.894,468.448,260.388,466.097,247.239,464.702L247.239,464.702z"/>
		<path style="fill:#FFFFFF;" d="M325.546,509.389h-28.269h-59.07c-8.46,0-15.314,8.128-15.314,18.155v16.863h-0.567
			c-1.505,0-2.724,1.221-2.724,2.724v13.063c0,1.507,1.219,2.724,2.724,2.724h7.694c2.371,1.783,5.172,2.831,8.187,2.831h9.683
			c-0.007-0.275-0.041-0.545-0.041-0.823c0-18.13,14.696-32.827,32.829-32.827c18.127,0,32.827,14.697,32.827,32.827
			c0,0.278-0.037,0.548-0.044,0.823h12.085h40.395v-56.36H325.546z"/>
		<path style="fill:#FFFFFF;" d="M492.143,544.406h-0.067c-0.628-6.885-2.039-13.276-2.039-16.287c0-8.274-5.335-6.406-5.335-6.406
			s0,0-2.135-15.212c-2.137-15.212-27.754-17.082-34.96-18.415c-6.148-1.135-14.298-20.436-16.569-26.096
			c-0.155-0.441-0.312-0.874-0.512-1.292c-0.076-0.197-0.117-0.304-0.117-0.304c-0.015-0.003-0.034-0.003-0.052-0.008
			c-2.23-4.445-6.722-7.537-11.989-7.712c0.066-0.239,0.179-3.521-2.586-3.46h-8.845c-2.949-0.03-2.655,3.201-2.596,3.426h-19.372
			c-7.722,0-13.98,6.258-13.98,13.979v98.639c0,2.505,2.033,4.538,4.538,4.538h30.094c1.608,0,3.011-0.841,3.818-2.099
			c0.004-0.003,0.007-0.003,0.013-0.003c0.039-0.014,0.081-0.024,0.123-0.035c-0.069-0.862-0.135-1.733-0.135-2.615
			c0-18.129,14.699-32.826,32.83-32.826c18.131,0,32.827,14.697,32.827,32.826c0,1.599-0.153,3.16-0.371,4.694
			c0.568,0.017,1.131,0.051,1.703,0.058c7.047,0.091,11.134-2.694,13.411-6.879h2.306c1.501,0,2.72-1.217,2.72-2.724V547.13
			C494.863,545.627,493.643,544.406,492.143,544.406z M418.514,489.684c0,2.505-2.032,4.539-4.54,4.539h-24.544
			c-2.509,0-4.542-2.034-4.542-4.539v-22.948c0-2.505,2.033-4.539,4.542-4.539h24.544c2.508,0,4.54,2.033,4.54,4.539V489.684z
			 M442.264,491.02c0,2.506-2.032,4.539-4.537,4.539h-9.602c-2.505,0-4.538-2.033-4.538-4.539v-24.285
			c0-2.505,2.033-4.539,4.538-4.539c2.436,5.901,8.947,19.519,14.139,26.305V491.02z"/>
		<path style="fill:#FFFFFF;" d="M228.317,466.149c0,0-0.137,3.744,0,4.479c0.11,0.588,0.767,1.591,1.179,2.004
			c0.412,0.411,2.828,1.473,3.889,3.124c1.06,1.651,1.356,4.419,0.648,6.186c-0.707,1.769-2.063,4.147-6.719,4.302
			c-4.672,0.157-6.541-3.476-6.129-5.362c0.411-1.885,0.291-2.322-0.029-2.475c-0.533-0.254-0.762-1.079,0.029-1.592
			c0.76-0.493,1.208,0.062,1.334,0.67c0,0,0.183,1.486,0.947,2.644c0.55,0.876,0.951,1.696,2.763,1.526
			c2.376-0.224,2.577-1.772,2.535-2.461c-0.06-0.992-0.491-1.567-1.436-2.181c-1.277-0.832-1.813-1.747-2.255-2.739
			c-0.317-0.713-1.003-3.422-0.597-5.37c0.448-2.142,0.459-2.051,0.684-3.02C225.442,464.68,228.126,464.63,228.317,466.149z"/>
	</g>
	<g>
		<circle style="opacity:0.2;enable-background:new    ;" cx="357.111" cy="58.75" r="10"/>
		<circle style="opacity:0.2;enable-background:new    ;" cx="357.111" cy="58.75" r="8"/>
		<radialGradient id="SVGID_5_" cx="357.1114" cy="58.7496" r="7" gradientUnits="userSpaceOnUse">
			<stop  offset="0" style="stop-color:#999999"/>
			<stop  offset="1" style="stop-color:#E6E6E6"/>
		</radialGradient>
		<circle style="fill:url(#SVGID_5_);" cx="357.111" cy="58.75" r="7"/>
		<circle style="fill:#1A1A1A;" cx="357.111" cy="58.75" r="2"/>
		<circle style="opacity:0.3;enable-background:new    ;" cx="357.111" cy="58.75" r="3"/>
	</g>
	<g>
		<circle style="opacity:0.2;enable-background:new    ;" cx="357.111" cy="646.75" r="10"/>
		<circle style="opacity:0.2;enable-background:new    ;" cx="357.111" cy="646.75" r="8"/>
		<radialGradient id="SVGID_6_" cx="357.1114" cy="646.7496" r="7" gradientUnits="userSpaceOnUse">
			<stop  offset="0" style="stop-color:#999999"/>
			<stop  offset="1" style="stop-color:#E6E6E6"/>
		</radialGradient>
		<circle style="fill:url(#SVGID_6_);" cx="357.111" cy="646.75" r="7"/>
		<circle style="fill:#1A1A1A;" cx="357.111" cy="646.75" r="2"/>
		<circle style="opacity:0.3;enable-background:new    ;" cx="357.111" cy="646.75" r="3"/>
	</g>
	<linearGradient id="SVGID_7_" gradientUnits="userSpaceOnUse" x1="46.3301" y1="450.8993" x2="531.3698" y2="-34.1404">
		<stop  offset="0" style="stop-color:#FFFFFF;stop-opacity:0"/>
		<stop  offset="1" style="stop-color:#FFFFFF"/>
	</linearGradient>
	<path style="opacity:0.4;fill:url(#SVGID_7_);" d="M342.396,271.881H31.961c0.309-11,1.173-23.473,2.6-35.404
		c7.761-64.88,32.055-130.107,72.271-194.496c35.219,9.072,72.489,13.664,111.025,13.664c49.147,0,97.108-7.547,139.254-21.868
		c42.147,14.321,90.108,21.817,139.254,21.817c38.537,0,75.806-4.642,111.025-13.714c28.058,44.923,48.355,90.302,60.705,135.668
		c-16.604-1.922-33.48-2.915-50.582-2.915C513.824,174.634,418.358,210.881,342.396,271.881z M316.964,293.881H32.012
		c1.318,42,10.034,84.196,26.09,124.285c23.753,59.306,63.39,113.52,114.886,157.443
		C187.345,464.329,240.053,365.881,316.964,293.881z"/>
</g>
</svg>
