<?xml version="1.0" encoding="iso-8859-1"?>
<!-- Generator: Adobe Illustrator 18.0.0, SVG Export Plug-In . SVG Version: 6.00 Build 0)  -->
<!DOCTYPE svg PUBLIC "-//W3C//DTD SVG 1.1//EN" "http://www.w3.org/Graphics/SVG/1.1/DTD/svg11.dtd">
<svg version="1.1" id="Layer_1" xmlns="http://www.w3.org/2000/svg" xmlns:xlink="http://www.w3.org/1999/xlink" x="0px" y="0px"
	 viewBox="0 0 499.35 72.359" style="enable-background:new 0 0 499.35 72.359;" xml:space="preserve">
<g>
	<path style="fill:#FFFFFF;" d="M36.438,60.065c0,0.495-0.818,0.944-1.313,0.944H4.642c-0.495,0-0.461-0.449-0.461-0.944V11.653
		c0-0.495-0.034-0.82,0.461-0.82h30.482c0.495,0,1.313,0.325,1.313,0.82v10.924l2.987-2.938V6.034c0-2.971-2.226-5.357-5.197-5.357
		H5.539C2.568,0.678,0,3.064,0,6.034v60.964c0,2.971,2.568,5.36,5.539,5.36h28.689c2.971,0,5.197-2.39,5.197-5.36V35.683
		l-2.987,4.139V60.065z M8.408,4.262h22.951c0.99,0,1.793,0.802,1.793,1.792c0,0.99-0.803,1.792-1.793,1.792H8.408
		c-0.99,0-1.793-0.802-1.793-1.792C6.615,5.064,7.418,4.262,8.408,4.262z M27.478,66.983c0,1.32-1.07,2.389-2.389,2.389H14.934
		c-1.32,0-2.389-1.07-2.389-2.389l0,0c0-1.32,1.07-2.389,2.389-2.389h10.155C26.408,64.593,27.478,65.663,27.478,66.983
		L27.478,66.983z"/>
	<polygon style="fill:#FFFFFF;" points="47.532,22.154 44.537,19.308 21.32,38.33 13.981,28.894 7.99,35.035 21.32,52.41 	"/>
	<g>
		<path style="fill:#FFFFFF;" d="M85.691,68.896l-6.398-42.84l-0.371-2.875h-0.556v45.715h-9.273V0.742h12.24l5.935,31.156
			l0.463,3.617h0.186l0.464-3.617l5.935-31.156h12.24v68.155h-9.272V23.182h-0.557l-0.371,2.875l-6.398,42.84H85.691z"/>
		<path style="fill:#FFFFFF;" d="M140.031,54.895c-0.093,2.782-0.649,5.285-1.669,7.418c-0.835,1.854-2.133,3.617-3.987,5.008
			c-1.854,1.483-4.358,2.318-7.697,2.318c-3.338,0-5.935-0.835-7.789-2.318c-1.854-1.391-3.06-3.153-3.895-5.008
			c-1.02-2.133-1.576-4.636-1.669-7.418V14.744c0.093-2.689,0.649-5.193,1.669-7.326c0.834-1.854,2.04-3.709,3.895-5.1
			C120.743,0.927,123.34,0,126.678,0c3.338,0,5.842,0.927,7.697,2.318c1.854,1.391,3.152,3.246,3.987,5.1
			c1.02,2.133,1.576,4.636,1.669,7.326V54.895z M130.016,14.744c0-1.854-0.371-3.153-1.298-4.266
			c-0.463-0.463-1.205-0.742-2.04-0.742c-1.762,0-2.596,1.298-2.967,2.503c-0.278,0.742-0.371,1.577-0.371,2.504v40.151
			c0,1.947,0.463,3.245,1.391,4.266c0.464,0.464,1.113,0.742,1.947,0.742c1.762,0,2.597-1.113,2.967-2.504
			c0.278-0.649,0.371-1.483,0.371-2.504V14.744z"/>
		<path style="fill:#FFFFFF;" d="M146.799,68.896V0.742h8.809c5.935,0,10.571,1.113,13.631,3.987
			c3.06,2.875,4.636,7.325,4.636,14.095c0,3.245-0.278,5.656-1.298,7.882c-1.02,2.225-2.596,4.08-4.915,6.212
			c2.504,1.391,4.358,3.987,5.842,8.346c0.742,2.133,1.113,4.915,1.113,8.346c0,5.1-0.927,9.644-3.246,13.167
			c-2.318,3.523-6.305,5.842-12.24,6.12H146.799z M156.814,28.838c0.834,0,2.782,0.093,4.451-1.02
			c1.669-1.113,2.967-3.338,2.967-8.067c0-4.729-1.298-6.955-2.967-8.067c-1.669-1.113-3.617-1.02-4.451-1.02V28.838z
			 M156.814,58.975c0.834,0,2.782,0.186,4.451-1.02c1.669-1.206,2.967-3.895,2.967-9.458s-1.298-8.253-2.967-9.458
			c-1.669-1.206-3.617-1.02-4.451-1.02V58.975z"/>
		<path style="fill:#FFFFFF;" d="M180.553,0.742h10.015v68.155h-10.015V0.742z"/>
		<path style="fill:#FFFFFF;" d="M197.985,0.742h10.015v58.882h13.26v9.272h-23.275V0.742z"/>
		<path style="fill:#FFFFFF;" d="M225.34,0.742h22.904v10.292h-12.889v17.896h9.273v10.942h-9.273v18.731h12.889v10.293H225.34
			V0.742z"/>
		<path style="fill:#FFFFFF;" d="M291.918,11.034h-13.816v17.896h9.273v10.293h-9.273v29.673h-10.015V0.742h23.831V11.034z"/>
		<path style="fill:#FFFFFF;" d="M313.895,68.896l-5.193-28.746h-2.689v28.746h-10.015V0.742h10.015
			c11.962,0,17.062,6.769,17.062,19.658c0,6.769-1.762,12.889-5.563,15.485l6.398,33.011H313.895z M306.013,30.878
			c1.391,0,3.246-0.185,4.729-1.483s2.689-3.802,2.689-8.624s-1.206-7.418-2.689-8.717c-1.483-1.298-3.338-1.391-4.729-1.391V30.878
			z"/>
		<path style="fill:#FFFFFF;" d="M329.473,0.742h10.015v68.155h-10.015V0.742z"/>
		<path style="fill:#FFFFFF;" d="M346.905,0.742h22.904v10.292h-12.89v17.896h9.272v10.942h-9.272v18.731h12.89v10.293h-22.904
			V0.742z"/>
		<path style="fill:#FFFFFF;" d="M385.944,33.382l-0.835-3.153h-0.557v38.667h-9.18V0.742h8.902l9.736,35.515l0.834,3.153h0.557
			V0.742h9.18v68.155h-8.901L385.944,33.382z"/>
		<path style="fill:#FFFFFF;" d="M411.999,68.896V0.742h7.882c9.272,0,14.28,1.854,16.97,7.047
			c2.596,5.193,2.967,13.724,2.967,27.076c0,13.353-0.371,21.791-2.967,26.984c-2.689,5.192-7.697,7.047-16.97,7.047H411.999z
			 M422.014,58.882c3.431,0,5.378-0.371,6.398-3.709c0.464-1.576,0.834-3.987,0.927-7.233s0.093-7.604,0.093-13.167
			c0-5.563,0-9.922-0.093-13.167c-0.093-3.153-0.463-5.564-0.927-7.233c-1.021-3.246-2.968-3.616-6.398-3.616V58.882z"/>
		<path style="fill:#FFFFFF;" d="M446.494,0.742h10.015v58.882h13.26v9.272h-23.274V0.742z"/>
		<path style="fill:#FFFFFF;" d="M483.772,22.533l0.278,0.649h0.186l0.278-0.649l5.007-21.791h9.829l-10.2,39.131v29.024h-10.014
			V39.873l-10.2-39.131h9.829L483.772,22.533z"/>
	</g>
</g>
</svg>
