<?xml version="1.0" encoding="iso-8859-1"?>
<!-- Generator: Adobe Illustrator 18.0.0, SVG Export Plug-In . SVG Version: 6.00 Build 0)  -->
<!DOCTYPE svg PUBLIC "-//W3C//DTD SVG 1.1//EN" "http://www.w3.org/Graphics/SVG/1.1/DTD/svg11.dtd">
<svg version="1.1" id="Layer_1" xmlns="http://www.w3.org/2000/svg" xmlns:xlink="http://www.w3.org/1999/xlink" x="0px" y="0px"
	 viewBox="0 0 151 151" style="enable-background:new 0 0 151 151;" xml:space="preserve">
<g>
	<path style="fill:#FFFFFF;stroke:#000000;stroke-miterlimit:10;" d="M0.5,0.5c0,50,0,100,0,150c50,0,100,0,150,0c0-50,0-100,0-150
		C100.5,0.5,50.5,0.5,0.5,0.5z"/>
	<path d="M7.942,6.501c15.179,0,30.127,0,45.248,0c0,15.091,0,30.039,0,45.248c-14.964,0-29.99,0-45.248,0
		C7.942,36.812,7.942,21.787,7.942,6.501z M46.568,45.417c0-10.777,0-21.529,0-32.319c-10.786,0-21.463,0-32.088,0
		c0,10.899,0,21.576,0,32.319C25.251,45.417,35.773,45.417,46.568,45.417z"/>
	<path d="M99.248,6.5c15.174,0,30.122,0,45.244,0c0,15.089,0,30.037,0,45.248c-14.959,0-29.984,0-45.244,0
		C99.248,36.816,99.248,21.791,99.248,6.5z M105.767,13.024c0,10.935,0,21.612,0,32.204c10.909,0,21.587,0,32.207,0
		c0-10.86,0-21.46,0-32.204C127.202,13.024,116.602,13.024,105.767,13.024z"/>
	<path d="M7.941,97.806c15.181,0,30.129,0,45.249,0c0,15.092,0,30.04,0,45.248c-14.966,0-29.992,0-45.249,0
		C7.941,128.115,7.941,113.091,7.941,97.806z M46.705,104.348c-10.969,0-21.569,0-32.278,0c0,10.843,0,21.519,0,32.221
		c10.873,0,21.55,0,32.278,0C46.705,125.746,46.705,115.146,46.705,104.348z"/>
	<path d="M125.284,71.727c0-4.302,0-8.603,0-13.049c2.059,0,3.972,0,6.233,0c0,2.002,0,4.002,0,6.339c4.501,0,8.67,0,12.989,0
		c0,4.426,0,8.508,0,12.941c-1.966,0-3.963,0-6.155,0c0,2.336,0,4.326,0,6.548c1.982,0,3.903,0,6.069,0c0,8.728,0,17.233,0,25.969
		c-4.084,0-8.243,0-12.6,0c0-4.174,0-8.334,0-12.728c2.021,0,3.936,0,6.088,0c0-2.215,0-4.205,0-6.548c-1.961,0-3.955,0-6.284,0
		c0-6.679,0-13.019,0-19.56c-2.371,0-4.405,0-6.443-0.004C125.176,71.633,125.284,71.727,125.284,71.727z"/>
	<path d="M86.007,45.433c-2.048,0-4.096,0-6.608,0c0,6.717,0,13.19,0,19.663l0.096-0.089c-2.121,0-4.243,0-6.676,0
		c0-6.696,0-13.025,0-19.565c-2.37,0-4.414,0-6.458,0l0.096,0.089c0-4.22,0-8.44,0-12.873c2.14,0,4.13,0,6.357,0
		c0,1.965,0,3.886,0,6.056c2.218,0,4.21,0,6.558,0c0-1.93,0-3.927,0-6.153c2.258,0,4.176,0,6.442,0c0-2.215,0-4.212,0-6.424
		c2.334,0,4.326,0,6.5,0c0,4.135,0,8.221,0,12.664c-1.924,0-3.919,0-6.4,0c0,2.465,0,4.594,0,6.724L86.007,45.433z"/>
	<path d="M27.226,71.53c0,2.047,0,4.095,0,6.487c-2.129,0-4.125,0-6.294,0c0,2.253,0,4.169,0,6.435c1.912,0,3.907,0,6.123,0
		c0,2.33,0,4.32,0,6.502c-4.113,0-8.198,0-12.64,0c0-4.064,0-8.23,0-12.742c-2.333,0-4.328,0-6.51,0c0-2.338,0-4.329,0-6.554
		c2.018,0,3.938,0,6.091,0c0-2.215,0-4.206,0-6.55c-1.969,0-3.965,0-6.12,0c0-2.256,0-4.173,0-6.334c6.293,0,12.629,0,19.35,0
		c0,2.071,0,4.197,0,6.323l0.096-0.089c-2.121,0-4.241,0-6.343,0c0,2.436,0,4.42,0,6.613c2.263,0,4.303,0,6.343,0L27.226,71.53z"/>
	<path d="M33.852,65.088c0-2.042,0-4.084,0-6.433c8.607,0,17.096,0,25.92,0c0-4.45,0-8.607,0-13.124c2.444,0,4.565,0,6.685,0
		l-0.096-0.089c0,8.648,0,17.296,0,26.087c-2.424,0-4.473,0-6.522,0l0.096,0.089c0-2.049,0-4.099,0-6.622c-8.884,0-17.53,0-26.176,0
		L33.852,65.088z"/>
	<path d="M112.023,84.671c4.219,0,8.438,0,12.867,0c0,2.142,0,4.131,0,6.359c-1.978,0-3.895,0-6.061,0c0,2.218,0,4.21,0,6.557
		c1.937,0,3.933,0,6.098,0c0,4.432,0,8.518,0,12.862c-1.938,0-3.926,0-6.271,0c0-1.929,0-3.925,0-6.092c-2.257,0-4.174,0-6.442,0
		c0,1.924,0,3.921,0,6.132c-2.333,0-4.324,0-6.5,0c0-4.136,0-8.222,0-12.663c1.925,0,3.918,0,6.4,0c0-4.644,0-8.946,0-13.247
		L112.023,84.671z"/>
	<path d="M59.929,91.089c-6.378,0-12.756,0-19.371,0c0-4.256,0-8.409,0-13.047c2.075,0,4.197,0,6.32,0c0,2.118,0,4.235,0,6.362
		c2.336,0,4.316,0,6.253,0c0-2.202,0-4.183,0-6.27c-2.269,0-4.308,0-6.346,0c0-2.048,0-4.096,0-6.517c4.546,0,8.848,0,13.151,0
		l-0.096-0.089c0,2.121,0,4.241,0,6.681c2.432,0,4.42,0,6.522,0c0,2.373,0,4.413,0,6.454l0.091-0.091c-2.131,0-4.262,0-6.613,0
		c0,2.517,0,4.565,0,6.613L59.929,91.089z"/>
	<path d="M112.116,84.579c-2.044,0-4.089,0-6.469,0c0-2.109,0-4.105,0-6.533c-4.62,0-8.908,0-13.197,0l0.089,0.096
		c0-2.12,0-4.24,0-6.676c4.52,0,8.679,0,13.043,0c0-2.373,0-4.415,0-6.458l-0.089,0.096c4.264,0,8.527,0,12.996,0
		c0,2.168,0,4.067,0,6.28c2.387,0.119,4.587,0.228,6.791,0.341c0.004,0.003-0.104-0.091-0.1-0.087
		c0.004,2.029,0.004,4.054,0.004,6.39c-4.451,0-8.597,0-13.161,0c0,2.413,0,4.529,0,6.645L112.116,84.579z"/>
	<path d="M66.356,91.095c0,4.217,0,8.434,0,12.868c2.23,0,4.218,0,6.443,0c0-1.95,0-3.865,0-6.042c2.213,0,4.202,0,6.427,0
		c0,4.067,0,8.23,0,12.746c-4.18,0-8.348,0-12.738,0c0,2.259,0,4.174,0,6.323c-2.216,0-4.206,0-6.559,0c0-8.62,0-17.261,0-25.901
		l-0.089,0.096c2.204,0,4.408,0,6.613,0L66.356,91.095z"/>
	<path d="M72.982,136.827c0-2.037,0-4.073,0-6.439c2.091,0,4.076,0,6.38,0c0-4.468,0-8.616,0-13.104c2.42,0,4.534,0,6.649,0
		l-0.092-0.093c0,4.217,0,8.433,0,13.136c4.544,0,8.84,0,13.136,0l-0.092-0.093c-0.001,2.199-0.002,4.397-0.003,6.596l0.093-0.092
		c-4.218,0-8.436,0-13.003,0c0,2.246,0,4.239,0,6.402c-2.258,0-4.175,0-6.442,0c0-1.925,0-3.921,0-6.405c-2.459,0-4.588,0-6.717,0
		L72.982,136.827z"/>
	<path d="M92.646,84.436c-2.125,0.109-4.251,0.218-6.583,0.337c0,2.059,0,3.966,0,6.12c-2.194,0-4.175,0-6.501,0
		c0-1.906,0-3.892,0-6.326c-2.437,0-4.557,0-6.677,0l0.089,0.096c0-2.123,0-4.246,0-6.696c2.345,0,4.338,0,6.522,0
		c0-4.548,0-8.754,0-12.96L79.4,65.096c2.205,0.002,4.411,0.004,6.616,0.006l-0.089-0.096c0,4.302,0,8.604,0,13.134
		c2.514,0,4.563,0,6.613,0l-0.089-0.096c0.037,2.164,0.073,4.327,0.106,6.495C92.552,84.544,92.646,84.436,92.646,84.436z"/>
	<path d="M99.054,130.327c0-2.048,0-4.097,0-6.489c4.294,0,8.465,0,12.851,0c0.103-2.326,0.191-4.323,0.285-6.46
		c2.096,0,4.011,0,6.159,0c0,4.155,0,8.317,0,12.855c-6.455,0-12.921,0-19.387,0L99.054,130.327z"/>
	<path d="M72.89,136.735c0,2.048,0,4.096,0,6.361c-4.297,0-8.459,0-12.814,0c0-6.366,0-12.695,0-19.187c2.024,0,3.938,0,6.2,0
		c0,4.128,0,8.298,0,12.919c2.452,0,4.58,0,6.707,0L72.89,136.735z"/>
	<path d="M86.016,65.103c0-2.045,0-4.091,0-6.353c6.452,0,12.777,0,19.477,0c0,2.108,0,4.231,0,6.353l0.089-0.096
		c-6.552,0-13.104,0-19.656,0L86.016,65.103z"/>
	<path d="M137.964,130.117c0.096,2.05,0.191,4.1,0.303,6.496c1.961,0,3.953,0,6.172,0c0,2.327,0,4.316,0,6.505
		c-4.159,0-8.317,0-12.643,0c0-4.261,0-8.42,0-12.914c2.201,0,4.235,0,6.272,0.004C138.072,130.211,137.964,130.117,137.964,130.117
		z"/>
	<path d="M98.958,136.83c6.376,0,12.752,0,19.374,0c0,2.083,0,4.067,0,6.27c-6.261,0-12.583,0-19.281,0c0-2.118,0-4.24,0-6.362
		L98.958,136.83z"/>
	<path d="M92.343,6.539c0,4.22,0,8.298,0,12.619c-1.983,0-3.968,0-6.165,0c0-4.12,0-8.278,0-12.619
		C88.14,6.539,90.051,6.539,92.343,6.539z"/>
	<path d="M86.01,117.283c0-2.043,0-4.085,0-6.353c4.266,0,8.417,0,12.788,0c0,1.953,0,3.934,0,6.26c-4.309,0-8.595,0-12.881,0
		L86.01,117.283z"/>
	<path d="M92.547,97.697c0.031-4.417,0.061-8.835,0.095-13.256c0.003-0.004-0.091,0.104-0.087,0.1
		c2.028-0.004,4.052-0.004,6.267-0.004c0,4.448,0,8.587,0,13.068c-2.143,0-4.255,0-6.367,0L92.547,97.697z"/>
	<path d="M138.181,123.694c-4.199,0-8.399,0-12.838,0c0-2.076,0-4.057,0-6.256c4.096,0,8.243,0,12.746,0c0,2.116,0,4.232,0,6.348
		L138.181,123.694z"/>
	<path d="M85.915,45.526c2.038,0,4.077,0,6.346,0c0,2.088,0,4.07,0,6.27c-1.937,0-3.917,0-6.253,0c0-2.127,0-4.244,0-6.362
		C86.007,45.433,85.915,45.526,85.915,45.526z"/>
	<path d="M73.047,25.672c0-2.069,0-3.977,0-6.079c2.101,0,4.086,0,6.239,0c0,2.005,0,3.916,0,6.079
		C77.351,25.672,75.367,25.672,73.047,25.672z"/>
	<path d="M60.119,19.534c2.117,0,4.026,0,6.11,0c0,2.035,0,3.946,0,6.123c-1.9,0-3.885,0-6.11,0
		C60.119,23.791,60.119,21.806,60.119,19.534z"/>
	<path d="M92.455,97.604c0,2.038,0,4.076,0,6.346c-2.088,0-4.07,0-6.27,0c0-1.936,0-3.916,0-6.253c2.127,0,4.244,0,6.362,0
		L92.455,97.604z"/>
	<path d="M79.329,6.622c0,2.025,0,3.933,0,6.049c-2.069,0-4.055,0-6.223,0c0-1.96,0-3.871,0-6.049
		C75.001,6.622,76.983,6.622,79.329,6.622z"/>
	<path d="M33.759,64.995c0,2.092,0,4.184,0,6.535c-2.351,0-4.442,0-6.533,0l0.096,0.089c0-2.204,0-4.408,0-6.613l-0.096,0.089
		c2.209-0.003,4.417-0.005,6.626-0.008L33.759,64.995z"/>
	<path d="M138.089,123.787c2.028,0,4.055,0,6.331,0c0,2.044,0,4.014,0,6.337c-2.068,0-4.257,0-6.451-0.003
		c-0.004-0.003,0.104,0.091,0.1,0.087c0.035-2.173,0.075-4.343,0.114-6.513C138.181,123.694,138.089,123.787,138.089,123.787z"/>
	<path d="M72.884,84.567c0,2.049,0,4.099,0,6.528c-2.266,0-4.397,0-6.528,0l0.096,0.089c0-2.204,0-4.408,0-6.613l-0.091,0.091
		c2.204,0,4.408,0,6.613,0L72.884,84.567z"/>
	<path style="fill:#FFFFFF;" d="M46.568,45.417c-10.795,0-21.317,0-32.088,0c0-10.743,0-21.421,0-32.319c10.624,0,21.301,0,32.088,0
		C46.568,23.888,46.568,34.64,46.568,45.417z M20.897,38.733c6.597,0,12.927,0,19.161,0c0-6.567,0-12.898,0-19.157
		c-6.516,0-12.769,0-19.161,0C20.897,26.002,20.897,32.254,20.897,38.733z"/>
	<path style="fill:#FFFFFF;" d="M105.767,13.024c10.836,0,21.436,0,32.207,0c0,10.744,0,21.345,0,32.204c-10.62,0-21.298,0-32.207,0
		C105.767,34.636,105.767,23.959,105.767,13.024z M112.3,19.535c0,6.623,0,12.954,0,19.276c6.495,0,12.747,0,19.14,0
		c0-6.485,0-12.813,0-19.276C125.005,19.535,118.753,19.535,112.3,19.535z"/>
	<path style="fill:#FFFFFF;" d="M46.705,104.348c0,10.798,0,21.398,0,32.221c-10.729,0-21.406,0-32.278,0
		c0-10.701,0-21.378,0-32.221C25.136,104.348,35.736,104.348,46.705,104.348z M40.144,130.123c0-6.633,0-12.885,0-19.215
		c-6.506,0-12.835,0-19.157,0c0,6.537,0,12.866,0,19.215C27.473,130.123,33.725,130.123,40.144,130.123z"/>
	<path style="fill:#FFFFFF;" d="M72.974,84.663c-2.204,0-4.408,0-6.613,0c0-2.04,0-4.081,0-6.454c-2.102,0-4.09,0-6.522,0
		c0-2.439,0-4.56,0-6.681c2.049,0,4.098,0,6.522,0c0-8.791,0-17.439,0-26.087c2.044,0,4.088,0,6.458,0c0,6.54,0,12.869,0,19.565
		c2.434,0,4.555,0,6.676,0c0,4.206,0,8.413,0,12.96c-2.184,0-4.176,0-6.522,0C72.974,80.417,72.974,82.54,72.974,84.663z"/>
	<path style="fill:#FFFFFF;" d="M27.321,65.007c0,2.204,0,4.408,0,6.613c-2.04,0-4.08,0-6.343,0c0-2.192,0-4.176,0-6.613
		C23.08,65.007,25.201,65.007,27.321,65.007z"/>
	<path style="fill:#FFFFFF;" d="M46.784,78.134c2.038,0,4.077,0,6.346,0c0,2.087,0,4.067,0,6.27c-1.937,0-3.917,0-6.253,0
		c0-2.127,0-4.245,0-6.362L46.784,78.134z"/>
	<path style="fill:#FFFFFF;" d="M66.452,84.572c0,2.204,0,4.408,0,6.613c-2.204,0-4.408,0-6.613,0c0-2.048,0-4.096,0-6.613
		C62.19,84.572,64.321,84.572,66.452,84.572z"/>
	<path style="fill:#FFFFFF;" d="M85.926,65.007c6.552,0,13.104,0,19.656,0c0,2.043,0,4.085,0,6.458c-4.364,0-8.523,0-13.043,0
		c0,2.437,0,4.556,0,6.676c-2.049,0-4.099,0-6.613,0C85.926,73.611,85.926,69.309,85.926,65.007z"/>
	<path d="M20.897,38.733c0-6.479,0-12.731,0-19.157c6.392,0,12.645,0,19.161,0c0,6.26,0,12.591,0,19.157
		C33.825,38.733,27.495,38.733,20.897,38.733z"/>
	<path d="M112.3,19.535c6.453,0,12.705,0,19.14,0c0,6.462,0,12.791,0,19.276c-6.393,0-12.645,0-19.14,0
		C112.3,32.488,112.3,26.158,112.3,19.535z"/>
	<path d="M40.144,130.123c-6.419,0-12.671,0-19.157,0c0-6.348,0-12.678,0-19.215c6.322,0,12.651,0,19.157,0
		C40.144,117.238,40.144,123.49,40.144,130.123z"/>
</g>
</svg>
