<?xml version="1.0" encoding="iso-8859-1"?>
<!-- Generator: Adobe Illustrator 18.0.0, SVG Export Plug-In . SVG Version: 6.00 Build 0)  -->
<!DOCTYPE svg PUBLIC "-//W3C//DTD SVG 1.1//EN" "http://www.w3.org/Graphics/SVG/1.1/DTD/svg11.dtd">
<svg version="1.1" id="Layer_1" xmlns="http://www.w3.org/2000/svg" xmlns:xlink="http://www.w3.org/1999/xlink" x="0px" y="0px"
	 viewBox="0 0 420 50" style="enable-background:new 0 0 420 50;" xml:space="preserve">
<g>
	<rect x="0" y="0" style="fill:none;" width="70" height="50"/>
	<g>
		<path style="opacity:0.3;fill:#231F20;" d="M53.975,19.405c-5.223-4.939-9.083-8.642-11.612-10.958
			c-1.791-1.64-2.974-1.809-3.592-1.809c-0.584,0-15.559,0-17.304,0c-1.742,0-2.701,0.325-3.592,1.809
			c-0.888,1.482-5.775,7.294-6.87,9.243c-7.25,1.509-8.312,2.89-8.312,5.046c0,1.222,0,9.289,0,9.289
			c0,1.166,2.923,4.229,4.038,4.229h1.815h0.608h0.005c-0.001,0.036-0.005,0.071-0.005,0.108c0,3.858,3.142,7,7,7
			c3.859,0,7-3.142,7-7c0-0.036-0.005-0.071-0.005-0.108h0.005h24.5h0.005c-0.001,0.036-0.005,0.071-0.005,0.108
			c0,3.858,3.142,7,7,7c3.859,0,7-3.142,7-7c0-0.036-0.005-0.071-0.005-0.108h0.005h2.493c0,0,3.16-3.336,3.16-4.229
			c0,0,0-6.367,0-7.589C67.307,22.372,63.059,21.194,53.975,19.405z"/>
		<g>
			<path style="fill:none;stroke:#FFFFFF;stroke-miterlimit:10;" d="M61.654,36.254h2.493c0,0,3.16-3.336,3.16-4.229
				c0,0,0-6.367,0-7.589c-0.001-2.064-4.248-3.243-13.332-5.031c-5.223-4.94-9.083-8.642-11.611-10.958
				c-1.791-1.64-2.975-1.809-3.592-1.809c-0.584,0-15.559,0-17.304,0c-1.742,0-2.701,0.325-3.592,1.809
				c-0.888,1.482-5.775,7.294-6.87,9.243c-7.25,1.509-8.312,2.89-8.312,5.046c0,1.222,0,9.289,0,9.289
				c0,1.166,2.923,4.229,4.038,4.229h1.815h0.608"/>
			<line style="fill:none;stroke:#FFFFFF;stroke-miterlimit:10;" x1="23.154" y1="36.254" x2="47.654" y2="36.254"/>
			<path style="fill:none;stroke:#FFFFFF;stroke-miterlimit:10;" d="M16.154,43.361c-3.858,0-7-3.142-7-7s3.142-7,7-7s7,3.142,7,7
				S20.013,43.361,16.154,43.361z"/>
			<path style="fill:none;stroke:#FFFFFF;stroke-miterlimit:10;" d="M54.654,43.361c-3.858,0-7-3.142-7-7s3.142-7,7-7s7,3.142,7,7
				S58.513,43.361,54.654,43.361z"/>
			<path style="fill:none;stroke:#FFFFFF;stroke-miterlimit:10;" d="M16.674,17.744c1.042-1.446,3.502-4.627,4.081-5.433
				c0.752-1.045,1.236-1.392,2.563-1.392c0.555,0,3.352,0,6.42,0v9.18c-6.204,0-11.751,0-12.451,0
				C16.06,20.1,15.481,19.398,16.674,17.744z"/>
			<path style="fill:none;stroke:#FFFFFF;stroke-miterlimit:10;" d="M16.154,39.945c-1.975,0-3.584-1.609-3.584-3.584
				c0-1.975,1.609-3.584,3.584-3.584s3.584,1.609,3.584,3.584C19.737,38.336,18.129,39.945,16.154,39.945z"/>
			<path style="fill:none;stroke:#FFFFFF;stroke-miterlimit:10;" d="M54.654,39.945c-1.975,0-3.584-1.609-3.584-3.584
				c0-1.975,1.609-3.584,3.584-3.584c1.975,0,3.584,1.609,3.584,3.584C58.237,38.336,56.629,39.945,54.654,39.945z"/>
			<path style="fill:none;stroke:#FFFFFF;stroke-miterlimit:10;" d="M29.492,20.1v-9.18c3.937,0,7.914,0,7.914,0
				c1.037,0,2.149,0.471,2.887,1.128c1.031,0.918,5.157,4.808,6.773,6.367c1.452,1.394,0.783,1.685-0.285,1.685
				C46.781,20.099,37.786,20.1,29.492,20.1z"/>
		</g>
	</g>
</g>
<g>
	<rect x="70" y="0" style="fill:none;" width="70" height="50"/>
	<g>
		<path style="fill:none;stroke:#FFFFFF;stroke-miterlimit:10;" d="M131.654,36.254h2.493c0,0,3.16-3.336,3.16-4.229
			c0,0,0-6.367,0-7.589c-0.001-2.064-4.248-3.243-13.332-5.031c-5.223-4.94-9.083-8.642-11.611-10.958
			c-1.791-1.64-2.975-1.809-3.592-1.809c-0.584,0-15.559,0-17.304,0c-1.742,0-2.701,0.325-3.592,1.809
			c-0.888,1.482-5.775,7.294-6.87,9.243c-7.25,1.509-8.312,2.89-8.312,5.046c0,1.222,0,9.289,0,9.289
			c0,1.166,2.923,4.229,4.038,4.229h1.815h0.608"/>
		<line style="fill:none;stroke:#FFFFFF;stroke-miterlimit:10;" x1="93.154" y1="36.254" x2="117.654" y2="36.254"/>
		<path style="fill:none;stroke:#FFFFFF;stroke-miterlimit:10;" d="M86.154,43.361c-3.858,0-7-3.142-7-7s3.142-7,7-7
			c3.858,0,7,3.142,7,7S90.013,43.361,86.154,43.361z"/>
		<path style="fill:none;stroke:#FFFFFF;stroke-miterlimit:10;" d="M124.654,43.361c-3.858,0-7-3.142-7-7s3.142-7,7-7
			c3.858,0,7,3.142,7,7S128.513,43.361,124.654,43.361z"/>
		<path style="fill:none;stroke:#FFFFFF;stroke-miterlimit:10;" d="M86.674,17.744c1.042-1.446,3.502-4.627,4.081-5.433
			c0.752-1.045,1.236-1.392,2.563-1.392c0.555,0,3.352,0,6.42,0v9.18c-6.204,0-11.751,0-12.451,0
			C86.06,20.1,85.481,19.398,86.674,17.744z"/>
		<path style="fill:none;stroke:#FFFFFF;stroke-miterlimit:10;" d="M86.154,39.945c-1.975,0-3.584-1.609-3.584-3.584
			c0-1.975,1.609-3.584,3.584-3.584c1.975,0,3.584,1.609,3.584,3.584C89.737,38.336,88.129,39.945,86.154,39.945z"/>
		<path style="fill:none;stroke:#FFFFFF;stroke-miterlimit:10;" d="M124.654,39.945c-1.975,0-3.584-1.609-3.584-3.584
			c0-1.975,1.609-3.584,3.584-3.584c1.975,0,3.584,1.609,3.584,3.584C128.237,38.336,126.629,39.945,124.654,39.945z"/>
		<path style="fill:none;stroke:#FFFFFF;stroke-miterlimit:10;" d="M99.492,20.1v-9.18c3.937,0,7.914,0,7.914,0
			c1.037,0,2.149,0.471,2.887,1.128c1.031,0.918,5.157,4.808,6.773,6.367c1.452,1.394,0.783,1.685-0.285,1.685
			C116.781,20.099,107.786,20.1,99.492,20.1z"/>
	</g>
</g>
<g>
	<rect x="140" y="0" style="fill:none;" width="70" height="50"/>
	<g>
		<path style="opacity:0.3;fill:#231F20;" d="M196.806,24.97c-0.833,0-1.636,0.127-2.394,0.359l-1.315-2.244
			c2.929-0.279,4.493-0.642,5.169-1.658c0.426-0.64,0.446-1.479,0.061-2.639c-0.906-2.735-10.209-8.141-14.393-9.638
			c-1.814-0.649-2.396-0.513-2.7-0.32c-0.265,0.168-0.429,0.42-0.473,0.729c-0.152,1.059,1.125,2.606,2.81,4.518
			c0.173,0.196,0.361,0.41,0.534,0.611c-0.16-0.072-0.325-0.148-0.484-0.222c-2.042-0.941-5.459-2.522-8.663-2.279
			c-4.094,0.305-5.848,4.097-6.307,5.311l-7.556-1.419l-1.4-3.485l-0.242-0.036c-1.112-0.165-10.921-1.541-12.904,1.065
			c-0.313,0.411-0.587,1.121-0.122,2.168c2.027,4.563,15.947,9.041,18.666,9.847l-1.995,5.751h-1.992
			c-0.928-3-4.119-6.261-7.913-6.261c-4.518,0-8.194,3.597-8.194,8.115s3.676,8.032,8.194,8.032c4.359,0,7.924-2.886,8.17-7.886
			h21.81l0.127-0.063c0.043-0.063,3.394-4.899,6.101-8.083l1.369,2.368c-1.336,1.458-2.159,3.409-2.159,5.538
			c0,4.518,3.676,8.202,8.194,8.202c4.518,0,8.194-3.672,8.194-8.19S201.324,24.97,196.806,24.97z"/>
		<line style="fill:none;stroke:#FFFFFF;stroke-miterlimit:10;" x1="191.235" y1="27.579" x2="189.521" y2="24.652"/>
		<line style="fill:none;stroke:#FFFFFF;stroke-miterlimit:10;" x1="192.428" y1="22.775" x2="194.122" y2="25.668"/>
		<path style="fill:none;stroke:#FFFFFF;stroke-miterlimit:10;" d="M160.356,31.888h3.043l2.248-6.497c0,0-16.685-4.849-18.83-9.677
			s12.573-2.686,12.573-2.686l1.396,3.451l8.147,1.518c0,0,1.517-5.041,6.057-5.379s9.717,3.184,10.115,2.835
			c0.398-0.349-5.245-5.249-3.643-6.262s15.435,6.638,16.459,9.731s-1.038,3.803-6.728,4.237
			c-2.669,2.214-8.246,10.729-8.246,10.729h-21.592"/>
		<circle style="fill:none;stroke:#FFFFFF;stroke-miterlimit:10;" cx="153.194" cy="33.163" r="7.767"/>
		<circle style="fill:none;stroke:#FFFFFF;stroke-miterlimit:10;" cx="153.194" cy="33.163" r="4.382"/>
		<circle style="fill:none;stroke:#FFFFFF;stroke-miterlimit:10;" cx="196.806" cy="33.163" r="7.767"/>
		<circle style="fill:none;stroke:#FFFFFF;stroke-miterlimit:10;" cx="196.806" cy="33.163" r="4.382"/>
	</g>
</g>
<g>
	<rect x="210" y="0" style="fill:none;" width="70" height="50"/>
	<g>
		<line style="fill:none;stroke:#FFFFFF;stroke-miterlimit:10;" x1="261.469" y1="27.612" x2="259.73" y2="24.643"/>
		<line style="fill:none;stroke:#FFFFFF;stroke-miterlimit:10;" x1="262.679" y1="22.739" x2="264.398" y2="25.674"/>
		<path style="fill:none;stroke:#FFFFFF;stroke-miterlimit:10;" d="M231.356,31.888h1.876l2.281-6.548
			c0,0-16.926-4.898-19.101-9.795s12.754-2.714,12.754-2.714l1.416,3.506l8.264,1.543c0,0,1.539-5.113,6.144-5.455
			s9.857,3.231,10.261,2.877c0.404-0.354-5.32-5.325-3.696-6.352c1.625-1.028,15.658,6.734,16.697,9.872
			c1.039,3.138-1.053,3.8-6.825,4.241c-2.708,2.246-8.365,10.826-8.365,10.826h-21.707"/>
		<circle style="fill:none;stroke:#FFFFFF;stroke-miterlimit:10;" cx="222.879" cy="33.268" r="7.879"/>
		<circle style="fill:none;stroke:#FFFFFF;stroke-miterlimit:10;" cx="222.879" cy="33.268" r="4.445"/>
		<circle style="fill:none;stroke:#FFFFFF;stroke-miterlimit:10;" cx="267.121" cy="33.268" r="7.879"/>
		<circle style="fill:none;stroke:#FFFFFF;stroke-miterlimit:10;" cx="267.121" cy="33.268" r="4.445"/>
	</g>
</g>
<g>
	<rect x="350" y="0" style="fill:none;" width="70" height="50"/>
	<g>
		<path style="fill:none;stroke:#FFFFFF;stroke-miterlimit:10;" d="M395.83,29.627h-39.054c-0.773,0-1.4-0.627-1.4-1.4V8.462
			c0-0.773,0.627-1.4,1.4-1.4h37.654c0.773,0,1.4,0.627,1.4,1.4V29.627z"/>
		<path style="fill:none;stroke:#FFFFFF;stroke-miterlimit:10;" d="M367.418,36.521h-1.521c-3.807,0-6.894-3.087-6.894-6.894v0
			h36.827v6.894h-19.356"/>
		<circle style="fill:none;stroke:#FFFFFF;stroke-miterlimit:10;" cx="371.837" cy="38.154" r="4.783"/>
		<path style="fill:none;stroke:#FFFFFF;stroke-miterlimit:10;" d="M401.849,36.521h-6.019V15.229h11.631
			c0.492,0,0.949,0.259,1.201,0.681l5.763,9.633c0.13,0.217,0.199,0.466,0.199,0.719v8.859c0,0.773-0.627,1.4-1.4,1.4h-2.406"/>
		<circle style="fill:none;stroke:#FFFFFF;stroke-miterlimit:10;" cx="406.137" cy="38.154" r="4.783"/>
		<path style="fill:none;stroke:#FFFFFF;stroke-miterlimit:10;" d="M409.506,26.087h-10.106c-0.387,0-0.7-0.313-0.7-0.7v-5.775
			c0-0.387,0.313-0.7,0.7-0.7h6.625c0.245,0,0.473,0.128,0.599,0.339l3.482,5.775C410.386,25.493,410.05,26.087,409.506,26.087z"/>
	</g>
</g>
<g>
	<rect x="280" y="0" style="fill:none;" width="70" height="50"/>
	<g>
		<path style="opacity:0.3;fill:#231F20;" d="M344.292,25.543l-5.696-9.553c-0.253-0.423-0.642-0.602-1.135-0.602h-12.105V8.462
			c0-0.773-0.153-1.075-0.926-1.075h-37.654c-0.773,0-1.42,0.301-1.42,1.075v19.764c0,0.773,0.647,1.161,1.42,1.161h2.227
			c0,4,3.086,7,6.894,7h1.461c-0.187,1-0.305,1.123-0.305,1.7c0,2.642,2.142,4.817,4.783,4.817c2.642,0,4.783-2.191,4.783-4.833
			c0-0.576-0.118-0.683-0.305-1.683h0.159h19.356h5.828c-0.187,1-0.305,1.123-0.305,1.7c0,2.642,2.142,4.817,4.783,4.817
			s4.783-2.191,4.783-4.833c0-0.576-0.118-0.683-0.305-1.683h0.203h2.406c0.773,0,1.132-0.494,1.132-1.267v-8.859
			C344.356,26.009,344.422,25.76,344.292,25.543z"/>
		<path style="fill:none;stroke:#FFFFFF;stroke-miterlimit:10;" d="M325.83,29.627h-39.054c-0.773,0-1.4-0.627-1.4-1.4V8.462
			c0-0.773,0.627-1.4,1.4-1.4h37.654c0.773,0,1.4,0.627,1.4,1.4V29.627z"/>
		<path style="fill:none;stroke:#FFFFFF;stroke-miterlimit:10;" d="M297.418,36.521h-1.521c-3.807,0-6.894-3.087-6.894-6.894v0
			h36.827v6.894h-19.356"/>
		<circle style="fill:none;stroke:#FFFFFF;stroke-miterlimit:10;" cx="301.837" cy="38.154" r="4.783"/>
		<path style="fill:none;stroke:#FFFFFF;stroke-miterlimit:10;" d="M331.849,36.521h-6.019V15.229h11.631
			c0.492,0,0.949,0.259,1.201,0.681l5.763,9.633c0.13,0.217,0.199,0.466,0.199,0.719v8.859c0,0.773-0.627,1.4-1.4,1.4h-2.406"/>
		<circle style="fill:none;stroke:#FFFFFF;stroke-miterlimit:10;" cx="336.137" cy="38.154" r="4.783"/>
		<path style="fill:none;stroke:#FFFFFF;stroke-miterlimit:10;" d="M339.506,26.087h-10.106c-0.387,0-0.7-0.313-0.7-0.7v-5.775
			c0-0.387,0.313-0.7,0.7-0.7h6.625c0.245,0,0.473,0.128,0.599,0.339l3.482,5.775C340.386,25.493,340.05,26.087,339.506,26.087z"/>
	</g>
</g>
</svg>
