<!DOCTYPE svg PUBLIC "-//W3C//DTD SVG 1.1//EN" "http://www.w3.org/Graphics/SVG/1.1/DTD/svg11.dtd">
<svg version="1.1" id="Layer_1" xmlns="http://www.w3.org/2000/svg" xmlns:xlink="http://www.w3.org/1999/xlink" x="0px" y="0px"
	 viewBox="0 0 420 50" style="enable-background:new 0 0 420 50;" xml:space="preserve">
<g>
	<rect x="0" y="0" style="fill:none;" width="70" height="50"/>
	<g>
		<g style="opacity:0.3;">
			<path style="fill:#231F20;" d="M53.975,19.405c-5.223-4.939-9.083-8.642-11.612-10.958c-1.791-1.64-2.974-1.809-3.592-1.809
				c-0.584,0-15.559,0-17.304,0c-1.742,0-2.701,0.325-3.592,1.809c-0.888,1.482-5.775,7.294-6.87,9.243
				c-7.25,1.509-8.312,2.89-8.312,5.046c0,1.222,0,9.289,0,9.289c0,1.166,2.923,4.229,4.038,4.229h1.815h0.608h0.005
				c-0.001,0.036-0.005,0.071-0.005,0.108c0,3.858,3.142,7,7,7c3.859,0,7-3.142,7-7c0-0.036-0.005-0.071-0.005-0.108h0.005h24.5
				h0.005c-0.001,0.036-0.005,0.071-0.005,0.108c0,3.858,3.142,7,7,7c3.859,0,7-3.142,7-7c0-0.036-0.005-0.071-0.005-0.108h0.005
				h2.493c0,0,3.16-3.336,3.16-4.229c0,0,0-6.367,0-7.589C67.307,22.372,63.059,21.194,53.975,19.405z"/>
		</g>
		<g>
			<g>
				<path style="fill:#FFFFFF;" d="M64.362,36.754h-2.708v-1h2.277c1.381-1.477,2.833-3.285,2.876-3.735v-7.583
					c-0.001-1.845-5.856-3.148-12.929-4.541l-0.142-0.028l-0.105-0.099c-1.632-1.544-3.131-2.967-4.499-4.265
					c-3.001-2.848-5.372-5.098-7.107-6.688c-1.215-1.113-2.31-1.677-3.254-1.677H21.467c-1.725,0-2.434,0.351-3.164,1.566
					c-0.409,0.682-1.558,2.151-2.888,3.852c-1.586,2.027-3.383,4.325-3.975,5.379l-0.111,0.198l-0.223,0.046
					c-7.346,1.528-7.914,2.852-7.914,4.556v9.29c0,0.871,2.712,3.729,3.539,3.729h2.422v1H6.731c-1.4,0-4.539-3.27-4.539-4.729
					v-9.29c0-2.498,1.278-3.965,8.493-5.489c0.708-1.171,2.351-3.271,3.942-5.306c1.255-1.605,2.441-3.121,2.818-3.75
					c1.036-1.725,2.212-2.051,4.021-2.051h17.304c1.219,0,2.504,0.635,3.93,1.94c1.742,1.595,4.115,3.848,7.12,6.7
					c1.337,1.27,2.801,2.659,4.393,4.164c9.583,1.891,13.593,3.08,13.594,5.494v7.589c0,0.985-2.306,3.526-3.298,4.572
					L64.362,36.754z"/>
			</g>
			<g>
				<rect x="23.154" y="35.754" style="fill:#FFFFFF;" width="24.5" height="1"/>
			</g>
			<g>
				<path style="fill:#FFFFFF;" d="M16.154,43.862c-4.136,0-7.5-3.364-7.5-7.5s3.364-7.5,7.5-7.5s7.5,3.364,7.5,7.5
					S20.289,43.862,16.154,43.862z M16.154,29.862c-3.584,0-6.5,2.916-6.5,6.5s2.916,6.5,6.5,6.5s6.5-2.916,6.5-6.5
					S19.738,29.862,16.154,29.862z"/>
			</g>
			<g>
				<path style="fill:#FFFFFF;" d="M54.654,43.862c-4.136,0-7.5-3.364-7.5-7.5s3.364-7.5,7.5-7.5s7.5,3.364,7.5,7.5
					S58.789,43.862,54.654,43.862z M54.654,29.862c-3.584,0-6.5,2.916-6.5,6.5s2.916,6.5,6.5,6.5s6.5-2.916,6.5-6.5
					S58.238,29.862,54.654,29.862z"/>
			</g>
			<g>
				<path style="fill:#FFFFFF;" d="M30.238,20.599H17.286c-1.023,0-1.451-0.417-1.629-0.766c-0.305-0.596-0.099-1.397,0.612-2.382
					c0.59-0.82,1.636-2.196,2.538-3.383c0.688-0.906,1.292-1.701,1.542-2.049c0.797-1.106,1.415-1.6,2.97-1.6h6.919V20.599z
					 M17.286,19.599h11.952v-8.18h-5.919c-1.143,0-1.487,0.252-2.158,1.184c-0.253,0.352-0.863,1.156-1.558,2.071
					c-0.896,1.18-1.936,2.548-2.523,3.363c-0.527,0.729-0.616,1.179-0.533,1.341C16.601,19.485,16.824,19.599,17.286,19.599z"/>
			</g>
			<g>
				<path style="fill:#FFFFFF;" d="M16.154,40.445c-2.251,0-4.083-1.832-4.083-4.083c0-2.252,1.832-4.084,4.083-4.084
					s4.083,1.832,4.083,4.084C20.237,38.613,18.405,40.445,16.154,40.445z M16.154,33.278c-1.7,0-3.083,1.383-3.083,3.084
					c0,1.7,1.383,3.083,3.083,3.083s3.083-1.383,3.083-3.083C19.237,34.661,17.854,33.278,16.154,33.278z"/>
			</g>
			<g>
				<path style="fill:#FFFFFF;" d="M54.654,40.445c-2.251,0-4.083-1.832-4.083-4.083c0-2.252,1.832-4.084,4.083-4.084
					s4.083,1.832,4.083,4.084C58.737,38.613,56.905,40.445,54.654,40.445z M54.654,33.278c-1.7,0-3.083,1.383-3.083,3.084
					c0,1.7,1.383,3.083,3.083,3.083s3.083-1.383,3.083-3.083C57.737,34.661,56.354,33.278,54.654,33.278z"/>
			</g>
			<g>
				<path style="fill:#FFFFFF;" d="M29.492,20.6h-0.5V10.419h8.414c1.117,0,2.351,0.48,3.22,1.254
					c1.072,0.955,5.22,4.869,6.788,6.381c0.566,0.544,1.185,1.252,0.927,1.892c-0.232,0.578-0.956,0.652-1.56,0.652L29.492,20.6z
					 M29.992,11.419V19.6l16.789,0c0.318,0,0.494-0.029,0.586-0.054c-0.059-0.118-0.218-0.357-0.647-0.77
					c-1.563-1.509-5.695-5.406-6.759-6.355c-0.683-0.608-1.686-1.001-2.555-1.001H29.992z"/>
			</g>
		</g>
	</g>
</g>
<g>
	<rect x="70" y="0" style="fill:none;" width="70" height="50"/>
	<g>
		<g>
			<path style="fill:#FFFFFF;" d="M134.362,36.754h-2.708v-1h2.277c1.381-1.477,2.833-3.285,2.876-3.735v-7.583
				c-0.001-1.845-5.856-3.148-12.929-4.541l-0.142-0.028l-0.105-0.099c-1.632-1.544-3.131-2.967-4.499-4.265
				c-3.001-2.848-5.372-5.098-7.107-6.688c-1.215-1.113-2.31-1.677-3.254-1.677H91.467c-1.725,0-2.434,0.351-3.164,1.566
				c-0.409,0.682-1.558,2.151-2.888,3.852c-1.586,2.027-3.383,4.325-3.975,5.379l-0.111,0.198l-0.223,0.046
				c-7.346,1.528-7.914,2.852-7.914,4.556v9.29c0,0.871,2.712,3.729,3.539,3.729h2.422v1h-2.422c-1.4,0-4.539-3.27-4.539-4.729
				v-9.29c0-2.498,1.278-3.965,8.493-5.489c0.708-1.171,2.351-3.271,3.942-5.306c1.255-1.605,2.441-3.121,2.818-3.75
				c1.036-1.725,2.212-2.051,4.021-2.051h17.304c1.219,0,2.504,0.635,3.93,1.94c1.742,1.595,4.115,3.848,7.12,6.7
				c1.337,1.27,2.801,2.659,4.393,4.164c9.583,1.891,13.593,3.08,13.594,5.494v7.589c0,0.985-2.306,3.526-3.298,4.572
				L134.362,36.754z"/>
		</g>
		<g>
			<rect x="93.154" y="35.754" style="fill:#FFFFFF;" width="24.5" height="1"/>
		</g>
		<g>
			<path style="fill:#FFFFFF;" d="M86.154,43.862c-4.136,0-7.5-3.364-7.5-7.5s3.364-7.5,7.5-7.5s7.5,3.364,7.5,7.5
				S90.289,43.862,86.154,43.862z M86.154,29.862c-3.584,0-6.5,2.916-6.5,6.5s2.916,6.5,6.5,6.5s6.5-2.916,6.5-6.5
				S89.738,29.862,86.154,29.862z"/>
		</g>
		<g>
			<path style="fill:#FFFFFF;" d="M124.654,43.862c-4.136,0-7.5-3.364-7.5-7.5s3.364-7.5,7.5-7.5c4.136,0,7.5,3.364,7.5,7.5
				S128.789,43.862,124.654,43.862z M124.654,29.862c-3.584,0-6.5,2.916-6.5,6.5s2.916,6.5,6.5,6.5c3.584,0,6.5-2.916,6.5-6.5
				S128.238,29.862,124.654,29.862z"/>
		</g>
		<g>
			<path style="fill:#FFFFFF;" d="M100.238,20.599H87.286c-1.023,0-1.451-0.417-1.629-0.766c-0.305-0.596-0.099-1.397,0.612-2.382
				c0.59-0.82,1.636-2.196,2.538-3.383c0.688-0.906,1.292-1.701,1.542-2.049c0.797-1.106,1.415-1.6,2.97-1.6h6.92V20.599z
				 M87.286,19.599h11.953v-8.18h-5.92c-1.143,0-1.487,0.252-2.158,1.184c-0.253,0.352-0.863,1.156-1.558,2.071
				c-0.896,1.18-1.936,2.548-2.523,3.363c-0.527,0.729-0.616,1.179-0.533,1.341C86.601,19.485,86.824,19.599,87.286,19.599z"/>
		</g>
		<g>
			<path style="fill:#FFFFFF;" d="M86.154,40.445c-2.251,0-4.083-1.832-4.083-4.083c0-2.252,1.832-4.084,4.083-4.084
				s4.083,1.832,4.083,4.084C90.237,38.613,88.405,40.445,86.154,40.445z M86.154,33.278c-1.7,0-3.083,1.383-3.083,3.084
				c0,1.7,1.383,3.083,3.083,3.083s3.083-1.383,3.083-3.083C89.237,34.661,87.854,33.278,86.154,33.278z"/>
		</g>
		<g>
			<path style="fill:#FFFFFF;" d="M124.654,40.445c-2.251,0-4.083-1.832-4.083-4.083c0-2.252,1.832-4.084,4.083-4.084
				s4.083,1.832,4.083,4.084C128.737,38.613,126.905,40.445,124.654,40.445z M124.654,33.278c-1.7,0-3.083,1.383-3.083,3.084
				c0,1.7,1.383,3.083,3.083,3.083s3.083-1.383,3.083-3.083C127.737,34.661,126.354,33.278,124.654,33.278z"/>
		</g>
		<g>
			<path style="fill:#FFFFFF;" d="M99.493,20.6h-0.5V10.419h8.414c1.116,0,2.35,0.48,3.219,1.254
				c1.072,0.955,5.22,4.869,6.788,6.381c0.566,0.544,1.185,1.252,0.927,1.892c-0.232,0.578-0.956,0.652-1.56,0.652L99.493,20.6z
				 M99.993,11.419V19.6l16.789,0c0.318,0,0.494-0.029,0.586-0.054c-0.059-0.118-0.218-0.357-0.647-0.77
				c-1.563-1.509-5.695-5.406-6.759-6.355c-0.683-0.608-1.686-1.001-2.554-1.001H99.993z"/>
		</g>
	</g>
</g>
<g>
	<rect x="140" y="0" style="fill:none;" width="70" height="50"/>
	<g>
		<g style="opacity:0.3;">
			<path style="fill:#231F20;" d="M196.806,24.97c-0.833,0-1.636,0.127-2.394,0.359l-1.315-2.244
				c2.929-0.279,4.493-0.642,5.169-1.658c0.426-0.64,0.446-1.479,0.061-2.639c-0.906-2.735-10.209-8.141-14.393-9.638
				c-1.814-0.649-2.396-0.513-2.7-0.32c-0.265,0.168-0.429,0.42-0.473,0.729c-0.152,1.059,1.125,2.606,2.81,4.518
				c0.173,0.196,0.361,0.41,0.534,0.611c-0.16-0.072-0.325-0.148-0.484-0.222c-2.042-0.941-5.459-2.522-8.663-2.279
				c-4.094,0.305-5.848,4.097-6.307,5.311l-7.556-1.419l-1.4-3.485l-0.242-0.036c-1.112-0.165-10.921-1.541-12.904,1.065
				c-0.313,0.411-0.587,1.121-0.122,2.168c2.027,4.563,15.947,9.041,18.666,9.847l-1.995,5.751h-1.992
				c-0.928-3-4.119-6.261-7.913-6.261c-4.518,0-8.194,3.597-8.194,8.115s3.676,8.032,8.194,8.032c4.359,0,7.924-2.886,8.17-7.886
				h21.81l0.127-0.063c0.043-0.063,3.394-4.899,6.101-8.083l1.369,2.368c-1.336,1.458-2.159,3.409-2.159,5.538
				c0,4.518,3.676,8.202,8.194,8.202c4.518,0,8.194-3.672,8.194-8.19S201.324,24.97,196.806,24.97z"/>
		</g>
		<g>
			
				<rect x="188.682" y="25.615" transform="matrix(0.5055 0.8628 -0.8628 0.5055 116.6809 -151.3512)" style="fill:#FFFFFF;" width="3.393" height="1.001"/>
		</g>
		<g>
			
				<rect x="191.598" y="23.722" transform="matrix(0.5054 0.8629 -0.8629 0.5054 116.502 -154.7969)" style="fill:#FFFFFF;" width="3.353" height="1"/>
		</g>
		<g>
			<path style="fill:#FFFFFF;" d="M183.218,34.388h-21.862v-1h21.322c0.924-1.397,5.715-8.555,8.197-10.614l0.123-0.102l0.159-0.012
				c3.311-0.253,5.649-0.623,6.301-1.602c0.186-0.278,0.386-0.786-0.009-1.979c-0.617-1.862-7.197-6.162-12.151-8.375
				c-2.958-1.322-3.568-1.088-3.575-1.086c-0.146,0.792,1.604,2.78,2.545,3.848c1.074,1.22,1.383,1.588,1.358,1.975l-0.014,0.207
				l-0.176,0.182c-0.372,0.325-0.834,0.112-2.202-0.518c-1.961-0.903-5.235-2.413-8.207-2.195c-4.148,0.309-5.6,4.978-5.614,5.025
				l-0.129,0.43l-8.857-1.65l-1.391-3.438c-4.02-0.553-10.531-0.81-11.747,0.793c-0.152,0.201-0.319,0.547-0.014,1.235
				c2.026,4.562,18.348,9.352,18.513,9.4l0.505,0.146l-2.537,7.331h-3.399v-1h2.688l1.961-5.667
				c-2.875-0.872-16.621-5.25-18.644-9.804c-0.479-1.081-0.194-1.817,0.131-2.245c2.007-2.649,11.854-1.303,12.971-1.139
				l0.284,0.041l1.401,3.463l7.457,1.39c0.496-1.285,2.274-5.005,6.348-5.308c3.216-0.243,6.65,1.339,8.699,2.284
				c0.06,0.027,0.119,0.055,0.179,0.082c-0.106-0.121-0.213-0.243-0.314-0.358c-1.698-1.927-2.984-3.488-2.828-4.578
				c0.047-0.331,0.223-0.601,0.507-0.78c0.317-0.201,0.919-0.347,2.765,0.313c4.195,1.501,13.524,6.931,14.436,9.683
				c0.4,1.208,0.365,2.139-0.107,2.848c-0.875,1.314-3.102,1.735-6.895,2.032c-2.628,2.292-7.974,10.434-8.028,10.517
				L183.218,34.388z"/>
		</g>
		<g>
			<path style="fill:#FFFFFF;" d="M153.194,41.43c-4.559,0-8.267-3.708-8.267-8.267s3.708-8.267,8.267-8.267
				s8.267,3.708,8.267,8.267S157.752,41.43,153.194,41.43z M153.194,25.896c-4.007,0-7.267,3.26-7.267,7.267s3.26,7.267,7.267,7.267
				s7.267-3.26,7.267-7.267S157.201,25.896,153.194,25.896z"/>
		</g>
		<g>
			<path style="fill:#FFFFFF;" d="M153.194,38.045c-2.692,0-4.882-2.19-4.882-4.882s2.19-4.882,4.882-4.882
				c2.691,0,4.881,2.19,4.881,4.882S155.885,38.045,153.194,38.045z M153.194,29.281c-2.141,0-3.882,1.741-3.882,3.882
				s1.741,3.882,3.882,3.882c2.14,0,3.881-1.741,3.881-3.882S155.334,29.281,153.194,29.281z"/>
		</g>
		<g>
			<path style="fill:#FFFFFF;" d="M196.806,41.43c-4.559,0-8.267-3.708-8.267-8.267s3.708-8.267,8.267-8.267
				s8.268,3.708,8.268,8.267S201.365,41.43,196.806,41.43z M196.806,25.896c-4.007,0-7.267,3.26-7.267,7.267s3.26,7.267,7.267,7.267
				s7.268-3.26,7.268-7.267S200.813,25.896,196.806,25.896z"/>
		</g>
		<g>
			<path style="fill:#FFFFFF;" d="M196.806,38.045c-2.691,0-4.881-2.19-4.881-4.882s2.19-4.882,4.881-4.882
				c2.692,0,4.882,2.19,4.882,4.882S199.498,38.045,196.806,38.045z M196.806,29.281c-2.14,0-3.881,1.741-3.881,3.882
				s1.741,3.882,3.881,3.882c2.141,0,3.882-1.741,3.882-3.882S198.947,29.281,196.806,29.281z"/>
		</g>
	</g>
</g>
<g>
	<rect x="210" y="0" style="fill:none;" width="70" height="50"/>
	<g>
		<g>
			
				<rect x="258.879" y="25.627" transform="matrix(0.5054 0.8629 -0.8629 0.5054 151.4289 -211.9412)" style="fill:#FFFFFF;" width="3.441" height="1.001"/>
		</g>
		<g>
			
				<rect x="261.838" y="23.706" transform="matrix(0.5055 0.8628 -0.8628 0.5055 151.195 -215.4128)" style="fill:#FFFFFF;" width="3.402" height="1.001"/>
		</g>
		<g>
			<path style="fill:#FFFFFF;" d="M253.333,34.388h-21.977v-1h21.438c0.933-1.401,5.796-8.623,8.314-10.711l0.123-0.102l0.158-0.012
				c3.475-0.266,5.758-0.625,6.404-1.596c0.185-0.277,0.383-0.785-0.016-1.989c-0.638-1.924-7.379-6.312-12.45-8.553
				c-2.911-1.287-3.506-1.053-3.513-1.049c-0.033,0.021-0.042,0.04-0.048,0.079c-0.105,0.734,1.672,2.751,2.627,3.836
				c1.088,1.235,1.401,1.609,1.376,1.998l-0.014,0.207l-0.177,0.182c-0.371,0.328-0.838,0.112-2.226-0.527
				c-1.989-0.917-5.33-2.448-8.327-2.228c-4.2,0.313-5.688,5.054-5.703,5.102l-0.13,0.429l-8.975-1.675l-1.41-3.493
				c-4.08-0.564-10.691-0.83-11.928,0.798c-0.155,0.205-0.325,0.558-0.014,1.259c2.056,4.63,18.616,9.469,18.783,9.518l0.507,0.147
				l-2.571,7.381h-2.231v-1h1.521l1.992-5.718c-2.904-0.877-16.862-5.301-18.914-9.922c-0.485-1.093-0.196-1.837,0.132-2.27
				c2.033-2.683,12.021-1.309,13.151-1.143l0.284,0.042l1.421,3.518l7.574,1.414c0.499-1.296,2.302-5.076,6.437-5.384
				c3.257-0.249,6.741,1.359,8.82,2.316c0.069,0.032,0.141,0.064,0.212,0.097c-0.115-0.131-0.231-0.263-0.341-0.388
				c-1.722-1.954-3.025-3.536-2.867-4.638c0.048-0.333,0.225-0.605,0.511-0.787c0.321-0.204,0.929-0.351,2.795,0.317
				c4.255,1.521,13.719,7.026,14.645,9.819c0.408,1.232,0.376,2.141-0.102,2.858c-0.867,1.303-3.132,1.724-6.998,2.026
				c-2.667,2.322-8.093,10.532-8.148,10.616L253.333,34.388z"/>
		</g>
		<g>
			<path style="fill:#FFFFFF;" d="M222.879,41.647c-4.62,0-8.379-3.759-8.379-8.379c0-4.62,3.759-8.379,8.379-8.379
				c4.621,0,8.38,3.759,8.38,8.379C231.259,37.888,227.5,41.647,222.879,41.647z M222.879,25.889c-4.068,0-7.379,3.31-7.379,7.379
				s3.311,7.379,7.379,7.379c4.069,0,7.38-3.311,7.38-7.379S226.948,25.889,222.879,25.889z"/>
		</g>
		<g>
			<path style="fill:#FFFFFF;" d="M222.879,38.213c-2.727,0-4.944-2.218-4.944-4.945s2.218-4.945,4.944-4.945
				s4.945,2.218,4.945,4.945S225.605,38.213,222.879,38.213z M222.879,29.323c-2.175,0-3.944,1.77-3.944,3.945
				s1.77,3.945,3.944,3.945c2.176,0,3.945-1.77,3.945-3.945S225.055,29.323,222.879,29.323z"/>
		</g>
		<g>
			<path style="fill:#FFFFFF;" d="M267.121,41.647c-4.62,0-8.379-3.759-8.379-8.379c0-4.62,3.759-8.379,8.379-8.379
				s8.379,3.759,8.379,8.379C275.5,37.888,271.741,41.647,267.121,41.647z M267.121,25.889c-4.068,0-7.379,3.31-7.379,7.379
				s3.311,7.379,7.379,7.379s7.379-3.311,7.379-7.379S271.189,25.889,267.121,25.889z"/>
		</g>
		<g>
			<path style="fill:#FFFFFF;" d="M267.121,38.213c-2.727,0-4.945-2.218-4.945-4.945s2.219-4.945,4.945-4.945
				s4.944,2.218,4.944,4.945S269.848,38.213,267.121,38.213z M267.121,29.323c-2.176,0-3.945,1.77-3.945,3.945
				s1.77,3.945,3.945,3.945c2.175,0,3.944-1.77,3.944-3.945S269.296,29.323,267.121,29.323z"/>
		</g>
	</g>
</g>
<g>
	<rect x="350" y="0" style="fill:none;" width="70" height="50"/>
	<g>
		<g>
			<path style="fill:#FFFFFF;" d="M396.33,30.127h-39.554c-1.048,0-1.9-0.852-1.9-1.9V8.463c0-1.047,0.853-1.9,1.9-1.9h37.654
				c1.047,0,1.899,0.853,1.899,1.9V30.127z M356.776,7.563c-0.496,0-0.9,0.404-0.9,0.9v19.764c0,0.496,0.404,0.9,0.9,0.9h38.554
				V8.463c0-0.496-0.403-0.9-0.899-0.9H356.776z"/>
		</g>
		<g>
			<path style="fill:#FFFFFF;" d="M396.33,37.021h-19.856v-1h18.856v-5.894h-35.808c0.256,3.293,3.018,5.894,6.375,5.894h1.521v1
				h-1.521c-4.077,0-7.395-3.317-7.395-7.394v-0.5h37.827V37.021z"/>
		</g>
		<g>
			<path style="fill:#FFFFFF;" d="M371.837,43.438c-2.913,0-5.283-2.37-5.283-5.284c0-2.913,2.37-5.283,5.283-5.283
				s5.283,2.37,5.283,5.283C377.12,41.068,374.75,43.438,371.837,43.438z M371.837,33.871c-2.361,0-4.283,1.921-4.283,4.283
				s1.922,4.284,4.283,4.284s4.283-1.922,4.283-4.284S374.198,33.871,371.837,33.871z"/>
		</g>
		<g>
			<path style="fill:#FFFFFF;" d="M413.224,37.021h-2.405v-1h2.405c0.496,0,0.9-0.404,0.9-0.9v-8.859
				c0-0.163-0.044-0.323-0.127-0.462l-5.763-9.632c-0.162-0.27-0.458-0.438-0.773-0.438H396.33v20.292h5.52v1h-6.52V14.729h12.131
				c0.665,0,1.29,0.354,1.631,0.924l5.763,9.633c0.177,0.295,0.27,0.632,0.27,0.976v8.859
				C415.124,36.169,414.271,37.021,413.224,37.021z"/>
		</g>
		<g>
			<path style="fill:#FFFFFF;" d="M406.137,43.438c-2.913,0-5.283-2.37-5.283-5.284c0-2.913,2.37-5.283,5.283-5.283
				s5.283,2.37,5.283,5.283C411.42,41.068,409.05,43.438,406.137,43.438z M406.137,33.871c-2.361,0-4.283,1.921-4.283,4.283
				s1.922,4.284,4.283,4.284s4.283-1.922,4.283-4.284S408.498,33.871,406.137,33.871z"/>
		</g>
		<g>
			<path style="fill:#FFFFFF;" d="M409.506,26.588h-10.106c-0.662,0-1.2-0.539-1.2-1.2v-5.775c0-0.662,0.538-1.2,1.2-1.2h6.625
				c0.417,0,0.812,0.222,1.027,0.58l3.481,5.775c0.227,0.376,0.233,0.828,0.018,1.21S409.944,26.588,409.506,26.588z
				 M399.399,19.412c-0.11,0-0.2,0.09-0.2,0.2v5.775c0,0.11,0.09,0.2,0.2,0.2h10.106c0.102,0,0.152-0.063,0.174-0.102
				s0.05-0.115-0.003-0.202l-3.48-5.774c-0.036-0.06-0.103-0.097-0.172-0.097H399.399z"/>
		</g>
	</g>
</g>
<g>
	<rect x="280" y="0" style="fill:none;" width="70" height="50"/>
	<g>
		<g style="opacity:0.3;">
			<path style="fill:#231F20;" d="M344.292,25.543l-5.696-9.553c-0.253-0.423-0.642-0.602-1.135-0.602h-12.105V8.462
				c0-0.773-0.153-1.075-0.926-1.075h-37.654c-0.773,0-1.42,0.301-1.42,1.075v19.764c0,0.773,0.647,1.161,1.42,1.161h2.227
				c0,4,3.086,7,6.894,7h1.461c-0.187,1-0.305,1.123-0.305,1.7c0,2.642,2.142,4.817,4.783,4.817c2.642,0,4.783-2.191,4.783-4.833
				c0-0.576-0.118-0.683-0.305-1.683h0.159h19.356h5.828c-0.187,1-0.305,1.123-0.305,1.7c0,2.642,2.142,4.817,4.783,4.817
				s4.783-2.191,4.783-4.833c0-0.576-0.118-0.683-0.305-1.683h0.203h2.406c0.773,0,1.132-0.494,1.132-1.267v-8.859
				C344.356,26.009,344.422,25.76,344.292,25.543z"/>
		</g>
		<g>
			<path style="fill:#FFFFFF;" d="M326.33,30.127h-39.554c-1.048,0-1.9-0.852-1.9-1.9V8.463c0-1.047,0.853-1.9,1.9-1.9h37.654
				c1.047,0,1.899,0.853,1.899,1.9V30.127z M286.776,7.563c-0.496,0-0.9,0.404-0.9,0.9v19.764c0,0.496,0.404,0.9,0.9,0.9h38.554
				V8.463c0-0.496-0.403-0.9-0.899-0.9H286.776z"/>
		</g>
		<g>
			<path style="fill:#FFFFFF;" d="M326.33,37.021h-19.856v-1h18.856v-5.894h-35.808c0.256,3.293,3.018,5.894,6.375,5.894h1.521v1
				h-1.521c-4.077,0-7.395-3.317-7.395-7.394v-0.5h37.827V37.021z"/>
		</g>
		<g>
			<path style="fill:#FFFFFF;" d="M301.837,43.438c-2.913,0-5.283-2.37-5.283-5.284c0-2.913,2.37-5.283,5.283-5.283
				s5.283,2.37,5.283,5.283C307.12,41.068,304.75,43.438,301.837,43.438z M301.837,33.871c-2.361,0-4.283,1.921-4.283,4.283
				s1.922,4.284,4.283,4.284s4.283-1.922,4.283-4.284S304.198,33.871,301.837,33.871z"/>
		</g>
		<g>
			<path style="fill:#FFFFFF;" d="M343.224,37.021h-2.405v-1h2.405c0.496,0,0.9-0.404,0.9-0.9v-8.859
				c0-0.163-0.044-0.323-0.127-0.462l-5.763-9.632c-0.162-0.27-0.458-0.438-0.773-0.438H326.33v20.292h5.52v1h-6.52V14.729h12.131
				c0.665,0,1.29,0.354,1.631,0.924l5.763,9.633c0.177,0.295,0.27,0.632,0.27,0.976v8.859
				C345.124,36.169,344.271,37.021,343.224,37.021z"/>
		</g>
		<g>
			<path style="fill:#FFFFFF;" d="M336.137,43.438c-2.913,0-5.283-2.37-5.283-5.284c0-2.913,2.37-5.283,5.283-5.283
				s5.283,2.37,5.283,5.283C341.42,41.068,339.05,43.438,336.137,43.438z M336.137,33.871c-2.361,0-4.283,1.921-4.283,4.283
				s1.922,4.284,4.283,4.284s4.283-1.922,4.283-4.284S338.498,33.871,336.137,33.871z"/>
		</g>
		<g>
			<path style="fill:#FFFFFF;" d="M339.506,26.588h-10.106c-0.662,0-1.2-0.539-1.2-1.2v-5.775c0-0.662,0.538-1.2,1.2-1.2h6.625
				c0.417,0,0.812,0.222,1.027,0.58l3.481,5.775c0.227,0.376,0.233,0.828,0.018,1.21S339.944,26.588,339.506,26.588z
				 M329.399,19.412c-0.11,0-0.2,0.09-0.2,0.2v5.775c0,0.11,0.09,0.2,0.2,0.2h10.106c0.102,0,0.152-0.063,0.174-0.102
				s0.05-0.115-0.003-0.202l-3.48-5.774c-0.036-0.06-0.103-0.097-0.172-0.097H329.399z"/>
		</g>
	</g>
</g>
</svg>
